<svg width="38" height="38" viewBox="0 0 38 38" fill="none" xmlns="http://www.w3.org/2000/svg">
<circle r="19" transform="matrix(-1 0 0 1 19 19)" fill="#BE1704"/>
<path d="M19.8443 24.1933C19.7476 24.2808 19.6206 24.3271 19.4903 24.3223C19.3599 24.3174 19.2367 24.2618 19.1467 24.1674C19.0568 24.0729 19.0074 23.9471 19.0089 23.8167C19.0104 23.6863 19.0629 23.5616 19.155 23.4693L23.3223 19.5H13.4997C13.3671 19.5 13.2399 19.4473 13.1461 19.3536C13.0524 19.2598 12.9997 19.1326 12.9997 19C12.9997 18.8674 13.0524 18.7402 13.1461 18.6465C13.2399 18.5527 13.3671 18.5 13.4997 18.5H23.3223L19.155 14.53C19.0629 14.4377 19.0104 14.3131 19.0089 14.1827C19.0074 14.0523 19.0568 13.9264 19.1467 13.832C19.2367 13.7375 19.3599 13.682 19.4903 13.6771C19.6206 13.6723 19.7476 13.7185 19.8443 13.806L24.791 18.5173C24.8993 18.6201 24.9697 18.7563 24.991 18.904C25.0032 18.9677 25.003 19.0331 24.9903 19.0967C24.9689 19.2442 24.8985 19.3801 24.7903 19.4827L19.8443 24.194V24.1933Z" fill="white"/>
</svg>
