<svg width="38" height="38" viewBox="0 0 38 38" fill="none" xmlns="http://www.w3.org/2000/svg">
<circle cx="19" cy="19" r="19" fill="white"/>
<path d="M18.1557 24.1933C18.2524 24.2808 18.3794 24.3271 18.5097 24.3223C18.6401 24.3174 18.7633 24.2618 18.8533 24.1674C18.9432 24.0729 18.9926 23.9471 18.9911 23.8167C18.9896 23.6863 18.9371 23.5616 18.845 23.4693L14.6777 19.5H24.5003C24.6329 19.5 24.7601 19.4473 24.8539 19.3536C24.9476 19.2598 25.0003 19.1326 25.0003 19C25.0003 18.8674 24.9476 18.7402 24.8539 18.6465C24.7601 18.5527 24.6329 18.5 24.5003 18.5H14.6777L18.845 14.53C18.9371 14.4377 18.9896 14.3131 18.9911 14.1827C18.9926 14.0523 18.9432 13.9264 18.8533 13.832C18.7633 13.7375 18.6401 13.682 18.5097 13.6771C18.3794 13.6723 18.2524 13.7185 18.1557 13.806L13.209 18.5173C13.1007 18.6201 13.0303 18.7563 13.009 18.904C12.9968 18.9677 12.997 19.0331 13.0097 19.0967C13.0311 19.2442 13.1015 19.3801 13.2097 19.4827L18.1557 24.194V24.1933Z" fill="black" fill-opacity="0.5"/>
</svg>
