<svg width="27" height="27" viewBox="0 0 27 27" fill="none" xmlns="http://www.w3.org/2000/svg">
<path fill-rule="evenodd" clip-rule="evenodd" d="M1.69767 0.0438004C1.34741 0.126575 0.835929 0.427638 0.586898 0.697711C0.460353 0.834973 0.276482 1.11671 0.178403 1.32367L0 1.70007V13.5078V25.3154L0.210532 25.7412C0.464073 26.2541 0.79044 26.5735 1.31449 26.8217L1.69102 27H13.5029H25.3148L25.7408 26.7895C26.2538 26.5361 26.5734 26.2098 26.8216 25.686L27 25.3096V13.5048V1.70007L26.8216 1.32367C26.5734 0.799868 26.2538 0.473561 25.7408 0.220111L25.3148 0.00965394L13.6157 0.000920075C6.68202 -0.00432022 1.82738 0.0132039 1.69767 0.0438004ZM25.1897 0.951555C25.4993 1.04301 25.9663 1.50979 26.0578 1.8193C26.1574 2.15649 26.1574 24.8532 26.0578 25.1903C25.9663 25.4999 25.4993 25.9666 25.1897 26.0581C24.8524 26.1577 2.1476 26.1577 1.8103 26.0581C1.50067 25.9666 1.03372 25.4999 0.942238 25.1903C0.84258 24.8532 0.84258 2.15649 0.942238 1.8193C1.02707 1.53227 1.49892 1.04385 1.77557 0.956683C2.07393 0.862695 24.8719 0.85768 25.1897 0.951555ZM2.81583 2.82448L2.67745 2.96276V13.5048V24.0469L2.81583 24.1852L2.95416 24.3235H13.5H24.0458L24.1842 24.1852L24.3225 24.0469V13.5048V2.96276L24.1842 2.82448L24.0458 2.68615H13.5H2.95416L2.81583 2.82448ZM23.4207 13.5048V23.4219H13.5H3.57933V13.5048V3.58771H13.5H23.4207V13.5048ZM12.4572 5.45038C8.98294 5.9193 6.21372 8.54108 5.51324 12.0246C5.365 12.7618 5.37903 14.3562 5.54019 15.0929C5.80945 16.3232 6.29675 17.4017 7.0165 18.3599C8.24943 20.0014 10.0061 21.0905 12.0626 21.4884C12.7646 21.6242 14.2986 21.624 14.9808 21.4879C16.6344 21.1583 18.0425 20.4079 19.224 19.2268C20.391 18.0602 21.0905 16.7677 21.4612 15.0929C21.6352 14.3068 21.6352 12.7029 21.4612 11.9168C21.0904 10.2417 20.3899 8.94628 19.225 7.78186C18.0554 6.61271 16.7734 5.91924 15.1065 5.55411C14.5134 5.42423 13.0697 5.36772 12.4572 5.45038ZM13.9509 7.28099C13.9509 8.25557 13.949 8.27163 13.8126 8.40793C13.7254 8.49516 13.6098 8.54627 13.5 8.54627C13.3902 8.54627 13.2746 8.49516 13.1874 8.40793C13.051 8.27163 13.0491 8.25557 13.0491 7.28099V6.29238H13.5H13.9509V7.28099ZM12.2811 8.67451C12.4197 8.95332 12.8166 9.29833 13.0945 9.38156C13.6097 9.53584 14.0361 9.4228 14.432 9.02713C14.8113 8.64797 14.8528 8.48203 14.8528 7.34641V6.41318L15.346 6.54521C16.1913 6.77144 16.8276 7.05999 17.5585 7.54864C18.1016 7.91168 19.095 8.9048 19.4584 9.44782C21.3742 12.3109 21.0616 16.0226 18.6983 18.4733C17.7231 19.4845 16.6748 20.109 15.3638 20.4598L14.8528 20.5965V19.6632C14.8528 18.5716 14.8099 18.3842 14.4751 18.0119C13.941 17.4181 13.1449 17.4058 12.568 17.9825C12.1887 18.3617 12.1472 18.5276 12.1472 19.6632V20.5965L11.654 20.4644C10.8087 20.2382 10.1724 19.9497 9.44154 19.461C8.89844 19.098 7.90497 18.1048 7.54157 17.5618C5.62581 14.6988 5.93842 10.987 8.30174 8.53635C9.2734 7.5288 10.3332 6.89625 11.6245 6.55326L12.119 6.42192L12.1472 7.4418C12.1706 8.28758 12.1934 8.49809 12.2811 8.67451ZM8.99061 12.2261C8.71395 12.3133 8.2421 12.8017 8.15727 13.0888C8.00113 13.6171 8.11122 14.0383 8.50957 14.4365C8.80149 14.7283 9.08699 14.8572 9.44154 14.8572C9.7961 14.8572 10.0816 14.7283 10.3735 14.4365C10.9438 13.8664 10.9438 13.1432 10.3735 12.5732C9.97687 12.1767 9.51522 12.0609 8.99061 12.2261ZM17.1075 12.2261C16.8309 12.3133 16.359 12.8017 16.2742 13.0888C16.118 13.6171 16.2281 14.0383 16.6265 14.4365C16.9184 14.7283 17.2039 14.8572 17.5585 14.8572C18.2569 14.8572 18.9113 14.203 18.9113 13.5048C18.9113 13.1504 18.7824 12.865 18.4904 12.5732C18.0938 12.1767 17.6321 12.0609 17.1075 12.2261ZM9.7541 13.1924C10.0337 13.4719 9.83561 13.9556 9.44154 13.9556C9.20982 13.9556 8.99061 13.7365 8.99061 13.5048C8.99061 13.3951 9.04173 13.2796 9.12899 13.1924C9.21619 13.1052 9.33174 13.054 9.44154 13.054C9.55135 13.054 9.6669 13.1052 9.7541 13.1924ZM17.871 13.1924C17.9583 13.2796 18.0094 13.3951 18.0094 13.5048C18.0094 13.6146 17.9583 13.7301 17.871 13.8173C17.7838 13.9045 17.6683 13.9556 17.5585 13.9556C17.4487 13.9556 17.3331 13.9045 17.2459 13.8173C16.9663 13.5378 17.1644 13.054 17.5585 13.054C17.6683 13.054 17.7838 13.1052 17.871 13.1924ZM13.8126 18.6017C13.949 18.738 13.9509 18.7541 13.9509 19.7287V20.7173H13.5H13.0491V19.7287C13.0491 18.7541 13.051 18.738 13.1874 18.6017C13.2746 18.5145 13.3902 18.4634 13.5 18.4634C13.6098 18.4634 13.7254 18.5145 13.8126 18.6017Z" fill="#BE1704"/>
</svg>
