<svg width="27" height="27" viewBox="0 0 27 27" fill="none" xmlns="http://www.w3.org/2000/svg">
<path fill-rule="evenodd" clip-rule="evenodd" d="M16.2866 0.05603C15.2203 0.176635 14.346 0.442782 13.2617 0.976655C10.3875 2.39206 8.45232 5.31875 8.29361 8.4903C8.25601 9.24116 8.28364 9.32005 8.58411 9.32005C8.80288 9.32005 8.85433 9.1982 8.89428 8.58586C8.99739 7.00335 9.48573 5.56922 10.3639 4.2699C10.8149 3.60252 11.908 2.51903 12.5804 2.07277C14.0639 1.08833 15.5488 0.640704 17.3221 0.643427C19.7755 0.647129 21.9222 1.61627 23.6073 3.48082C24.5689 4.54492 25.2313 5.87517 25.5591 7.40072C25.7374 8.22987 25.7374 9.83852 25.5591 10.6677C25.1756 12.4524 24.3978 13.8508 23.0889 15.1092C21.6377 16.5042 19.8849 17.2725 17.8197 17.4187C17.2671 17.4578 17.1212 17.4856 17.0649 17.5626C16.9516 17.7173 16.9817 17.8981 17.1376 18.0002C17.2833 18.0956 17.437 18.0895 18.9299 17.9299L19.1479 17.9066L20.5599 20.361C21.3365 21.7109 22.0333 22.8637 22.1084 22.9227C22.1835 22.9817 22.3069 23.0455 22.3825 23.0645C22.5719 23.112 22.9319 22.9746 23.0555 22.8077C23.1119 22.7316 23.3304 22.1806 23.5413 21.5832C23.7521 20.9858 23.9321 20.4895 23.9412 20.4804C23.9503 20.4713 24.4918 20.5647 25.1446 20.6878C25.7974 20.811 26.3871 20.8978 26.4552 20.8807C26.8088 20.792 27.0847 20.3414 26.976 20.03C26.9447 19.9403 26.3037 18.8007 25.5516 17.4974C24.7995 16.1942 24.1701 15.0913 24.1529 15.0466C24.1345 14.9987 24.222 14.8377 24.3661 14.6542C25.7958 12.8339 26.4469 10.7309 26.3042 8.39442C26.1372 5.6614 24.6531 3.10066 22.3362 1.54832C20.5427 0.34657 18.397 -0.182729 16.2866 0.05603ZM16.7177 2.99225C14.0059 3.23678 11.7402 5.35621 11.3016 8.05869C10.8021 11.1359 12.7425 14.1202 15.7548 14.9077C17.8542 15.4565 20.0614 14.8538 21.6023 13.3111C23.9601 10.9504 23.9592 7.14247 21.6005 4.76207C20.3228 3.47277 18.543 2.8276 16.7177 2.99225ZM18.6381 3.74403C20.707 4.29092 22.2164 5.89368 22.6714 8.02689C22.76 8.4419 22.7591 9.61446 22.67 10.0415C22.4838 10.9332 22.1005 11.7558 21.5519 12.4408C20.5038 13.7495 18.9695 14.4805 17.2752 14.4784C14.7921 14.4753 12.6375 12.796 12.0018 10.3682C11.8797 9.90173 11.8592 9.71062 11.8592 9.03419C11.8592 8.36447 11.8801 8.16524 11.9969 7.72094C12.5487 5.62127 14.1926 4.07715 16.3138 3.66595C16.8627 3.5595 18.097 3.60099 18.6381 3.74403ZM16.9962 5.87958C16.7582 5.97955 16.6625 6.10777 16.3282 6.77456C16.148 7.13392 15.9771 7.44287 15.9485 7.46105C15.9199 7.47924 15.5857 7.53728 15.2058 7.58999C14.826 7.64269 14.4497 7.7193 14.3697 7.76025C14.1782 7.85815 13.9982 8.11651 13.9607 8.34716C13.9059 8.68458 14.0247 8.88577 14.6101 9.44714L15.1623 9.97666L15.0339 10.7555C14.9074 11.5223 14.907 11.5378 15.0063 11.7578C15.1234 12.0174 15.4645 12.2467 15.7331 12.2467C15.8392 12.2467 16.1753 12.1081 16.6035 11.8877L17.301 11.5286L17.9915 11.8877C18.4117 12.1062 18.7486 12.2467 18.8522 12.2467C19.2203 12.2467 19.5732 11.9601 19.6446 11.6033C19.6625 11.5139 19.623 11.1176 19.5568 10.7227L19.4364 10.0047L19.981 9.45138C20.63 8.79201 20.7223 8.59436 20.5688 8.19274C20.4316 7.83376 20.2531 7.73319 19.5401 7.61307C19.2045 7.5565 18.8632 7.51011 18.7816 7.50995C18.6464 7.50967 18.6006 7.44597 18.2638 6.79078C18.0474 6.36978 17.8348 6.02888 17.7507 5.96806C17.5811 5.84544 17.1873 5.79927 16.9962 5.87958ZM17.8045 7.2291C17.992 7.61825 18.1767 7.96264 18.2151 7.99444C18.2535 8.02629 18.6262 8.10224 19.0434 8.16323C19.9801 8.30022 19.9927 8.30414 19.9927 8.45943C19.9927 8.54873 19.8189 8.74992 19.3932 9.15344C18.7009 9.8096 18.7352 9.69248 18.9261 10.7474C18.9963 11.1357 19.0424 11.4829 19.0285 11.5191C18.9727 11.6644 18.8301 11.624 18.1235 11.2625C17.7181 11.0551 17.3413 10.8856 17.2861 10.8857C17.231 10.8858 16.8798 11.0446 16.5057 11.2386C16.1317 11.4325 15.7951 11.6029 15.7579 11.6172C15.6535 11.6572 15.5202 11.4909 15.5501 11.358C15.5979 11.1455 15.796 9.9227 15.796 9.83993C15.796 9.79567 15.5263 9.4932 15.1965 9.16787C14.7825 8.75934 14.597 8.53795 14.597 8.45235C14.597 8.30708 14.5808 8.31193 15.5751 8.16094C15.9782 8.09974 16.3421 8.02139 16.3837 7.98687C16.4254 7.95235 16.6051 7.61645 16.7832 7.24042C17.1245 6.52001 17.2224 6.39265 17.3732 6.47324C17.4229 6.49986 17.6171 6.84001 17.8045 7.2291ZM8.0568 9.99217C7.82779 10.0913 7.60101 10.2998 7.44061 10.5587C7.33684 10.7263 7.31885 10.8543 7.29155 11.6205C7.25574 12.6263 7.24179 12.6658 6.58133 13.6351C6.16347 14.2485 5.08129 15.6235 5.0185 15.6208C4.99594 15.6199 4.87936 15.5588 4.75945 15.485L4.54145 15.3508L2.63302 15.3506C0.471699 15.3502 0.490392 15.347 0.181313 15.7826L0.0178084 16.013L0.00309297 21.0213C-0.00682633 24.3836 0.00707159 26.0992 0.0453863 26.2413C0.120435 26.5197 0.342311 26.7763 0.615092 26.9C0.814514 26.9906 1.00532 27 2.63389 27C4.27951 27 4.45168 26.9913 4.65868 26.8974C4.78311 26.8409 4.94105 26.7189 5.00956 26.6263L5.13421 26.4579H9.01113C13.3171 26.4579 13.1741 26.4692 13.6118 26.0949C13.9678 25.7905 14.1307 25.4262 14.1324 24.931C14.1335 24.5909 14.1088 24.4724 13.9886 24.2409L13.8434 23.9614L14.1371 23.8179C14.8878 23.451 15.2047 22.5132 14.8286 21.7714L14.6788 21.4758L14.9785 21.3076C15.734 20.8837 15.994 19.9849 15.58 19.2288L15.4229 18.9419L15.6231 18.8388C15.7332 18.7821 15.9002 18.6539 15.9943 18.554C16.7103 17.7932 16.5102 16.6053 15.5856 16.1272L15.2415 15.9492H12.9845C11.7431 15.9492 10.7274 15.9339 10.7274 15.9151C10.7274 15.8964 10.8147 15.663 10.9214 15.3965C11.2928 14.4693 11.5211 13.1184 11.4299 12.3891C11.3176 11.4921 10.6718 10.6058 9.84495 10.2137C9.19769 9.9068 8.4641 9.81592 8.0568 9.99217ZM8.93477 10.5599C10.0042 10.7625 10.7727 11.6136 10.8244 12.6526C10.8667 13.5026 10.5803 14.7333 10.1261 15.654C9.97717 15.9558 9.85536 16.2356 9.85536 16.2759C9.85536 16.3161 9.89596 16.3938 9.94556 16.4486C10.0305 16.5423 10.1833 16.5482 12.5444 16.5482C14.98 16.5482 15.06 16.5515 15.2891 16.6623C15.6337 16.829 15.8174 17.1619 15.7843 17.5601C15.7579 17.8774 15.6522 18.0669 15.3938 18.2599C15.2576 18.3617 15.1446 18.3748 14.1926 18.3994C13.0496 18.4291 12.962 18.4526 12.962 18.7297C12.962 18.9972 13.1176 19.0528 13.8653 19.0528C14.4627 19.0528 14.5441 19.0648 14.7103 19.1766C14.8114 19.2447 14.9521 19.3856 15.0229 19.4897C15.131 19.6488 15.1483 19.7315 15.1313 20.008C15.1066 20.4094 14.9666 20.6296 14.6339 20.7905C14.4198 20.8941 14.3027 20.9041 13.3057 20.9041C12.1218 20.9041 12.0763 20.9152 12.0763 21.2036C12.0763 21.4724 12.1576 21.503 12.8732 21.5034C13.6868 21.5037 13.877 21.553 14.1253 21.8276C14.4272 22.1614 14.456 22.6013 14.2006 22.9752C13.9691 23.3138 13.8134 23.3543 12.7433 23.3543C11.6742 23.3543 11.5449 23.3896 11.5449 23.681C11.5449 23.9403 11.7061 24.0077 12.3262 24.0077C12.769 24.0077 12.9009 24.0277 13.0645 24.1195C13.7283 24.4922 13.6872 25.441 12.9935 25.7557C12.7841 25.8507 12.5539 25.8566 9.02421 25.8578L5.27722 25.859V21.0892V16.3194L5.75852 15.7395C6.67491 14.6355 7.38055 13.6426 7.67883 13.0372C7.86529 12.6589 7.97538 11.9203 7.91913 11.425C7.87559 11.0412 7.98116 10.7665 8.23066 10.6146C8.43641 10.4893 8.52557 10.4824 8.93477 10.5599ZM25.0325 17.845C25.7451 19.0823 26.3313 20.1359 26.3351 20.1863C26.3435 20.2966 26.383 20.3007 25.0891 20.0555C23.9795 19.8451 23.8655 19.837 23.6425 19.9522C23.4338 20.06 23.383 20.1659 22.9578 21.3787C22.7606 21.9412 22.5808 22.4209 22.5581 22.4446C22.5354 22.4683 22.4914 22.4561 22.4601 22.4173C22.3641 22.2986 19.7747 17.8065 19.7747 17.7588C19.7747 17.7342 19.9806 17.6471 20.2323 17.5652C21.3144 17.2131 22.7932 16.3229 23.4508 15.6277C23.5779 15.4933 23.6248 15.4721 23.6742 15.5265C23.7086 15.5643 24.3199 16.6077 25.0325 17.845ZM4.5142 16.0581C4.62162 16.1654 4.6232 16.2396 4.6232 21.1679V26.1688L4.50847 26.2725C4.40067 26.37 4.28801 26.3762 2.63389 26.3762C0.979763 26.3762 0.867108 26.37 0.759304 26.2725L0.644578 26.1688V21.1679C0.644578 16.2396 0.646158 16.1654 0.753581 16.0581C0.858115 15.9537 0.935235 15.9492 2.63389 15.9492C4.33254 15.9492 4.40966 15.9537 4.5142 16.0581ZM2.03748 24.2376C1.9252 24.3977 1.93038 24.5152 2.05464 24.6275C2.13825 24.7031 2.24867 24.7169 2.66588 24.704C3.15193 24.689 3.17869 24.6818 3.25548 24.5448C3.32759 24.4162 3.32628 24.3867 3.24251 24.259C3.15274 24.1221 3.12925 24.1166 2.63574 24.1166C2.16697 24.1166 2.11492 24.1271 2.03748 24.2376Z" fill="#BE1704"/>
</svg>
