<svg width="26" height="30" viewBox="0 0 26 30" fill="none" xmlns="http://www.w3.org/2000/svg">
<g clip-path="url(#clip0_509_772)">
<path d="M19.5195 30.0081H6.48023C5.43859 30.0081 4.43962 29.5845 3.70307 28.8305C2.96652 28.0766 2.55273 27.054 2.55273 25.9877V7.83973C2.55312 6.84441 2.91418 5.88462 3.56603 5.14609L4.21014 5.7411C3.70401 6.31728 3.42419 7.06487 3.42464 7.83973V25.9877C3.42671 26.8187 3.75013 27.6151 4.32419 28.2027C4.89825 28.7904 5.67624 29.1215 6.48808 29.1236H19.5274C20.3392 29.1215 21.1172 28.7904 21.6912 28.2027C22.2653 27.6151 22.5887 26.8187 22.5908 25.9877V7.83973C22.5986 7.06111 22.3179 6.30838 21.8053 5.73306L22.4337 5.13C23.0978 5.86902 23.4676 6.83564 23.4706 7.83973V25.9877C23.4706 26.5177 23.3682 27.0425 23.1694 27.5318C22.9705 28.0212 22.6791 28.4654 22.3119 28.8391C21.9447 29.2127 21.509 29.5084 21.0297 29.709C20.5505 29.9096 20.0372 30.0112 19.5195 30.0081Z" fill="#BE1704"/>
<path d="M13.6279 19.3138C13.6279 18.9541 13.3448 18.6625 12.9956 18.6625C12.6464 18.6625 12.3633 18.9541 12.3633 19.3138V22.8035C12.3633 23.1632 12.6464 23.4548 12.9956 23.4548C13.3448 23.4548 13.6279 23.1632 13.6279 22.8035V19.3138Z" fill="white"/>
<path d="M12.9999 23.8971C12.857 23.8972 12.7154 23.8678 12.5837 23.8109C12.452 23.7539 12.3328 23.6705 12.2332 23.5655C12.1336 23.4605 12.0556 23.3362 12.0038 23.1998C11.952 23.0633 11.9275 22.9177 11.9317 22.7714V19.3139C11.919 19.1629 11.9371 19.0109 11.9848 18.8675C12.0325 18.7241 12.1089 18.5924 12.2089 18.4808C12.309 18.3692 12.4306 18.2801 12.5661 18.2191C12.7016 18.1581 12.848 18.1266 12.996 18.1266C13.144 18.1266 13.2904 18.1581 13.4259 18.2191C13.5614 18.2801 13.683 18.3692 13.7831 18.4808C13.8832 18.5924 13.9595 18.7241 14.0072 18.8675C14.0549 19.0109 14.073 19.1629 14.0604 19.3139V22.7714C14.0656 22.9173 14.0421 23.0628 13.9912 23.1991C13.9403 23.3355 13.863 23.46 13.764 23.5651C13.665 23.6702 13.5463 23.7537 13.415 23.8108C13.2837 23.8678 13.1426 23.8972 12.9999 23.8971ZM12.9999 19.0727C12.9458 19.0727 12.8938 19.0947 12.8555 19.1339C12.8172 19.1731 12.7957 19.2263 12.7957 19.2817V22.7714C12.7957 23.0046 13.1963 23.0046 13.1963 22.7714V19.3139C13.1964 19.2598 13.1759 19.2078 13.1393 19.1688C13.1027 19.1298 13.0527 19.1069 12.9999 19.1048V19.0727Z" fill="#BE1704"/>
<path d="M8.73438 19.5551C8.73438 19.6127 8.75672 19.6679 8.79649 19.7086C8.83627 19.7493 8.89021 19.7722 8.94646 19.7722H11.9314C11.9876 19.7722 12.0415 19.7493 12.0813 19.7086C12.1211 19.6679 12.1434 19.6127 12.1434 19.5551C12.1434 19.4975 12.1211 19.4423 12.0813 19.4016C12.0415 19.3609 11.9876 19.338 11.9314 19.338H8.94646C8.89021 19.338 8.83627 19.3609 8.79649 19.4016C8.75672 19.4423 8.73438 19.4975 8.73438 19.5551Z" fill="white"/>
<path d="M11.9315 19.9651H8.94663C8.83413 19.9651 8.72624 19.9194 8.6467 19.838C8.56715 19.7565 8.52246 19.6461 8.52246 19.5309C8.52246 19.4158 8.56715 19.3053 8.6467 19.2239C8.72624 19.1425 8.83413 19.0967 8.94663 19.0967H11.9315C12.044 19.0967 12.1519 19.1425 12.2315 19.2239C12.311 19.3053 12.3557 19.4158 12.3557 19.5309C12.3557 19.6461 12.311 19.7565 12.2315 19.838C12.1519 19.9194 12.044 19.9651 11.9315 19.9651Z" fill="#BE1704"/>
<path d="M21.9861 5.88582H3.91963C3.50298 5.88582 3.10339 5.71639 2.80877 5.41481C2.51415 5.11322 2.34863 4.70418 2.34863 4.27767C2.34863 3.85117 2.51415 3.44213 2.80877 3.14054C3.10339 2.83895 3.50298 2.66953 3.91963 2.66953H21.9861C22.4028 2.66953 22.8023 2.83895 23.097 3.14054C23.3916 3.44213 23.5571 3.85117 23.5571 4.27767C23.5571 4.70418 23.3916 5.11322 23.097 5.41481C22.8023 5.71639 22.4028 5.88582 21.9861 5.88582ZM3.91963 3.55401C3.73214 3.55401 3.55232 3.63025 3.41974 3.76596C3.28716 3.90168 3.21268 4.08574 3.21268 4.27767C3.21268 4.4696 3.28716 4.65367 3.41974 4.78938C3.55232 4.9251 3.73214 5.00134 3.91963 5.00134H21.9861C22.1736 5.00134 22.3534 4.9251 22.486 4.78938C22.6186 4.65367 22.693 4.4696 22.693 4.27767C22.693 4.08574 22.6186 3.90168 22.486 3.76596C22.3534 3.63025 22.1736 3.55401 21.9861 3.55401H3.91963Z" fill="#BE1704"/>
<path d="M0.847997 8.18549H2.54467V9.05389H0.847997C0.735501 9.05389 0.627612 9.00814 0.548064 8.92671C0.468517 8.84528 0.423828 8.73484 0.423828 8.61969C0.423828 8.50453 0.468517 8.39409 0.548064 8.31266C0.627612 8.23123 0.735501 8.18549 0.847997 8.18549Z" fill="white"/>
<path d="M2.96918 9.48808H0.848338C0.623345 9.48808 0.407567 9.39659 0.248473 9.23373C0.0893783 9.07088 0 8.85 0 8.61968C0 8.38937 0.0893783 8.16849 0.248473 8.00563C0.407567 7.84277 0.623345 7.75128 0.848338 7.75128H2.96918V9.48808ZM0.848338 8.18548V8.62772V8.18548Z" fill="#BE1704"/>
<path d="M25.1282 8.18549H23.4473V9.05389H25.1282C25.2407 9.05389 25.3486 9.00814 25.4282 8.92671C25.5077 8.84528 25.5524 8.73484 25.5524 8.61969C25.5524 8.50453 25.5077 8.39409 25.4282 8.31266C25.3486 8.23123 25.2407 8.18549 25.1282 8.18549Z" fill="white"/>
<path d="M25.1286 9.48808H23.0234V7.75128H25.1286C25.3536 7.75128 25.5693 7.84277 25.7284 8.00563C25.8875 8.16849 25.9769 8.38937 25.9769 8.61968C25.9769 8.85 25.8875 9.07088 25.7284 9.23373C25.5693 9.39659 25.3536 9.48808 25.1286 9.48808Z" fill="#BE1704"/>
<path d="M23.0228 26.06H2.55273V26.9445H23.0228V26.06Z" fill="#BE1704"/>
<path d="M23.0228 10.3484H2.55273V11.2329H23.0228V10.3484Z" fill="#BE1704"/>
<path d="M14.3978 3.11177V3.03137C14.3978 2.38811 14.0679 1.9137 13.7694 1.9137H12.1984C11.8999 1.9137 11.57 2.38811 11.57 3.03137L10.5488 3.11177C10.5488 1.81722 11.2715 0.868408 12.1984 0.868408H13.7694C14.6963 0.868408 15.4189 1.81722 15.4189 3.03137L14.3978 3.11177Z" fill="#BE1704"/>
<path d="M6.04845 0.538723L6.27624 0.418112C6.41579 0.352442 6.56969 0.325311 6.72266 0.339418C6.87562 0.353524 7.02231 0.408376 7.14814 0.498519L5.57715 1.30259C5.58221 1.14386 5.62855 0.989383 5.7114 0.855105C5.79425 0.720826 5.9106 0.611609 6.04845 0.538723Z" fill="#BE1704"/>
<path d="M5.17676 1.8172L5.22389 1.2463C5.24476 1.03511 5.31867 0.833032 5.43842 0.659728C5.55817 0.486423 5.71969 0.347785 5.90727 0.257293L6.14292 0.144723C6.33515 0.053341 6.54757 0.0156223 6.75863 0.035392C6.9697 0.0551618 7.1719 0.131717 7.34473 0.257293L7.80818 0.586963L5.17676 1.8172Z" fill="#BE1704"/>
<path d="M6.37942 0.309497L5.65625 0.793549L7.2683 3.3172L7.99147 2.83315L6.37942 0.309497Z" fill="#BE1704"/>
<path d="M20.1163 0.538723L19.8807 0.418112C19.7411 0.352442 19.5872 0.325311 19.4343 0.339418C19.2813 0.353524 19.1346 0.408376 19.0088 0.498519L20.6191 1.30259C20.611 1.14051 20.56 0.983744 20.4714 0.849149C20.3828 0.714555 20.2601 0.607231 20.1163 0.538723Z" fill="#BE1704"/>
<path d="M20.9888 1.8172L18.3574 0.554799L18.8444 0.257292C19.0132 0.1336 19.21 0.0561136 19.4162 0.0321897C19.6224 0.00826579 19.8312 0.0386989 20.0227 0.120599L20.2583 0.233169C20.4491 0.325709 20.6128 0.468074 20.7327 0.645932C20.8527 0.823789 20.9248 1.03086 20.9417 1.2463L20.9888 1.8172Z" fill="#BE1704"/>
<path d="M19.7894 0.312515L18.1816 2.82944L18.9048 3.31349L20.5126 0.796566L19.7894 0.312515Z" fill="#BE1704"/>
</g>
<defs>
<clipPath id="clip0_509_772">
<rect width="26" height="30" fill="white"/>
</clipPath>
</defs>
</svg>
