<svg width="30" height="27" viewBox="0 0 30 27" fill="none" xmlns="http://www.w3.org/2000/svg">
<path d="M18.3259 25.3125H6.20457C5.22206 25.3125 4.27979 24.9125 3.58504 24.2004C2.8903 23.4884 2.5 22.5226 2.5 21.5156C2.5 20.5086 2.8903 19.5429 3.58504 18.8308C4.27979 18.1188 5.22206 17.7188 6.20457 17.7188H18.3333V18.63H6.20457C5.83484 18.63 5.46872 18.7046 5.12713 18.8497C4.78555 18.9947 4.47517 19.2072 4.21373 19.4752C3.95229 19.7431 3.7449 20.0612 3.60341 20.4113C3.46192 20.7614 3.3891 21.1367 3.3891 21.5156C3.3891 21.8946 3.46192 22.2698 3.60341 22.6199C3.7449 22.97 3.95229 23.2881 4.21373 23.5561C4.47517 23.824 4.78555 24.0366 5.12713 24.1816C5.46872 24.3266 5.83484 24.4012 6.20457 24.4012H18.3259V25.3125Z" fill="#BE1704"/>
<path d="M11.1975 12.1837H23.3189C24.3014 12.1837 25.2437 11.7837 25.9384 11.0717C26.6331 10.3596 27.0234 9.39387 27.0234 8.38687C27.0234 7.37988 26.6331 6.41413 25.9384 5.70208C25.2437 4.99002 24.3014 4.59 23.3189 4.59H11.1901V5.50125H23.3189C23.6886 5.50125 24.0547 5.57589 24.3963 5.7209C24.7379 5.86592 25.0483 6.07847 25.3097 6.34643C25.5711 6.61438 25.7785 6.93249 25.92 7.28259C26.0615 7.63269 26.1343 8.00793 26.1343 8.38687C26.1343 8.76582 26.0615 9.14105 25.92 9.49115C25.7785 9.84125 25.5711 10.1594 25.3097 10.4273C25.0483 10.6953 24.7379 10.9078 24.3963 11.0528C24.0547 11.1979 23.6886 11.2725 23.3189 11.2725H11.1975V12.1837Z" fill="#BE1704"/>
<path d="M21.6071 27C20.5358 27 19.4885 26.6783 18.5978 26.0757C17.707 25.4731 17.0127 24.6165 16.6028 23.6144C16.1928 22.6123 16.0855 21.5095 16.2945 20.4457C16.5035 19.3818 17.0194 18.4046 17.7769 17.6376C18.5345 16.8706 19.4996 16.3482 20.5504 16.1366C21.6011 15.925 22.6902 16.0336 23.68 16.4487C24.6697 16.8638 25.5157 17.5668 26.1109 18.4687C26.7061 19.3706 27.0238 20.4309 27.0238 21.5156C27.0238 22.2358 26.8837 22.949 26.6114 23.6144C26.3392 24.2798 25.9402 24.8844 25.4373 25.3937C24.9343 25.9029 24.3371 26.3069 23.68 26.5825C23.0228 26.8581 22.3184 27 21.6071 27ZM21.6071 16.9714C20.7194 16.9714 19.8517 17.2379 19.1136 17.7373C18.3756 18.2366 17.8003 18.9463 17.4606 19.7766C17.1209 20.607 17.0321 21.5207 17.2052 22.4022C17.3784 23.2836 17.8059 24.0933 18.4335 24.7289C19.0612 25.3644 19.8609 25.7972 20.7315 25.9725C21.6021 26.1478 22.5045 26.0579 23.3246 25.7139C24.1447 25.37 24.8457 24.7875 25.3388 24.0402C25.832 23.293 26.0952 22.4144 26.0952 21.5156C26.0952 20.3104 25.6223 19.1546 24.7807 18.3024C23.939 17.4502 22.7974 16.9714 21.6071 16.9714Z" fill="#BE1704"/>
<path d="M7.91634 13.8712C8.98765 13.8712 10.0349 13.5496 10.9257 12.947C11.8164 12.3443 12.5107 11.4878 12.9207 10.4857C13.3307 9.48351 13.4379 8.38079 13.2289 7.31692C13.0199 6.25306 12.504 5.27584 11.7465 4.50883C10.989 3.74183 10.0238 3.2195 8.97308 3.00788C7.92235 2.79626 6.83324 2.90487 5.84347 3.31997C4.85371 3.73507 4.00774 4.43802 3.41255 5.33992C2.81736 6.24182 2.49967 7.30217 2.49967 8.38687C2.49967 9.10709 2.63978 9.82026 2.91199 10.4857C3.18421 11.151 3.5832 11.7556 4.08618 12.2649C4.58916 12.7742 5.18629 13.1782 5.84347 13.4538C6.50065 13.7294 7.20501 13.8712 7.91634 13.8712ZM7.91634 3.84268C8.804 3.84268 9.67173 4.10919 10.4098 4.60851C11.1479 5.10784 11.7231 5.81754 12.0628 6.64788C12.4025 7.47823 12.4914 8.39191 12.3182 9.2734C12.145 10.1549 11.7176 10.9646 11.0899 11.6001C10.4622 12.2356 9.66253 12.6684 8.79192 12.8438C7.92132 13.0191 7.01891 12.9291 6.19882 12.5852C5.37873 12.2412 4.67778 11.6588 4.18463 10.9115C3.69147 10.1642 3.42825 9.28563 3.42825 8.38687C3.42825 7.18168 3.9011 6.02584 4.74278 5.17364C5.58446 4.32144 6.72602 3.84268 7.91634 3.84268Z" fill="#BE1704"/>
</svg>
