<svg width="22" height="31" viewBox="0 0 22 31" fill="none" xmlns="http://www.w3.org/2000/svg">
<path fill-rule="evenodd" clip-rule="evenodd" d="M2.26047 0.085083C1.20097 0.380967 0.372684 1.24852 0.0936661 2.35452C0.0126145 2.67567 0.000284834 4.20717 0.000284834 13.9409C0.000284834 26.2885 -0.0243748 25.498 0.385202 26.2912C0.768303 27.0334 1.61819 27.6726 2.4344 27.8324C2.61966 27.8687 3.16173 27.8984 3.63891 27.8984H4.50663V29.2905C4.50663 30.6826 4.50663 30.6828 4.66028 30.8414C4.75973 30.944 4.88491 31 5.01528 31C5.19059 31 5.33304 30.8809 6.11345 30.0821L7.01015 29.1641L7.90685 30.0821C8.68726 30.8809 8.82971 31 9.00502 31C9.13539 31 9.26057 30.944 9.36002 30.8414C9.51361 30.6828 9.51367 30.6825 9.51367 29.2923V27.9017L15.0371 27.8839L20.5605 27.866L20.9548 27.6452C21.3929 27.4 21.5815 27.1988 21.8313 26.7098L22 26.3798V13.9409V1.50202L21.8313 1.17202C21.5815 0.683055 21.3929 0.481836 20.9548 0.236611L20.5605 0.0158128L11.5791 0.0033415C3.8815 -0.00732042 2.5495 0.00437547 2.26047 0.085083ZM20.429 1.10746C20.5439 1.15703 20.719 1.30739 20.8182 1.44167L20.9986 1.68579L21.0148 11.6894L21.0311 21.693L11.6892 21.7102L2.34734 21.7274L1.98658 21.8777C1.78818 21.9604 1.48494 22.126 1.31276 22.2456L0.999754 22.4631L1.0164 12.4995L1.03299 2.5359L1.20166 2.2059C1.29442 2.02432 1.43994 1.79041 1.52506 1.68599C1.69605 1.47617 2.23312 1.15166 2.53122 1.078C2.63662 1.05196 6.65978 1.02766 11.4716 1.02398C18.8212 1.01842 20.2537 1.0318 20.429 1.10746ZM10.1536 3.70044C9.27121 3.8983 8.36406 4.50926 7.82279 5.27033L7.523 5.69183L7.12563 5.67697C6.64533 5.65901 5.86423 5.817 5.41146 6.02377C3.67646 6.81592 2.70722 8.76589 3.09908 10.6759C3.34111 11.8555 4.19018 12.9781 5.24204 13.5093L5.50804 13.6436V15.7071C5.50804 17.1384 5.53138 17.8522 5.58414 18.0367C5.68572 18.3916 6.2042 18.9269 6.548 19.0318C6.73908 19.0901 7.89571 19.1103 11.0276 19.1103C15.8428 19.1103 15.6364 19.1313 16.1041 18.5942C16.253 18.4233 16.4082 18.1681 16.4491 18.0271C16.4999 17.8523 16.5236 17.1148 16.5237 15.7104L16.5239 13.6501L16.8523 13.4727C17.628 13.0536 18.2783 12.3489 18.6614 11.5121C19.5534 9.56444 18.7119 7.09074 16.8339 6.13944C16.2268 5.83192 15.4898 5.65513 14.906 5.67697L14.5086 5.69183L14.2122 5.27511C13.8167 4.71901 13.4043 4.36161 12.7996 4.05087C11.9708 3.62503 11.0398 3.50174 10.1536 3.70044ZM11.7329 4.73491C13.0239 5.0821 14.02 6.35487 14.02 7.65724C14.02 8.19538 14.5257 8.4492 14.8764 8.08708C15.0296 7.92896 15.0365 7.89381 15.001 7.45706C14.9802 7.20266 14.9449 6.92907 14.9225 6.84913C14.8859 6.71867 14.9033 6.70387 15.0923 6.70471C15.2083 6.70523 15.4835 6.74956 15.7041 6.80326C17.3181 7.196 18.3421 8.91154 17.9323 10.536C17.7118 11.41 17.1343 12.1628 16.3889 12.5478C15.6787 12.9145 15.2892 12.9584 14.1343 12.8018C13.8761 12.7668 13.8228 12.7817 13.6805 12.9286C13.4687 13.1472 13.4736 13.3868 13.6945 13.6148C13.9012 13.8281 14.5356 13.9661 15.1463 13.9305L15.5224 13.9086L15.5223 14.9587L15.5221 16.0087H11.0158H6.50945L6.50932 14.9587L6.5092 13.9086L6.88529 13.9305C7.49596 13.9661 8.13042 13.8281 8.33708 13.6148C8.55795 13.3868 8.56284 13.1472 8.35104 12.9286C8.20878 12.7817 8.15545 12.7668 7.89727 12.8018C7.11849 12.9074 6.76731 12.9179 6.4304 12.8457C5.86229 12.7239 5.26394 12.3794 4.859 11.9411C3.50271 10.473 3.82129 8.18801 5.5295 7.13145C5.8917 6.90742 6.56884 6.70374 6.95157 6.70374C7.12763 6.70374 7.14534 6.72009 7.1091 6.84913C7.08663 6.92907 7.05133 7.20266 7.03062 7.45706C6.99507 7.89381 7.00202 7.92896 7.15517 8.08708C7.50591 8.4492 8.01156 8.19538 8.01156 7.65724C8.01156 7.50313 8.05356 7.21054 8.10494 7.007C8.52616 5.33727 10.1624 4.31257 11.7329 4.73491ZM15.5221 17.4009C15.5221 17.6952 15.4947 17.7876 15.3685 17.9178L15.2149 18.0765H11.0158H6.81669L6.6631 17.9178C6.53692 17.7876 6.50945 17.6952 6.50945 17.4009V17.0426H11.0158H15.5221V17.4009ZM21.0171 24.469C20.9997 26.1096 20.9912 26.2193 20.8695 26.3874C20.7986 26.4855 20.6627 26.6256 20.5677 26.6989C20.3967 26.8308 20.3385 26.8324 14.9543 26.8493L9.51367 26.8665V26.0901V25.3136H14.3671H19.2205L19.3741 25.155C19.471 25.055 19.5278 24.9226 19.5278 24.7967C19.5278 24.6708 19.471 24.5384 19.3741 24.4384L19.2205 24.2798H11.2661H3.31176L3.15817 24.4384C2.95488 24.6482 2.95488 24.9452 3.15817 25.155C3.2998 25.3013 3.35832 25.3136 3.90922 25.3136H4.50663V26.0957V26.8778L3.48957 26.8539L2.47251 26.8301L2.07665 26.6096C1.64729 26.3703 1.39306 26.0958 1.17744 25.6387C0.973905 25.2072 0.980602 24.3726 1.19115 23.9244C1.45202 23.3692 1.97237 22.9296 2.5351 22.789C2.63837 22.7632 6.84323 22.7392 11.8793 22.7355L21.0356 22.7289L21.0171 24.469ZM8.51227 27.2645V29.2153L7.86417 28.5568C7.30719 27.9909 7.18709 27.8984 7.01015 27.8984C6.83321 27.8984 6.71311 27.9909 6.15614 28.5568L5.50804 29.2153V27.2645V25.3136H7.01015H8.51227V27.2645Z" fill="#BE1704"/>
</svg>
