<svg width="28" height="27" viewBox="0 0 28 27" fill="none" xmlns="http://www.w3.org/2000/svg">
<path fill-rule="evenodd" clip-rule="evenodd" d="M13.532 0.0624177C13.1565 0.204067 12.8042 0.466906 12.113 1.12118C11.7355 1.47857 11.3344 1.82712 11.2219 1.89577C10.9304 2.07351 10.4784 2.05305 9.48783 1.81719C8.13326 1.49468 7.49496 1.55191 6.98389 2.04156C6.66776 2.34437 6.47432 2.75457 6.18756 3.72966C5.76526 5.16586 5.69967 5.23145 4.26347 5.65375C3.28838 5.94051 2.87818 6.13395 2.57537 6.45008C2.08429 6.96264 2.0259 7.61141 2.351 8.94287C2.46315 9.40215 2.55491 9.93965 2.55491 10.1374C2.55491 10.572 2.42428 10.7723 1.50961 11.7401C0.739916 12.5544 0.549805 12.9046 0.549805 13.508C0.549805 14.1114 0.739916 14.4615 1.50961 15.2759C2.41789 16.2369 2.55512 16.4458 2.5541 16.8657C2.55362 17.0564 2.46227 17.5947 2.351 18.062C2.02849 19.4165 2.08572 20.0548 2.57537 20.5659C2.87818 20.882 3.28838 21.0755 4.26347 21.3622C5.69967 21.7845 5.76526 21.8501 6.18756 23.2863C6.47432 24.2614 6.66776 24.6716 6.98389 24.9744C7.49496 25.4641 8.13326 25.5213 9.48783 25.1988C9.95512 25.0875 10.4934 24.9962 10.6841 24.9957C11.104 24.9947 11.3129 25.1319 12.2739 26.0402C13.0883 26.8099 13.4384 27 14.0418 27C14.6548 27 14.9873 26.8131 15.9045 25.9531C16.3193 25.5642 16.7504 25.1896 16.8626 25.1207C17.1548 24.9411 17.6146 24.9619 18.5846 25.1988C19.9232 25.5257 20.5861 25.4665 21.0997 24.9744C21.4158 24.6716 21.6093 24.2614 21.8961 23.2863C22.3184 21.8501 22.3839 21.7845 23.8201 21.3622C24.7952 21.0755 25.2054 20.882 25.5082 20.5659C25.9993 20.0534 26.0577 19.4046 25.7326 18.0731C25.4958 17.1033 25.4741 16.6226 25.6541 16.3287C25.7228 16.2166 26.0941 15.79 26.4793 15.3808C27.5781 14.2134 27.7861 13.5875 27.3596 12.7317C27.2685 12.5489 26.8758 12.06 26.4869 11.6453C26.098 11.2305 25.7234 10.7994 25.6545 10.6873C25.4741 10.3936 25.4956 9.91355 25.7326 8.94287C26.0577 7.61141 25.9993 6.96264 25.5082 6.45008C25.205 6.13348 24.7961 5.94099 23.8211 5.65565C22.3884 5.23641 22.3186 5.16661 21.8961 3.72966C21.6093 2.75457 21.4158 2.34437 21.0997 2.04156C20.5872 1.55048 19.9384 1.49209 18.6069 1.81719C17.6363 2.0542 17.1562 2.07575 16.8626 1.89529C16.7504 1.82637 16.3193 1.45179 15.9045 1.06293C15.4898 0.67401 15.0005 0.280873 14.817 0.189317C14.4398 0.000905064 13.8496 -0.057413 13.532 0.0624177ZM14.3893 1.03948C14.5019 1.09773 14.9623 1.48292 15.4125 1.89549C15.9058 2.34763 16.3698 2.71032 16.5807 2.80847C17.0742 3.03827 17.6616 3.02733 18.7206 2.76877C19.7244 2.52367 20.2051 2.50498 20.4174 2.70277C20.637 2.90729 20.7251 3.11453 21.0386 4.16215C21.5343 5.81925 21.7741 6.04566 23.5948 6.57603C25.1094 7.01722 25.1874 7.16533 24.781 8.82923C24.5225 9.8882 24.5115 10.4756 24.7413 10.9691C24.8395 11.18 25.2022 11.644 25.6543 12.1373C26.0669 12.5875 26.4521 13.0479 26.5103 13.1605C26.74 13.6046 26.6422 13.8007 25.6543 14.8787C25.2022 15.372 24.8395 15.836 24.7413 16.0469C24.5115 16.5404 24.5225 17.1278 24.781 18.1868C25.0261 19.1905 25.0448 19.6713 24.847 19.8836C24.6425 20.1032 24.4353 20.1913 23.3877 20.5048C21.7878 20.9834 21.5137 21.2574 21.0377 22.8538C20.7255 23.9008 20.6372 24.1084 20.4174 24.3132C20.2051 24.511 19.7244 24.4923 18.7206 24.2472C17.6616 23.9887 17.0742 23.9777 16.5807 24.2075C16.3698 24.3057 15.9058 24.6684 15.4125 25.1205C14.9623 25.5331 14.5019 25.9183 14.3893 25.9765C13.9452 26.2062 13.7491 26.1084 12.6711 25.1205C12.1778 24.6684 11.7138 24.3057 11.5029 24.2075C11.0094 23.9777 10.422 23.9887 9.36304 24.2472C8.35926 24.4923 7.87851 24.511 7.66617 24.3132C7.44819 24.1101 7.3548 23.8956 7.08075 22.9681C6.77624 21.9377 6.60734 21.5706 6.29325 21.2566C5.97916 20.9425 5.61206 20.7736 4.5817 20.4691C3.65419 20.195 3.43968 20.1016 3.23658 19.8836C3.03879 19.6713 3.05748 19.1905 3.30258 18.1868C3.56114 17.1278 3.57208 16.5404 3.34228 16.0469C3.24413 15.836 2.88144 15.372 2.42931 14.8787C2.01673 14.4285 1.63154 13.9681 1.57329 13.8555C1.34362 13.4114 1.44136 13.2153 2.42931 12.1373C2.88144 11.644 3.24413 11.18 3.34228 10.9691C3.57208 10.4756 3.56114 9.8882 3.30258 8.82923C3.05748 7.82545 3.03879 7.3447 3.23658 7.13236C3.4411 6.91282 3.64834 6.82466 4.69596 6.51119C6.35307 6.01548 6.57947 5.77569 7.10984 3.95498C7.55103 2.44041 7.69914 2.36245 9.36304 2.76877C10.4247 3.02801 11.0091 3.03841 11.5063 2.8069C11.7198 2.70746 12.164 2.36163 12.6295 1.93227C13.7308 0.916458 13.9431 0.808794 14.3893 1.03948ZM13.2602 4.98662C10.3513 5.30132 7.81075 7.00397 6.49485 9.52069C5.79585 10.8575 5.5171 11.9973 5.51955 13.508C5.52349 15.8852 6.33852 17.8481 8.02016 19.5296C9.71444 21.2239 11.679 22.0342 14.0758 22.0271C16.4277 22.0202 18.3924 21.2007 20.0635 19.5296C21.7577 17.8354 22.568 15.8708 22.5609 13.474C22.554 11.1221 21.7345 9.15739 20.0635 7.48635C18.8248 6.2476 17.4554 5.49959 15.775 5.14363C15.1713 5.01578 13.7888 4.92946 13.2602 4.98662ZM15.6774 6.09467C18.5653 6.73515 20.7963 8.97462 21.4672 11.9067C21.6548 12.7267 21.6651 14.1727 21.4893 15.0033C21.1707 16.5084 20.5115 17.7327 19.4276 18.8325C16.4599 21.8439 11.6714 21.8603 8.68042 18.8694C5.21382 15.4027 5.88849 9.62271 10.0605 7.04645C11.7176 6.0231 13.7793 5.6738 15.6774 6.09467ZM17.4528 9.71243C17.2915 9.74084 17.0621 9.82512 16.943 9.89968C16.824 9.97425 15.9321 10.8314 14.961 11.8045L13.1954 13.5737L12.1743 12.5648C11.3772 11.7773 11.0821 11.5293 10.8298 11.435C10.1605 11.1849 9.375 11.4719 8.97983 12.1111C8.80548 12.3932 8.77415 12.5118 8.77415 12.891C8.77415 13.2542 8.80827 13.3954 8.95604 13.6439C9.22438 14.0951 12.2457 17.0772 12.5729 17.2137C12.9103 17.3545 13.4722 17.355 13.8115 17.2148C14.1458 17.0766 18.943 12.3155 19.1557 11.9107C19.2547 11.7224 19.2987 11.5136 19.2988 11.231C19.2993 10.2352 18.4504 9.53679 17.4528 9.71243ZM18.1897 10.825C18.2964 10.9387 18.3511 11.0778 18.3511 11.2359C18.3511 11.4596 18.1939 11.6322 15.9079 13.9189C13.5189 16.3086 13.4588 16.3627 13.1959 16.3627C12.9358 16.3627 12.8748 16.3107 11.3481 14.7891C10.4388 13.8828 9.75115 13.1434 9.72661 13.0455C9.63628 12.6856 9.97946 12.2845 10.3777 12.2845C10.4795 12.2845 10.9189 12.6716 11.7667 13.508C12.7819 14.5097 13.0414 14.7315 13.1978 14.7315C13.3575 14.7315 13.7246 14.3969 15.4352 12.6924C17.4387 10.696 17.4873 10.6533 17.7549 10.6533C17.9594 10.6533 18.0689 10.6966 18.1897 10.825Z" fill="#BE1704"/>
</svg>
