<svg width="28" height="27" viewBox="0 0 28 27" fill="none" xmlns="http://www.w3.org/2000/svg">
<path fill-rule="evenodd" clip-rule="evenodd" d="M0 13.5C0 6.04416 6.26801 0 14 0C21.732 0 28 6.04416 28 13.5C28 20.9558 21.732 27 14 27C6.26801 27 0 20.9558 0 13.5ZM13.9905 13.7167C16.0549 13.7167 17.7331 12.1545 17.7331 10.2339C17.7331 8.31269 16.0549 6.75 13.9905 6.75C11.9265 6.75 10.2479 8.31269 10.2479 10.2339C10.2479 12.1545 11.9265 13.7167 13.9905 13.7167ZM17.6876 15.7224C17.0109 16.1181 16.2761 16.3986 15.5143 16.5602L17.6065 18.5078C18.0351 18.906 18.0351 19.5526 17.6065 19.9511C17.1784 20.3496 16.4844 20.3496 16.0567 19.9511L13.9996 18.0372L11.9443 19.9511C11.73 20.1502 11.4492 20.2498 11.1684 20.2498C10.888 20.2498 10.6077 20.1502 10.3934 19.9511C9.96521 19.5526 9.96521 18.9064 10.3929 18.5078L12.4854 16.5602C11.7235 16.3986 10.9888 16.1176 10.3121 15.7224C9.79994 15.4219 9.6461 14.7922 9.96879 14.315C10.2906 13.8373 10.9673 13.6935 11.4803 13.994C13.0125 14.8912 14.9863 14.8914 16.5193 13.994C17.0324 13.6935 17.7089 13.8373 18.0313 14.315C18.354 14.7918 18.1997 15.4219 17.6876 15.7224Z" fill="#2F2F2F"/>
<path d="M13.9901 8.79102C14.8446 8.79102 15.5397 9.43781 15.5397 10.2332C15.5397 11.028 14.8446 11.6752 13.9901 11.6752C13.1362 11.6752 12.4404 11.028 12.4404 10.2332C12.4404 9.43781 13.1362 8.79102 13.9901 8.79102V8.79102Z" fill="#2F2F2F"/>
</svg>
