<svg width="58" height="52" viewBox="0 0 58 52" fill="none" xmlns="http://www.w3.org/2000/svg">
<g clip-path="url(#clip0_730_441)">
<path d="M34.7811 44.6576L19.3158 48.0526C18.8664 48.1513 18.4222 47.8689 18.3249 47.4257L12.1647 19.3642C12.1212 19.166 12.1528 18.9598 12.2538 18.7824L18.4194 8.00232C18.5364 7.79767 18.7347 7.65095 18.9675 7.59986L38.5023 3.3115C38.9501 3.21321 39.3956 3.49367 39.4932 3.93842L44.6213 27.2986C44.7186 27.7417 44.4319 28.1846 43.9841 28.2829C43.5364 28.3812 43.0905 28.0991 42.9932 27.656L38.0418 5.1009L19.6854 9.13058L13.8599 19.3142L19.7757 46.2627L34.4268 43.0464C34.8746 42.9481 35.3204 43.2302 35.4177 43.6733C35.515 44.1164 35.2283 44.5593 34.7805 44.6576L34.7811 44.6576Z" fill="#BE1704"/>
<path d="M21.4434 18.878L14.1179 20.4861C13.6685 20.5848 13.2246 20.3039 13.127 19.8592C13.0293 19.4144 13.3148 18.9735 13.7642 18.8748L20.2757 17.4454L18.5073 9.38987C18.4097 8.94512 18.6951 8.5042 19.1445 8.40555C19.5939 8.30689 20.0378 8.58772 20.1354 9.03247L22.0805 17.8931C22.1781 18.3378 21.8927 18.7788 21.4433 18.8774L21.4434 18.878Z" fill="#BE1704"/>
<path d="M46.1769 40.0754C45.9701 40.1208 45.7429 40.0879 45.5489 39.9668L38.5423 35.5353C38.1578 35.292 38.0454 34.7799 38.2923 34.3963C38.5411 34.014 39.0587 33.9004 39.4431 34.1437L46.4497 38.5752C46.8362 38.8197 46.9483 39.3302 46.6998 39.7141C46.5746 39.9053 46.3851 40.0297 46.1766 40.0755L46.1769 40.0754Z" fill="#BE1704"/>
<path d="M40.4205 41.3391C40.2104 41.3852 39.9865 41.3515 39.7925 41.2304C39.4077 40.9856 39.2956 40.475 39.5425 40.0915L44.0486 33.1326C44.2975 32.7504 44.8134 32.6371 45.1995 32.88C45.586 33.1245 45.6984 33.6367 45.4495 34.019L40.9434 40.9778C40.8199 41.1686 40.6271 41.2937 40.4203 41.3391L40.4205 41.3391Z" fill="#BE1704"/>
</g>
<defs>
<clipPath id="clip0_730_441">
<rect width="50" height="41" fill="white" transform="translate(0.24707 11.71) rotate(-12.3814)"/>
</clipPath>
</defs>
</svg>
