<svg width="61" height="48" viewBox="0 0 61 48" fill="none" xmlns="http://www.w3.org/2000/svg">
<path d="M40.6787 29.3945C40.5401 29.2555 40.1408 28.9505 39.6676 28.7008C40.8046 27.3741 40.7467 25.3647 39.494 24.1078C38.9225 23.5343 38.1954 23.2101 37.4479 23.1364C38.0222 21.8866 37.7965 20.3556 36.7719 19.3275C36.1762 18.7291 35.381 18.2973 34.5354 18.1562L34.7809 17.9099C38.2652 19.5652 42.5591 18.9592 45.4376 16.0713C49.0972 12.3998 49.0965 6.42558 45.4376 2.75389C41.7786 -0.917615 35.8249 -0.918314 32.1657 2.75389C29.3101 5.61936 28.694 9.88347 30.2956 13.365L21.8213 21.9063L21.9183 17.8754C21.9183 16.8169 21.5118 15.8246 20.7725 15.0834C20.0332 14.3411 19.0446 13.933 17.9893 13.933C15.809 13.933 14.0345 15.7085 14.0359 17.8508C14.0336 17.8881 13.8297 21.6563 13.8297 26.7393L13.8286 27.5673C13.8154 32.4004 13.8038 36.5746 17.9547 40.7386C22.2526 45.0513 25.8472 44.3299 29.1604 43.2208C32.3479 42.1548 40.4977 34.0018 40.8427 33.6556C41.931 32.5639 41.854 30.5729 40.679 29.3938L40.6787 29.3945ZM33.1858 3.77758C36.2821 0.670679 41.3197 0.670679 44.4159 3.77758C47.5118 6.88412 47.5122 11.9394 44.4159 15.0462C42.11 17.36 38.7268 17.9482 35.8711 16.8145L37.0077 15.674C39.2043 16.3032 41.6684 15.754 43.3947 14.0218C45.9279 11.4799 45.9279 7.3438 43.3947 4.80196C40.8614 2.26011 36.7398 2.26002 34.2063 4.80196C32.507 6.50707 31.9532 8.92947 32.5349 11.1067L31.3915 12.2595C30.3101 9.41285 30.9041 6.06724 33.1858 3.77766V3.77758ZM41.0174 7.19699C39.684 5.85869 37.6424 5.96458 36.1629 7.44975L33.7713 9.86052C33.645 8.41738 34.1291 6.92921 35.2279 5.82657C37.1985 3.84994 40.4037 3.84994 42.3746 5.82657C44.3452 7.80389 44.3452 11.0204 42.3746 12.9978C41.2455 14.1308 39.7103 14.6114 38.234 14.4454L40.6852 11.9858C42.2116 10.4529 42.3447 8.52878 41.0174 7.19695L41.0174 7.19699ZM30.135 20.5214C29.8535 20.8045 29.8535 21.2633 30.135 21.5458C30.4172 21.8289 30.8744 21.8289 31.1559 21.5458L32.5175 20.1802C33.6415 19.0524 35.0664 19.6644 35.7507 20.351C36.5016 21.1045 36.5016 22.3297 35.7507 23.0828L33.8791 24.9608C33.5969 25.244 33.5976 25.7027 33.8791 25.9859C34.1613 26.2684 34.6184 26.2684 34.9 25.9859L35.7506 25.132C36.5016 24.3788 37.7226 24.3788 38.4731 25.132C39.2241 25.8855 39.2241 27.1107 38.4731 27.8638L36.2609 30.0837C35.9787 30.3662 35.9787 30.8256 36.2609 31.1081C36.543 31.3906 36.9995 31.3906 37.2817 31.1081L38.5817 29.8036C38.8854 29.9088 39.4178 30.1783 39.6578 30.4192C40.2674 31.0302 40.3474 32.1055 39.8218 32.6328C37.5363 34.9264 31.0823 41.0522 28.7042 41.8483C25.584 42.8922 22.6988 43.452 18.9755 39.7162C15.2491 35.977 15.2591 32.2683 15.272 27.5723L15.273 26.7402C15.273 21.6997 15.4752 17.969 15.4779 17.892C15.4779 17.2212 15.7393 16.591 16.2132 16.1175C16.688 15.6434 17.3185 15.3825 17.9891 15.3832C18.6586 15.3828 19.2846 15.6404 19.7513 16.1083C20.218 16.5766 20.4747 17.2041 20.4747 17.8586L20.3341 23.6881C20.3266 23.9853 20.5026 24.2562 20.7719 24.3716C21.0442 24.4881 21.3591 24.4266 21.5674 24.2169L37.1738 8.48523C37.8805 7.77613 39.0456 7.27949 39.9906 8.22803C41.1027 9.34361 40.0223 10.6009 39.6631 10.962L30.135 20.5214Z" fill="#BE1704"/>
</svg>
