<svg width="96" height="44" viewBox="0 0 96 44" fill="none" xmlns="http://www.w3.org/2000/svg">
<mask id="path-1-inside-1_509_464" fill="white">
<path fill-rule="evenodd" clip-rule="evenodd" d="M47.2335 0.150478C46.2178 0.427885 45.2406 0.972269 41.6776 3.24483L38.1196 5.5143L37.3452 5.41377C35.8843 5.22405 34.9148 5.29295 34.0869 5.64532C33.1756 6.03312 31.6719 6.8619 30.0434 7.87375C27.1438 9.67564 12.5372 19.262 12.4466 19.4227C12.1623 19.9269 12.7977 20.528 13.3281 20.2567C13.4669 20.1857 17.4016 17.6397 22.0719 14.5992C31.1496 8.68889 32.3723 7.92419 34.0047 7.13587C35.1572 6.57922 35.7106 6.51182 37.1819 6.74876C37.6844 6.82969 38.0481 6.82831 38.3616 6.74463C38.6109 6.67803 40.4784 5.566 42.5114 4.27342C46.7953 1.55001 47.3141 1.30802 48.7014 1.38609C49.8712 1.452 51.0693 1.84713 53.1324 2.8474C55.4273 3.9599 55.4826 3.99268 69.7738 12.6756C76.9793 17.0536 82.9948 20.6899 83.1415 20.7561C83.6563 20.9889 84.2281 20.322 83.9072 19.8632C83.8112 19.7261 58.4674 4.27571 56.3263 3.04904C53.5907 1.4818 51.3374 0.507784 49.6447 0.16091C48.6136 -0.0504699 47.9787 -0.0532214 47.2335 0.150478ZM57.6549 31.8596C55.3814 32.1206 53.7061 33.6221 53.1004 35.9416C52.8617 36.8554 52.8594 38.911 53.096 39.8203C53.8474 42.7084 55.7756 44.1192 58.7688 43.9707C60.0238 43.9085 61.0102 43.5145 61.8624 42.735C62.8018 41.8759 63.4966 40.0983 63.0617 39.6667C62.8796 39.486 62.2199 39.4898 62.0754 39.6724C62.013 39.7513 61.8731 40.0516 61.7645 40.3399C61.4637 41.1387 60.7959 41.9266 60.081 42.3262C59.4939 42.6544 59.3621 42.6815 58.3481 42.6809C57.3798 42.6805 57.1809 42.644 56.6587 42.3712C56.3331 42.2011 55.8539 41.822 55.5938 41.5288C54.055 39.7942 54.0758 35.9991 55.6335 34.2799C56.3674 33.47 57.3237 33.0607 58.4636 33.0688C59.8548 33.0785 60.6288 33.5565 61.5418 34.9697C62.0991 35.8323 62.4698 36.0337 62.8583 35.6849C63.5838 35.0334 62.35 33.0557 60.7497 32.3047C60.1179 32.0083 59.8209 31.9363 58.6947 31.8067C58.5358 31.7883 58.0679 31.8122 57.6549 31.8596ZM73.7712 31.8618C70.6845 32.1549 68.785 34.7578 69.0141 38.3805C69.2421 41.9845 71.3043 44.0057 74.7456 43.998C76.3679 43.9945 77.7016 43.4692 78.6707 42.4526C79.6634 41.4109 80.148 40.1705 80.2613 38.3805C80.4189 35.8894 79.5006 33.7044 77.8518 32.647C76.7951 31.9693 75.4221 31.7051 73.7712 31.8618ZM0.118472 32.1429C-0.0605977 32.6103 -0.0270939 43.2976 0.154634 43.6559C0.344679 44.0307 1.0211 44.114 1.30923 43.7981C1.47733 43.6138 1.50748 43.2256 1.5344 40.8981L1.56548 38.2109L4.71365 38.1804L7.86182 38.1499V40.7385C7.86182 43.7452 7.92501 43.9937 8.6912 43.998C9.38334 44.0019 9.3637 44.1781 9.3637 37.9659C9.3637 34.2741 9.32187 32.2149 9.24412 32.0705C9.08954 31.784 8.30937 31.7622 8.07809 32.038C7.95967 32.1794 7.90502 32.8237 7.86182 34.5885L7.80405 36.9499H4.68476H1.56548L1.50771 34.5427C1.47594 33.2187 1.40789 32.071 1.35648 31.9921C1.30473 31.9127 1.033 31.8488 0.747067 31.8488C0.299623 31.8488 0.21621 31.8878 0.118472 32.1429ZM30.9648 32.1429C30.8973 32.319 30.8521 34.6189 30.8521 37.8744C30.8521 43.1592 30.8586 43.3184 31.0832 43.5412C31.304 43.7603 31.4682 43.7705 34.758 43.7705C38.5364 43.7705 38.6448 43.7525 38.5736 43.137C38.5069 42.5599 38.2515 42.5131 35.1556 42.5113L32.354 42.5095V37.4009C32.354 34.0986 32.3117 32.2139 32.2344 32.0705C32.1434 31.9019 31.9907 31.8488 31.5961 31.8488C31.1457 31.8488 31.0626 31.8875 30.9648 32.1429ZM44.8352 32.0705C44.7574 32.2147 44.7156 34.2509 44.7156 37.8913C44.7156 44.1383 44.6986 43.9997 45.4666 43.9997C46.2338 43.9997 46.2175 44.1309 46.2175 37.9616C46.2175 34.01 46.1793 32.3494 46.0834 32.1408C45.97 31.8938 45.8729 31.8488 45.4521 31.8488C45.0787 31.8488 44.925 31.9041 44.8352 32.0705ZM86.815 32.0901C86.6049 32.3206 86.5949 32.5866 86.5949 38.0029C86.5949 43.4847 86.6025 43.6798 86.8192 43.8371C87.1302 44.0627 87.6196 44.0403 87.8479 43.7901C88.0191 43.6024 88.0391 43.1017 88.0391 39.0061V34.4317L91.1594 39.0724C92.8756 41.6248 94.3672 43.7777 94.474 43.8565C94.7617 44.0685 95.3693 44.0304 95.68 43.7807L95.9528 43.5616L95.986 37.9782C96.0234 31.6617 96.0472 31.8488 95.206 31.8488C94.9571 31.8488 94.7113 31.9134 94.6599 31.9921C94.6085 32.071 94.5405 34.2188 94.5087 36.7654L94.4509 41.3952L91.4051 36.8589C89.7299 34.364 88.2593 32.216 88.1369 32.0858C87.8318 31.7608 87.1132 31.7632 86.815 32.0901ZM16.9477 32.0714C16.7028 32.1204 16.4566 32.2323 16.4007 32.32C16.3448 32.4076 16.2982 34.9395 16.2972 37.9464L16.2954 43.4136L16.5523 43.592C16.7719 43.7447 17.3533 43.7705 20.5736 43.7705C24.6985 43.7705 24.7819 43.7578 24.7101 43.137C24.6424 42.5513 24.4129 42.5131 20.9455 42.5113L17.7973 42.5095V40.3889V38.2682H20.7351C23.9512 38.2682 24.089 38.24 24.0133 37.5973C23.9503 37.063 23.6474 37.0108 20.5989 37.009L17.7973 37.0072V35.1158V33.2244H20.9242C22.8587 33.2244 24.1363 33.1791 24.2746 33.1058C24.5535 32.9577 24.5731 32.3974 24.3072 32.1781C24.1563 32.0538 23.412 32.0168 20.7546 32.0015C18.9057 31.9909 17.1926 32.0223 16.9477 32.0714ZM76.2013 33.3834C77.818 34.1177 78.6812 35.6912 78.6812 37.9032C78.6812 39.6307 78.2453 40.7639 77.2121 41.7229C75.3943 43.4101 72.5305 42.9365 71.2245 40.7328C70.4149 39.3666 70.3897 36.6944 71.172 35.1727C72.1191 33.3307 74.3432 32.5394 76.2013 33.3834Z"/>
</mask>
<path fill-rule="evenodd" clip-rule="evenodd" d="M47.2335 0.150478C46.2178 0.427885 45.2406 0.972269 41.6776 3.24483L38.1196 5.5143L37.3452 5.41377C35.8843 5.22405 34.9148 5.29295 34.0869 5.64532C33.1756 6.03312 31.6719 6.8619 30.0434 7.87375C27.1438 9.67564 12.5372 19.262 12.4466 19.4227C12.1623 19.9269 12.7977 20.528 13.3281 20.2567C13.4669 20.1857 17.4016 17.6397 22.0719 14.5992C31.1496 8.68889 32.3723 7.92419 34.0047 7.13587C35.1572 6.57922 35.7106 6.51182 37.1819 6.74876C37.6844 6.82969 38.0481 6.82831 38.3616 6.74463C38.6109 6.67803 40.4784 5.566 42.5114 4.27342C46.7953 1.55001 47.3141 1.30802 48.7014 1.38609C49.8712 1.452 51.0693 1.84713 53.1324 2.8474C55.4273 3.9599 55.4826 3.99268 69.7738 12.6756C76.9793 17.0536 82.9948 20.6899 83.1415 20.7561C83.6563 20.9889 84.2281 20.322 83.9072 19.8632C83.8112 19.7261 58.4674 4.27571 56.3263 3.04904C53.5907 1.4818 51.3374 0.507784 49.6447 0.16091C48.6136 -0.0504699 47.9787 -0.0532214 47.2335 0.150478ZM57.6549 31.8596C55.3814 32.1206 53.7061 33.6221 53.1004 35.9416C52.8617 36.8554 52.8594 38.911 53.096 39.8203C53.8474 42.7084 55.7756 44.1192 58.7688 43.9707C60.0238 43.9085 61.0102 43.5145 61.8624 42.735C62.8018 41.8759 63.4966 40.0983 63.0617 39.6667C62.8796 39.486 62.2199 39.4898 62.0754 39.6724C62.013 39.7513 61.8731 40.0516 61.7645 40.3399C61.4637 41.1387 60.7959 41.9266 60.081 42.3262C59.4939 42.6544 59.3621 42.6815 58.3481 42.6809C57.3798 42.6805 57.1809 42.644 56.6587 42.3712C56.3331 42.2011 55.8539 41.822 55.5938 41.5288C54.055 39.7942 54.0758 35.9991 55.6335 34.2799C56.3674 33.47 57.3237 33.0607 58.4636 33.0688C59.8548 33.0785 60.6288 33.5565 61.5418 34.9697C62.0991 35.8323 62.4698 36.0337 62.8583 35.6849C63.5838 35.0334 62.35 33.0557 60.7497 32.3047C60.1179 32.0083 59.8209 31.9363 58.6947 31.8067C58.5358 31.7883 58.0679 31.8122 57.6549 31.8596ZM73.7712 31.8618C70.6845 32.1549 68.785 34.7578 69.0141 38.3805C69.2421 41.9845 71.3043 44.0057 74.7456 43.998C76.3679 43.9945 77.7016 43.4692 78.6707 42.4526C79.6634 41.4109 80.148 40.1705 80.2613 38.3805C80.4189 35.8894 79.5006 33.7044 77.8518 32.647C76.7951 31.9693 75.4221 31.7051 73.7712 31.8618ZM0.118472 32.1429C-0.0605977 32.6103 -0.0270939 43.2976 0.154634 43.6559C0.344679 44.0307 1.0211 44.114 1.30923 43.7981C1.47733 43.6138 1.50748 43.2256 1.5344 40.8981L1.56548 38.2109L4.71365 38.1804L7.86182 38.1499V40.7385C7.86182 43.7452 7.92501 43.9937 8.6912 43.998C9.38334 44.0019 9.3637 44.1781 9.3637 37.9659C9.3637 34.2741 9.32187 32.2149 9.24412 32.0705C9.08954 31.784 8.30937 31.7622 8.07809 32.038C7.95967 32.1794 7.90502 32.8237 7.86182 34.5885L7.80405 36.9499H4.68476H1.56548L1.50771 34.5427C1.47594 33.2187 1.40789 32.071 1.35648 31.9921C1.30473 31.9127 1.033 31.8488 0.747067 31.8488C0.299623 31.8488 0.21621 31.8878 0.118472 32.1429ZM30.9648 32.1429C30.8973 32.319 30.8521 34.6189 30.8521 37.8744C30.8521 43.1592 30.8586 43.3184 31.0832 43.5412C31.304 43.7603 31.4682 43.7705 34.758 43.7705C38.5364 43.7705 38.6448 43.7525 38.5736 43.137C38.5069 42.5599 38.2515 42.5131 35.1556 42.5113L32.354 42.5095V37.4009C32.354 34.0986 32.3117 32.2139 32.2344 32.0705C32.1434 31.9019 31.9907 31.8488 31.5961 31.8488C31.1457 31.8488 31.0626 31.8875 30.9648 32.1429ZM44.8352 32.0705C44.7574 32.2147 44.7156 34.2509 44.7156 37.8913C44.7156 44.1383 44.6986 43.9997 45.4666 43.9997C46.2338 43.9997 46.2175 44.1309 46.2175 37.9616C46.2175 34.01 46.1793 32.3494 46.0834 32.1408C45.97 31.8938 45.8729 31.8488 45.4521 31.8488C45.0787 31.8488 44.925 31.9041 44.8352 32.0705ZM86.815 32.0901C86.6049 32.3206 86.5949 32.5866 86.5949 38.0029C86.5949 43.4847 86.6025 43.6798 86.8192 43.8371C87.1302 44.0627 87.6196 44.0403 87.8479 43.7901C88.0191 43.6024 88.0391 43.1017 88.0391 39.0061V34.4317L91.1594 39.0724C92.8756 41.6248 94.3672 43.7777 94.474 43.8565C94.7617 44.0685 95.3693 44.0304 95.68 43.7807L95.9528 43.5616L95.986 37.9782C96.0234 31.6617 96.0472 31.8488 95.206 31.8488C94.9571 31.8488 94.7113 31.9134 94.6599 31.9921C94.6085 32.071 94.5405 34.2188 94.5087 36.7654L94.4509 41.3952L91.4051 36.8589C89.7299 34.364 88.2593 32.216 88.1369 32.0858C87.8318 31.7608 87.1132 31.7632 86.815 32.0901ZM16.9477 32.0714C16.7028 32.1204 16.4566 32.2323 16.4007 32.32C16.3448 32.4076 16.2982 34.9395 16.2972 37.9464L16.2954 43.4136L16.5523 43.592C16.7719 43.7447 17.3533 43.7705 20.5736 43.7705C24.6985 43.7705 24.7819 43.7578 24.7101 43.137C24.6424 42.5513 24.4129 42.5131 20.9455 42.5113L17.7973 42.5095V40.3889V38.2682H20.7351C23.9512 38.2682 24.089 38.24 24.0133 37.5973C23.9503 37.063 23.6474 37.0108 20.5989 37.009L17.7973 37.0072V35.1158V33.2244H20.9242C22.8587 33.2244 24.1363 33.1791 24.2746 33.1058C24.5535 32.9577 24.5731 32.3974 24.3072 32.1781C24.1563 32.0538 23.412 32.0168 20.7546 32.0015C18.9057 31.9909 17.1926 32.0223 16.9477 32.0714ZM76.2013 33.3834C77.818 34.1177 78.6812 35.6912 78.6812 37.9032C78.6812 39.6307 78.2453 40.7639 77.2121 41.7229C75.3943 43.4101 72.5305 42.9365 71.2245 40.7328C70.4149 39.3666 70.3897 36.6944 71.172 35.1727C72.1191 33.3307 74.3432 32.5394 76.2013 33.3834Z" fill="white" stroke="#FFF8F8" stroke-width="200" mask="url(#path-1-inside-1_509_464)"/>
</svg>
