<svg width="107" height="63" viewBox="0 0 107 63" fill="none" xmlns="http://www.w3.org/2000/svg">
<mask id="path-1-inside-1_897_422" fill="white">
<path fill-rule="evenodd" clip-rule="evenodd" d="M51.6616 0.164158C50.5508 0.466784 49.4819 1.06066 45.5848 3.53982L41.6933 6.0156L40.8463 5.90593C39.2485 5.69897 38.1881 5.77412 37.2826 6.15853C36.2859 6.58158 34.6412 7.48571 32.86 8.58955C29.6885 10.5552 13.7125 21.0131 13.6135 21.1884C13.3025 21.7384 13.9975 22.3942 14.5776 22.0982C14.7295 22.0208 19.033 19.2434 24.1411 15.9264C34.0699 9.47879 35.4072 8.64457 37.1926 7.78458C38.4532 7.17733 39.0585 7.1038 40.6677 7.36228C41.2173 7.45057 41.6151 7.44907 41.958 7.35778C42.2307 7.28513 44.2732 6.072 46.4969 4.66191C51.1823 1.69092 51.7498 1.42693 53.2671 1.51209C54.5467 1.584 55.857 2.01505 58.1136 3.10626C60.6236 4.31989 60.6841 4.35566 76.3151 13.828C84.1962 18.604 90.7756 22.5707 90.9361 22.643C91.4991 22.897 92.1245 22.1695 91.7735 21.669C91.6685 21.5194 63.9487 4.66441 61.6069 3.32623C58.6148 1.61651 56.1503 0.553946 54.2989 0.175538C53.1711 -0.0550581 52.4768 -0.0580597 51.6616 0.164158ZM63.06 34.756C60.5734 35.0407 58.7411 36.6786 58.0786 39.2091C57.8175 40.2059 57.815 42.4484 58.0737 43.4403C58.8956 46.591 61.0045 48.13 64.2784 47.9681C65.6511 47.9002 66.7299 47.4704 67.6619 46.62C68.6895 45.6828 69.4494 43.7436 68.9737 43.2728C68.7745 43.0757 68.053 43.0798 67.895 43.279C67.8267 43.365 67.6737 43.6927 67.5549 44.0072C67.2259 44.8786 66.4955 45.7382 65.7136 46.1741C65.0714 46.5321 64.9273 46.5616 63.8182 46.561C62.7592 46.5605 62.5416 46.5207 61.9704 46.2231C61.6144 46.0375 61.0902 45.624 60.8058 45.3041C59.1227 43.4118 59.1454 39.2717 60.8491 37.3963C61.6519 36.5127 62.6978 36.0662 63.9446 36.075C65.4662 36.0856 66.3128 36.6071 67.3113 38.1487C67.9209 39.0898 68.3263 39.3095 68.7513 38.9289C69.5448 38.2183 68.1953 36.0607 66.445 35.2415C65.7539 34.9181 65.4292 34.8396 64.1973 34.6982C64.0235 34.6782 63.5118 34.7042 63.06 34.756ZM80.6873 34.7583C77.3112 35.0781 75.2336 37.9176 75.4841 41.8697C75.7336 45.8013 77.9891 48.0062 81.753 47.9978C83.5273 47.994 84.9862 47.421 86.0461 46.3119C87.1319 45.1755 87.6618 43.8224 87.7858 41.8697C87.9582 39.152 86.9538 36.7684 85.1504 35.6149C83.9946 34.8756 82.493 34.5874 80.6873 34.7583ZM0.129579 35.065C-0.0662788 35.5749 -0.0296339 47.2338 0.16913 47.6246C0.376993 48.0335 1.11683 48.1244 1.43197 47.7798C1.61583 47.5787 1.64881 47.1552 1.67825 44.6161L1.71224 41.6846L5.15555 41.6513L8.59886 41.6181V44.442C8.59886 47.722 8.66798 47.9931 9.506 47.9978C10.263 48.0021 10.2415 48.1943 10.2415 41.4174C10.2415 37.3899 10.1958 35.1435 10.1108 34.986C9.94169 34.6734 9.08838 34.6497 8.83541 34.9505C8.70589 35.1049 8.64612 35.8076 8.59886 37.7329L8.53568 40.309H5.12396H1.71224L1.64906 37.6829C1.61431 36.2386 1.53988 34.9865 1.48365 34.9005C1.42704 34.8139 1.12985 34.7442 0.817105 34.7442C0.327712 34.7442 0.23648 34.7867 0.129579 35.065ZM33.8677 35.065C33.7939 35.257 33.7445 37.7661 33.7445 41.3176C33.7445 47.0827 33.7516 47.2564 33.9972 47.4995C34.2387 47.7385 34.4184 47.7496 38.0166 47.7496C42.1492 47.7496 42.2677 47.73 42.1899 47.0586C42.1169 46.4289 41.8376 46.3779 38.4514 46.3759L35.3872 46.3741V40.801C35.3872 37.1985 35.3409 35.1425 35.2564 34.986C35.1568 34.8021 34.9898 34.7442 34.5583 34.7442C34.0656 34.7442 33.9747 34.7863 33.8677 35.065ZM49.0385 34.986C48.9535 35.1434 48.9077 37.3647 48.9077 41.3359C48.9077 48.1509 48.8891 47.9997 49.7291 47.9997C50.5682 47.9997 50.5504 48.1428 50.5504 41.4126C50.5504 37.1018 50.5086 35.2903 50.4037 35.0627C50.2797 34.7932 50.1735 34.7442 49.7133 34.7442C49.3049 34.7442 49.1367 34.8045 49.0385 34.986ZM94.9539 35.0074C94.7241 35.2588 94.7132 35.549 94.7132 41.4577C94.7132 47.4379 94.7214 47.6507 94.9585 47.8223C95.2987 48.0684 95.8339 48.044 96.0836 47.771C96.2709 47.5663 96.2927 47.0201 96.2927 42.5521V37.5619L99.7056 42.6245C101.583 45.4089 103.214 47.7575 103.331 47.8434C103.646 48.0748 104.31 48.0331 104.65 47.7607L104.948 47.5218L104.985 41.4307C105.026 34.54 105.052 34.7442 104.132 34.7442C103.859 34.7442 103.591 34.8146 103.534 34.9005C103.478 34.9865 103.404 37.3297 103.369 40.1077L103.306 45.1584L99.9744 40.2097C98.1421 37.488 96.5336 35.1447 96.3998 35.0027C96.066 34.6482 95.2801 34.6508 94.9539 35.0074ZM18.5366 34.9869C18.2687 35.0405 17.9994 35.1625 17.9383 35.2582C17.8771 35.3537 17.8262 38.1159 17.825 41.3961L17.8231 47.3603L18.104 47.5549C18.3443 47.7215 18.9802 47.7496 22.5024 47.7496C27.0139 47.7496 27.1052 47.7357 27.0267 47.0586C26.9527 46.4196 26.7016 46.3779 22.9091 46.3759L19.4658 46.3741V44.0606V41.7471H22.679C26.1966 41.7471 26.3474 41.7164 26.2645 41.0152C26.1956 40.4323 25.8643 40.3754 22.5301 40.3734L19.4658 40.3715V38.3082V36.2448H22.8859C25.0017 36.2448 26.3991 36.1954 26.5503 36.1154C26.8554 35.9538 26.8768 35.3426 26.586 35.1034C26.4209 34.9678 25.6069 34.9274 22.7004 34.9108C20.6781 34.8991 18.8045 34.9334 18.5366 34.9869ZM83.3451 36.4183C85.1134 37.2194 86.0576 38.9358 86.0576 41.349C86.0576 43.2335 85.5808 44.4698 84.4508 45.5159C82.4625 47.3565 79.3303 46.8399 77.9018 44.4357C77.0163 42.9454 76.9887 40.0303 77.8444 38.3702C78.8803 36.3607 81.3129 35.4975 83.3451 36.4183Z"/>
</mask>
<path fill-rule="evenodd" clip-rule="evenodd" d="M51.6616 0.164158C50.5508 0.466784 49.4819 1.06066 45.5848 3.53982L41.6933 6.0156L40.8463 5.90593C39.2485 5.69897 38.1881 5.77412 37.2826 6.15853C36.2859 6.58158 34.6412 7.48571 32.86 8.58955C29.6885 10.5552 13.7125 21.0131 13.6135 21.1884C13.3025 21.7384 13.9975 22.3942 14.5776 22.0982C14.7295 22.0208 19.033 19.2434 24.1411 15.9264C34.0699 9.47879 35.4072 8.64457 37.1926 7.78458C38.4532 7.17733 39.0585 7.1038 40.6677 7.36228C41.2173 7.45057 41.6151 7.44907 41.958 7.35778C42.2307 7.28513 44.2732 6.072 46.4969 4.66191C51.1823 1.69092 51.7498 1.42693 53.2671 1.51209C54.5467 1.584 55.857 2.01505 58.1136 3.10626C60.6236 4.31989 60.6841 4.35566 76.3151 13.828C84.1962 18.604 90.7756 22.5707 90.9361 22.643C91.4991 22.897 92.1245 22.1695 91.7735 21.669C91.6685 21.5194 63.9487 4.66441 61.6069 3.32623C58.6148 1.61651 56.1503 0.553946 54.2989 0.175538C53.1711 -0.0550581 52.4768 -0.0580597 51.6616 0.164158ZM63.06 34.756C60.5734 35.0407 58.7411 36.6786 58.0786 39.2091C57.8175 40.2059 57.815 42.4484 58.0737 43.4403C58.8956 46.591 61.0045 48.13 64.2784 47.9681C65.6511 47.9002 66.7299 47.4704 67.6619 46.62C68.6895 45.6828 69.4494 43.7436 68.9737 43.2728C68.7745 43.0757 68.053 43.0798 67.895 43.279C67.8267 43.365 67.6737 43.6927 67.5549 44.0072C67.2259 44.8786 66.4955 45.7382 65.7136 46.1741C65.0714 46.5321 64.9273 46.5616 63.8182 46.561C62.7592 46.5605 62.5416 46.5207 61.9704 46.2231C61.6144 46.0375 61.0902 45.624 60.8058 45.3041C59.1227 43.4118 59.1454 39.2717 60.8491 37.3963C61.6519 36.5127 62.6978 36.0662 63.9446 36.075C65.4662 36.0856 66.3128 36.6071 67.3113 38.1487C67.9209 39.0898 68.3263 39.3095 68.7513 38.9289C69.5448 38.2183 68.1953 36.0607 66.445 35.2415C65.7539 34.9181 65.4292 34.8396 64.1973 34.6982C64.0235 34.6782 63.5118 34.7042 63.06 34.756ZM80.6873 34.7583C77.3112 35.0781 75.2336 37.9176 75.4841 41.8697C75.7336 45.8013 77.9891 48.0062 81.753 47.9978C83.5273 47.994 84.9862 47.421 86.0461 46.3119C87.1319 45.1755 87.6618 43.8224 87.7858 41.8697C87.9582 39.152 86.9538 36.7684 85.1504 35.6149C83.9946 34.8756 82.493 34.5874 80.6873 34.7583ZM0.129579 35.065C-0.0662788 35.5749 -0.0296339 47.2338 0.16913 47.6246C0.376993 48.0335 1.11683 48.1244 1.43197 47.7798C1.61583 47.5787 1.64881 47.1552 1.67825 44.6161L1.71224 41.6846L5.15555 41.6513L8.59886 41.6181V44.442C8.59886 47.722 8.66798 47.9931 9.506 47.9978C10.263 48.0021 10.2415 48.1943 10.2415 41.4174C10.2415 37.3899 10.1958 35.1435 10.1108 34.986C9.94169 34.6734 9.08838 34.6497 8.83541 34.9505C8.70589 35.1049 8.64612 35.8076 8.59886 37.7329L8.53568 40.309H5.12396H1.71224L1.64906 37.6829C1.61431 36.2386 1.53988 34.9865 1.48365 34.9005C1.42704 34.8139 1.12985 34.7442 0.817105 34.7442C0.327712 34.7442 0.23648 34.7867 0.129579 35.065ZM33.8677 35.065C33.7939 35.257 33.7445 37.7661 33.7445 41.3176C33.7445 47.0827 33.7516 47.2564 33.9972 47.4995C34.2387 47.7385 34.4184 47.7496 38.0166 47.7496C42.1492 47.7496 42.2677 47.73 42.1899 47.0586C42.1169 46.4289 41.8376 46.3779 38.4514 46.3759L35.3872 46.3741V40.801C35.3872 37.1985 35.3409 35.1425 35.2564 34.986C35.1568 34.8021 34.9898 34.7442 34.5583 34.7442C34.0656 34.7442 33.9747 34.7863 33.8677 35.065ZM49.0385 34.986C48.9535 35.1434 48.9077 37.3647 48.9077 41.3359C48.9077 48.1509 48.8891 47.9997 49.7291 47.9997C50.5682 47.9997 50.5504 48.1428 50.5504 41.4126C50.5504 37.1018 50.5086 35.2903 50.4037 35.0627C50.2797 34.7932 50.1735 34.7442 49.7133 34.7442C49.3049 34.7442 49.1367 34.8045 49.0385 34.986ZM94.9539 35.0074C94.7241 35.2588 94.7132 35.549 94.7132 41.4577C94.7132 47.4379 94.7214 47.6507 94.9585 47.8223C95.2987 48.0684 95.8339 48.044 96.0836 47.771C96.2709 47.5663 96.2927 47.0201 96.2927 42.5521V37.5619L99.7056 42.6245C101.583 45.4089 103.214 47.7575 103.331 47.8434C103.646 48.0748 104.31 48.0331 104.65 47.7607L104.948 47.5218L104.985 41.4307C105.026 34.54 105.052 34.7442 104.132 34.7442C103.859 34.7442 103.591 34.8146 103.534 34.9005C103.478 34.9865 103.404 37.3297 103.369 40.1077L103.306 45.1584L99.9744 40.2097C98.1421 37.488 96.5336 35.1447 96.3998 35.0027C96.066 34.6482 95.2801 34.6508 94.9539 35.0074ZM18.5366 34.9869C18.2687 35.0405 17.9994 35.1625 17.9383 35.2582C17.8771 35.3537 17.8262 38.1159 17.825 41.3961L17.8231 47.3603L18.104 47.5549C18.3443 47.7215 18.9802 47.7496 22.5024 47.7496C27.0139 47.7496 27.1052 47.7357 27.0267 47.0586C26.9527 46.4196 26.7016 46.3779 22.9091 46.3759L19.4658 46.3741V44.0606V41.7471H22.679C26.1966 41.7471 26.3474 41.7164 26.2645 41.0152C26.1956 40.4323 25.8643 40.3754 22.5301 40.3734L19.4658 40.3715V38.3082V36.2448H22.8859C25.0017 36.2448 26.3991 36.1954 26.5503 36.1154C26.8554 35.9538 26.8768 35.3426 26.586 35.1034C26.4209 34.9678 25.6069 34.9274 22.7004 34.9108C20.6781 34.8991 18.8045 34.9334 18.5366 34.9869ZM83.3451 36.4183C85.1134 37.2194 86.0576 38.9358 86.0576 41.349C86.0576 43.2335 85.5808 44.4698 84.4508 45.5159C82.4625 47.3565 79.3303 46.8399 77.9018 44.4357C77.0163 42.9454 76.9887 40.0303 77.8444 38.3702C78.8803 36.3607 81.3129 35.4975 83.3451 36.4183Z" fill="white" stroke="#2F2F2F" stroke-width="200" mask="url(#path-1-inside-1_897_422)"/>
<path d="M2.303 60.084C1.92967 60.084 1.589 60 1.281 59.832C0.973 59.6593 0.732667 59.4237 0.56 59.125C0.387333 58.8217 0.301 58.4833 0.301 58.11C0.301 57.5407 0.49 57.0693 0.868 56.696C1.25067 56.3227 1.729 56.136 2.303 56.136C2.681 56.136 3.02167 56.2223 3.325 56.395C3.633 56.563 3.87333 56.7987 4.046 57.102C4.22333 57.4007 4.312 57.7367 4.312 58.11C4.312 58.6747 4.12067 59.146 3.738 59.524C3.35533 59.8973 2.877 60.084 2.303 60.084ZM1.302 59.118C1.568 59.3793 1.90167 59.51 2.303 59.51C2.709 59.51 3.04267 59.3793 3.304 59.118C3.57 58.852 3.703 58.516 3.703 58.11C3.703 57.704 3.57 57.3703 3.304 57.109C3.04267 56.843 2.709 56.71 2.303 56.71C1.90167 56.71 1.568 56.843 1.302 57.109C1.04067 57.3703 0.91 57.704 0.91 58.11C0.91 58.516 1.04067 58.852 1.302 59.118ZM9.43726 58.124C9.43726 58.684 9.25292 59.146 8.88426 59.51C8.51559 59.8693 8.04426 60.0607 7.47026 60.084V61.19H6.87526V60.084C6.50192 60.07 6.16592 59.979 5.86726 59.811C5.56859 59.643 5.33526 59.412 5.16726 59.118C4.99926 58.824 4.91526 58.4927 4.91526 58.124C4.91526 57.5593 5.09959 57.0927 5.46826 56.724C5.84159 56.3553 6.31059 56.1593 6.87526 56.136V55.079H7.47026V56.136C8.03959 56.1593 8.50859 56.3553 8.87726 56.724C9.25059 57.0927 9.43726 57.5593 9.43726 58.124ZM5.88826 57.151C5.63159 57.4077 5.50326 57.7297 5.50326 58.117C5.50326 58.5043 5.62926 58.8263 5.88126 59.083C6.13792 59.335 6.46926 59.4703 6.87526 59.489V56.731C6.47392 56.7497 6.14492 56.8897 5.88826 57.151ZM7.47026 59.489C7.87626 59.4703 8.20759 59.3327 8.46426 59.076C8.72092 58.8193 8.84926 58.4997 8.84926 58.117C8.84926 57.7297 8.71859 57.4077 8.45726 57.151C8.20059 56.8897 7.87159 56.7497 7.47026 56.731V59.489ZM13.1222 56.22H13.4512V60H12.8912V57.298L10.6862 60H10.3432V56.22H10.9102V58.901L13.1222 56.22ZM17.7367 59.447H18.2617V61.001H17.7157V60H14.6567V56.22H15.2377V59.447H17.1557V56.22H17.7367V59.447ZM21.8996 56.22H22.2286V60H21.6686V57.298L19.4636 60H19.1206V56.22H19.6876V58.901L21.8996 56.22ZM26.654 56.22H27.13V60H26.633L26.57 59.426C26.3927 59.636 26.1757 59.7993 25.919 59.916C25.667 60.028 25.3894 60.084 25.086 60.084C24.5307 60.084 24.0664 59.8973 23.693 59.524C23.3197 59.146 23.133 58.6747 23.133 58.11C23.133 57.5453 23.3197 57.0763 23.693 56.703C24.0664 56.325 24.5307 56.136 25.086 56.136C25.394 56.136 25.674 56.1943 25.926 56.311C26.1827 56.4277 26.3997 56.591 26.577 56.801L26.654 56.22ZM24.134 59.111C24.4 59.377 24.7337 59.51 25.135 59.51C25.5364 59.51 25.8677 59.377 26.129 59.111C26.3904 58.845 26.521 58.5113 26.521 58.11C26.521 57.7087 26.3904 57.375 26.129 57.109C25.8677 56.843 25.5364 56.71 25.135 56.71C24.7337 56.71 24.4 56.8453 24.134 57.116C23.8727 57.382 23.742 57.7133 23.742 58.11C23.742 58.5067 23.8727 58.8403 24.134 59.111ZM28.9726 56.22H31.4506V60H30.8556V56.738H29.4696L29.2736 58.649C29.2222 59.1483 29.0939 59.503 28.8886 59.713C28.6832 59.9183 28.3752 60.021 27.9646 60.021H27.8596V59.461H27.9926C28.2072 59.461 28.3706 59.4003 28.4826 59.279C28.5946 59.153 28.6646 58.9547 28.6926 58.684L28.9726 56.22ZM34.1679 57.41C34.5645 57.41 34.8889 57.5313 35.1409 57.774C35.3929 58.012 35.5189 58.3247 35.5189 58.712C35.5189 59.09 35.3929 59.4003 35.1409 59.643C34.8889 59.881 34.5645 60 34.1679 60H32.6489V56.22H33.2299V57.41H34.1679ZM34.0909 59.468C34.3382 59.468 34.5365 59.398 34.6859 59.258C34.8352 59.118 34.9099 58.936 34.9099 58.712C34.9099 58.4833 34.8352 58.299 34.6859 58.159C34.5365 58.0143 34.3382 57.942 34.0909 57.942H33.2299V59.468H34.0909ZM38.9374 56.22H39.5184V60H38.9374V58.327H36.9144V60H36.3334V56.22H36.9144V57.767H38.9374V56.22ZM42.2411 57.41C42.6378 57.41 42.9621 57.5313 43.2141 57.774C43.4661 58.012 43.5921 58.3247 43.5921 58.712C43.5921 59.09 43.4661 59.4003 43.2141 59.643C42.9621 59.881 42.6378 60 42.2411 60H40.7221V56.22H41.3031V57.41H42.2411ZM44.2781 56.22H44.8731V60H44.2781V56.22ZM42.1641 59.468C42.4115 59.468 42.6098 59.398 42.7591 59.258C42.9085 59.118 42.9831 58.936 42.9831 58.712C42.9831 58.4833 42.9085 58.299 42.7591 58.159C42.6098 58.0143 42.4115 57.942 42.1641 57.942H41.3031V59.468H42.1641ZM48.5527 55.009V55.457H46.7187V55.009H48.5527ZM48.8537 56.22H49.1827V60H48.6227V57.298L46.4177 60H46.0747V56.22H46.6417V58.901L48.8537 56.22ZM52.2202 56.22H55.4262V60H54.8382V56.766H52.8152V60H52.2202V56.22ZM58.6313 56.136C59.196 56.136 59.6603 56.3227 60.0243 56.696C60.393 57.0693 60.5773 57.5407 60.5773 58.11C60.5773 58.6747 60.393 59.146 60.0243 59.524C59.6603 59.8973 59.196 60.084 58.6313 60.084C58.062 60.084 57.593 59.888 57.2243 59.496V61.351H56.6293V56.22H57.0353L57.1543 56.801C57.3317 56.591 57.5463 56.4277 57.7983 56.311C58.055 56.1943 58.3327 56.136 58.6313 56.136ZM58.5893 59.51C58.9907 59.51 59.322 59.377 59.5833 59.111C59.8447 58.845 59.9753 58.5113 59.9753 58.11C59.9753 57.7087 59.8447 57.375 59.5833 57.109C59.322 56.843 58.9907 56.71 58.5893 56.71C58.188 56.71 57.8543 56.8453 57.5883 57.116C57.327 57.382 57.1963 57.7133 57.1963 58.11C57.1963 58.3713 57.2547 58.6093 57.3713 58.824C57.4927 59.0387 57.6607 59.2067 57.8753 59.328C58.09 59.4493 58.328 59.51 58.5893 59.51ZM63.1839 60.084C62.8105 60.084 62.4699 60 62.1619 59.832C61.8539 59.6593 61.6135 59.4237 61.4409 59.125C61.2682 58.8217 61.1819 58.4833 61.1819 58.11C61.1819 57.5407 61.3709 57.0693 61.7489 56.696C62.1315 56.3227 62.6099 56.136 63.1839 56.136C63.5619 56.136 63.9025 56.2223 64.2059 56.395C64.5139 56.563 64.7542 56.7987 64.9269 57.102C65.1042 57.4007 65.1929 57.7367 65.1929 58.11C65.1929 58.6747 65.0015 59.146 64.6189 59.524C64.2362 59.8973 63.7579 60.084 63.1839 60.084ZM62.1829 59.118C62.4489 59.3793 62.7825 59.51 63.1839 59.51C63.5899 59.51 63.9235 59.3793 64.1849 59.118C64.4509 58.852 64.5839 58.516 64.5839 58.11C64.5839 57.704 64.4509 57.3703 64.1849 57.109C63.9235 56.843 63.5899 56.71 63.1839 56.71C62.7825 56.71 62.4489 56.843 62.1829 57.109C61.9215 57.3703 61.7909 57.704 61.7909 58.11C61.7909 58.516 61.9215 58.852 62.1829 59.118ZM68.8761 56.22H69.2051V60H68.6451V57.298L66.4401 60H66.0971V56.22H66.6641V58.901L68.8761 56.22ZM72.3776 58.005C72.7229 58.1917 72.8956 58.4997 72.8956 58.929C72.8956 59.153 72.8326 59.3537 72.7066 59.531C72.5853 59.7037 72.4126 59.839 72.1886 59.937C71.9693 60.035 71.7219 60.084 71.4466 60.084C71.0453 60.084 70.7139 59.9813 70.4526 59.776C70.1959 59.5707 70.0513 59.2953 70.0186 58.95H70.5576C70.5949 59.1273 70.6929 59.2673 70.8516 59.37C71.0103 59.468 71.2086 59.517 71.4466 59.517C71.6986 59.517 71.9063 59.4587 72.0696 59.342C72.2329 59.2253 72.3146 59.0713 72.3146 58.88C72.3146 58.7027 72.2446 58.5557 72.1046 58.439C71.9693 58.3223 71.7966 58.264 71.5866 58.264H71.0266V57.781H71.5866C71.7826 57.781 71.9389 57.732 72.0556 57.634C72.1769 57.5313 72.2376 57.4007 72.2376 57.242C72.2376 57.0693 72.1653 56.9293 72.0206 56.822C71.8759 56.7147 71.6846 56.661 71.4466 56.661C71.2366 56.661 71.0616 56.7077 70.9216 56.801C70.7816 56.8943 70.6929 57.0203 70.6556 57.179H70.1166C70.1353 56.9737 70.2029 56.7917 70.3196 56.633C70.4409 56.4743 70.5996 56.353 70.7956 56.269C70.9963 56.1803 71.2179 56.136 71.4606 56.136C71.8479 56.136 72.1676 56.2363 72.4196 56.437C72.6716 56.6377 72.7976 56.8897 72.7976 57.193C72.7976 57.557 72.6576 57.8277 72.3776 58.005ZM76.2576 58.04C76.4489 58.11 76.6006 58.2267 76.7126 58.39C76.8292 58.5533 76.8876 58.7377 76.8876 58.943C76.8876 59.2463 76.7756 59.4983 76.5516 59.699C76.3322 59.8997 76.0569 60 75.7256 60H73.8286V56.22H75.7046C76.0172 56.22 76.2716 56.311 76.4676 56.493C76.6636 56.6703 76.7616 56.899 76.7616 57.179C76.7616 57.305 76.7406 57.424 76.6986 57.536C76.6566 57.648 76.5982 57.7483 76.5236 57.837C76.4489 57.921 76.3602 57.9887 76.2576 58.04ZM76.1736 57.284C76.1736 57.13 76.1222 57.0087 76.0196 56.92C75.9169 56.8267 75.7839 56.78 75.6206 56.78H74.4096V57.781H75.6206C75.7886 57.781 75.9216 57.7367 76.0196 57.648C76.1222 57.5547 76.1736 57.4333 76.1736 57.284ZM75.6556 59.44C75.7722 59.44 75.8772 59.4167 75.9706 59.37C76.0686 59.3187 76.1432 59.251 76.1946 59.167C76.2459 59.083 76.2716 58.9897 76.2716 58.887C76.2716 58.7797 76.2459 58.684 76.1946 58.6C76.1432 58.5113 76.0686 58.4437 75.9706 58.397C75.8772 58.3503 75.7699 58.327 75.6486 58.327H74.4096V59.44H75.6556ZM79.5491 60.084C79.1758 60.084 78.8351 60 78.5271 59.832C78.2191 59.6593 77.9788 59.4237 77.8061 59.125C77.6334 58.8217 77.5471 58.4833 77.5471 58.11C77.5471 57.5407 77.7361 57.0693 78.1141 56.696C78.4968 56.3227 78.9751 56.136 79.5491 56.136C79.9271 56.136 80.2678 56.2223 80.5711 56.395C80.8791 56.563 81.1194 56.7987 81.2921 57.102C81.4694 57.4007 81.5581 57.7367 81.5581 58.11C81.5581 58.6747 81.3668 59.146 80.9841 59.524C80.6014 59.8973 80.1231 60.084 79.5491 60.084ZM78.5481 59.118C78.8141 59.3793 79.1478 59.51 79.5491 59.51C79.9551 59.51 80.2888 59.3793 80.5501 59.118C80.8161 58.852 80.9491 58.516 80.9491 58.11C80.9491 57.704 80.8161 57.3703 80.5501 57.109C80.2888 56.843 79.9551 56.71 79.5491 56.71C79.1478 56.71 78.8141 56.843 78.5481 57.109C78.2868 57.3703 78.1561 57.704 78.1561 58.11C78.1561 58.516 78.2868 58.852 78.5481 59.118ZM85.5443 59.44H86.0553V61.001H85.5093V60H82.4643V61.001H81.9183V59.44H82.3243C82.4363 59.3373 82.5227 59.1927 82.5833 59.006C82.644 58.8147 82.6977 58.5253 82.7443 58.138C82.7957 57.746 82.8563 57.1067 82.9263 56.22H85.5443V59.44ZM83.4583 56.745C83.4163 57.3703 83.372 57.858 83.3253 58.208C83.2833 58.5533 83.2343 58.8193 83.1783 59.006C83.1223 59.188 83.05 59.3327 82.9613 59.44H84.9633V56.745H83.4583ZM89.7121 56.22H90.0411V60H89.4811V57.298L87.2761 60H86.9331V56.22H87.5001V58.901L89.7121 56.22ZM94.1585 56.22V56.759H92.7515V60H92.1705V56.759H90.7635V56.22H94.1585ZM98.2884 58.124C98.2884 58.1753 98.2837 58.2477 98.2744 58.341H95.0474C95.094 58.691 95.2387 58.9733 95.4814 59.188C95.724 59.398 96.0227 59.503 96.3774 59.503C96.6387 59.503 96.8697 59.447 97.0704 59.335C97.2757 59.2183 97.439 59.055 97.5604 58.845H98.1834C98.0247 59.237 97.7867 59.5427 97.4694 59.762C97.152 59.9767 96.788 60.084 96.3774 60.084C95.8314 60.084 95.374 59.895 95.0054 59.517C94.6367 59.139 94.4524 58.67 94.4524 58.11C94.4524 57.5453 94.6367 57.0763 95.0054 56.703C95.374 56.325 95.8314 56.136 96.3774 56.136C96.942 56.136 97.4017 56.3273 97.7564 56.71C98.111 57.0927 98.2884 57.564 98.2884 58.124ZM96.3774 56.703C96.1534 56.703 95.948 56.7473 95.7614 56.836C95.5794 56.9247 95.4277 57.053 95.3064 57.221C95.185 57.3843 95.1034 57.5733 95.0614 57.788H97.6864C97.6444 57.5687 97.5627 57.3773 97.4414 57.214C97.32 57.046 97.1684 56.92 96.9864 56.836C96.8044 56.7473 96.6014 56.703 96.3774 56.703ZM99.7314 56.22H102.209V60H101.614V56.738H100.228L100.032 58.649C99.981 59.1483 99.8527 59.503 99.6474 59.713C99.442 59.9183 99.134 60.021 98.7234 60.021H98.6184V59.461H98.7514C98.966 59.461 99.1294 59.4003 99.2414 59.279C99.3534 59.153 99.4234 58.9547 99.4514 58.684L99.7314 56.22ZM104.927 57.41C105.323 57.41 105.648 57.5313 105.9 57.774C106.152 58.012 106.278 58.3247 106.278 58.712C106.278 59.09 106.152 59.4003 105.9 59.643C105.648 59.881 105.323 60 104.927 60H103.408V56.22H103.989V57.41H104.927ZM104.85 59.468C105.097 59.468 105.295 59.398 105.445 59.258C105.594 59.118 105.669 58.936 105.669 58.712C105.669 58.4833 105.594 58.299 105.445 58.159C105.295 58.0143 105.097 57.942 104.85 57.942H103.989V59.468H104.85Z" fill="#2F2F2F"/>
</svg>
