<svg width="184" height="32" viewBox="0 0 184 32" fill="none" xmlns="http://www.w3.org/2000/svg">
<path d="M182.615 30.7425C182.94 30.679 183.152 30.3639 183.089 30.0387L182.055 24.7387C181.991 24.4134 181.676 24.2012 181.351 24.2647C181.026 24.3281 180.813 24.6432 180.877 24.9685L181.796 29.6796L177.085 30.5989C176.76 30.6623 176.548 30.9774 176.611 31.3027C176.675 31.6279 176.99 31.8401 177.315 31.7767L182.615 30.7425ZM2.93515 29.4178C3.1997 29.2182 3.2524 28.842 3.05286 28.5774C2.85331 28.3129 2.47709 28.2602 2.21253 28.4597L2.93515 29.4178ZM5.50871 26.08C5.23623 26.2686 5.16821 26.6423 5.35678 26.9148C5.54535 27.1873 5.91911 27.2553 6.1916 27.0668L5.50871 26.08ZM9.53646 24.8415C9.81556 24.6629 9.89701 24.2918 9.71837 24.0127C9.53974 23.7336 9.16867 23.6522 8.88957 23.8308L9.53646 24.8415ZM12.3413 21.7016C12.0565 21.871 11.963 22.2392 12.1323 22.524C12.3017 22.8088 12.6699 22.9024 12.9547 22.733L12.3413 21.7016ZM16.4374 20.7338C16.7273 20.5732 16.8321 20.2081 16.6715 19.9182C16.5109 19.6284 16.1457 19.5236 15.8559 19.6842L16.4374 20.7338ZM19.428 17.7726C19.1336 17.9247 19.0183 18.2867 19.1704 18.5811C19.3225 18.8755 19.6845 18.9908 19.9789 18.8386L19.428 17.7726ZM23.575 17.0435C23.8735 16.8996 23.9988 16.541 23.855 16.2425C23.7111 15.944 23.3524 15.8186 23.0539 15.9625L23.575 17.0435ZM26.7309 14.2512C26.4286 14.3869 26.2937 14.7421 26.4294 15.0443C26.5652 15.3466 26.9203 15.4816 27.2226 15.3458L26.7309 14.2512ZM30.9189 13.7442C31.2247 13.6164 31.369 13.265 31.2413 12.9593C31.1136 12.6535 30.7621 12.5092 30.4564 12.6369L30.9189 13.7442ZM34.2184 11.1225C33.9094 11.2423 33.756 11.5898 33.8758 11.8988C33.9955 12.2078 34.3431 12.3612 34.6521 12.2414L34.2184 11.1225ZM38.409 10.8405C38.7209 10.7287 38.8832 10.3852 38.7714 10.0733C38.6596 9.76134 38.316 9.5991 38.0041 9.7109L38.409 10.8405ZM41.8321 8.39369C41.5174 8.49752 41.3465 8.83679 41.4503 9.15147C41.5542 9.46616 41.8934 9.63709 42.2081 9.53326L41.8321 8.39369ZM46.0474 8.3204C46.3646 8.2246 46.5441 7.88978 46.4483 7.57256C46.3525 7.25534 46.0177 7.07584 45.7004 7.17165L46.0474 8.3204ZM49.6015 6.04729C49.282 6.13502 49.094 6.46518 49.1818 6.78473C49.2695 7.10427 49.5997 7.2922 49.9192 7.20448L49.6015 6.04729ZM53.798 6.19212C54.1197 6.1125 54.3159 5.78719 54.2363 5.46553C54.1566 5.14386 53.8313 4.94766 53.5097 5.02728L53.798 6.19212ZM57.4531 4.104C57.1295 4.17544 56.9251 4.49567 56.9965 4.81924C57.068 5.14282 57.3882 5.34722 57.7118 5.27578L57.4531 4.104ZM61.6582 4.45709C61.9835 4.39392 62.196 4.07902 62.1329 3.75372C62.0697 3.42843 61.7548 3.21592 61.4295 3.27909L61.6582 4.45709ZM65.4096 2.55881C65.0828 2.61365 64.8624 2.92303 64.9172 3.24983C64.9721 3.57663 65.2814 3.7971 65.6082 3.74226L65.4096 2.55881ZM69.5771 3.12843C69.9052 3.08198 70.1335 2.77836 70.087 2.45026C70.0406 2.12216 69.737 1.89383 69.4089 1.94027L69.5771 3.12843ZM73.4356 1.42325C73.1064 1.4612 72.8703 1.75882 72.9082 2.08801C72.9462 2.4172 73.2438 2.65331 73.573 2.61536L73.4356 1.42325ZM77.5682 2.20716C77.8982 2.17776 78.1419 1.88635 78.1125 1.55629C78.0831 1.22622 77.7917 0.982492 77.4617 1.0119L77.5682 2.20716ZM81.4968 0.705213C81.1661 0.726021 80.9148 1.01099 80.9356 1.34171C80.9565 1.67242 81.2414 1.92365 81.5721 1.90284L81.4968 0.705213ZM85.5976 1.7025C85.9288 1.69037 86.1874 1.41209 86.1753 1.08094C86.1631 0.749795 85.8848 0.491176 85.5537 0.503302L85.5976 1.7025ZM89.5954 0.408299C89.264 0.411741 88.9982 0.683145 89.0017 1.0145C89.0051 1.34585 89.2765 1.61168 89.6079 1.60823L89.5954 0.408299ZM93.6263 1.61942C93.9576 1.62471 94.2305 1.3604 94.2358 1.02907C94.2411 0.697743 93.9768 0.42486 93.6455 0.41957L93.6263 1.61942ZM97.7067 0.538233C97.3756 0.524165 97.0958 0.781148 97.0818 1.11222C97.0677 1.44329 97.3247 1.72308 97.6558 1.73715L97.7067 0.538233ZM101.656 1.96C101.986 1.9828 102.273 1.73328 102.296 1.4027C102.318 1.07211 102.069 0.785638 101.738 0.762842L101.656 1.96ZM105.782 1.09565C105.453 1.0641 105.16 1.30592 105.128 1.63579C105.097 1.96565 105.338 2.25864 105.668 2.2902L105.782 1.09565ZM109.662 2.72567C109.991 2.76595 110.29 2.53196 110.33 2.20304C110.371 1.87413 110.137 1.57484 109.808 1.53457L109.662 2.72567ZM113.818 2.07942C113.49 2.03048 113.185 2.25648 113.136 2.58422C113.087 2.91195 113.313 3.21731 113.641 3.26626L113.818 2.07942ZM117.621 3.91464C117.947 3.97223 118.259 3.75438 118.316 3.42805C118.374 3.10173 118.156 2.7905 117.83 2.7329L117.621 3.91464ZM121.794 3.48627C121.47 3.42016 121.153 3.6298 121.087 3.95451C121.021 4.27922 121.23 4.59604 121.555 4.66215L121.794 3.48627ZM125.495 5.51831C125.818 5.5929 126.14 5.39163 126.215 5.06877C126.29 4.7459 126.088 4.4237 125.765 4.34911L125.495 5.51831ZM129.689 5.30924C129.368 5.22633 129.041 5.41919 128.958 5.74002C128.875 6.06085 129.068 6.38815 129.389 6.47107L129.689 5.30924ZM133.272 7.52824C133.59 7.61939 133.923 7.43502 134.014 7.11644C134.105 6.79785 133.92 6.46569 133.602 6.37453L133.272 7.52824ZM137.48 7.53798C137.164 7.43874 136.827 7.61458 136.728 7.93074C136.629 8.2469 136.805 8.58366 137.121 8.6829L137.48 7.53798ZM140.938 9.93432C141.252 10.0415 141.593 9.8742 141.7 9.56065C141.807 9.24709 141.64 8.90601 141.326 8.79883L140.938 9.93432ZM145.148 10.159C144.838 10.044 144.492 10.2028 144.378 10.5135C144.263 10.8243 144.421 11.1695 144.732 11.2844L145.148 10.159ZM148.476 12.7223C148.784 12.8449 149.133 12.6947 149.256 12.3868C149.378 12.079 149.228 11.73 148.92 11.6074L148.476 12.7223ZM152.676 13.1561C152.371 13.0261 152.019 13.1677 151.889 13.4725C151.759 13.7773 151.9 14.1298 152.205 14.2598L152.676 13.1561ZM155.871 15.8758C156.173 16.013 156.529 15.8797 156.666 15.5781C156.803 15.2765 156.67 14.9208 156.368 14.7835L155.871 15.8758ZM160.048 16.5109C159.75 16.3665 159.391 16.4914 159.247 16.7897C159.103 17.088 159.227 17.4468 159.526 17.5911L160.048 16.5109ZM163.11 19.3764C163.405 19.5275 163.766 19.411 163.918 19.1161C164.069 18.8212 163.952 18.4596 163.657 18.3085L163.11 19.3764ZM167.253 20.2035C166.962 20.0457 166.598 20.154 166.44 20.4454C166.282 20.7368 166.391 21.1009 166.682 21.2587L167.253 20.2035ZM170.183 23.2051C170.471 23.3693 170.837 23.2691 171.001 22.9812C171.166 22.6934 171.065 22.327 170.777 22.1628L170.183 23.2051ZM174.282 24.2134C173.998 24.043 173.63 24.1352 173.459 24.4194C173.289 24.7036 173.381 25.0721 173.665 25.2425L174.282 24.2134ZM177.083 27.3423C177.363 27.5187 177.734 27.4343 177.91 27.1538C178.087 26.8734 178.002 26.5029 177.722 26.3265L177.083 27.3423ZM181.13 28.5201C180.853 28.3379 180.481 28.4145 180.299 28.6912C180.116 28.968 180.193 29.3401 180.47 29.5223L181.13 28.5201ZM1.37206 30.6243C1.87727 30.225 2.39839 29.8226 2.93515 29.4178L2.21253 28.4597C1.66872 28.8699 1.14043 29.2778 0.627939 29.6829L1.37206 30.6243ZM6.1916 27.0668C7.25866 26.3283 8.37413 25.5855 9.53646 24.8415L8.88957 23.8308C7.71538 24.5823 6.5879 25.3331 5.50871 26.08L6.1916 27.0668ZM12.9547 22.733C14.0793 22.0642 15.2406 21.397 16.4374 20.7338L15.8559 19.6842C14.6484 20.3532 13.4765 21.0265 12.3413 21.7016L12.9547 22.733ZM19.9789 18.8386C21.1484 18.2342 22.3474 17.6352 23.575 17.0435L23.0539 15.9625C21.8163 16.5591 20.6074 17.1631 19.428 17.7726L19.9789 18.8386ZM27.2226 15.3458C28.4304 14.8033 29.6627 14.2689 30.9189 13.7442L30.4564 12.6369C29.1904 13.1658 27.9483 13.7044 26.7309 14.2512L27.2226 15.3458ZM34.6521 12.2414C35.8839 11.764 37.1364 11.2966 38.409 10.8405L38.0041 9.7109C36.7218 10.1705 35.4597 10.6415 34.2184 11.1225L34.6521 12.2414ZM42.2081 9.53326C43.4701 9.11689 44.75 8.71221 46.0474 8.3204L45.7004 7.17165C44.3933 7.56641 43.1037 7.97416 41.8321 8.39369L42.2081 9.53326ZM49.9192 7.20448C51.1968 6.85375 52.4899 6.51595 53.798 6.19212L53.5097 5.02728C52.1917 5.35356 50.8888 5.69391 49.6015 6.04729L49.9192 7.20448ZM57.7118 5.27578C59.0137 4.98834 60.3293 4.71512 61.6582 4.45709L61.4295 3.27909C60.0905 3.53909 58.7648 3.81438 57.4531 4.104L57.7118 5.27578ZM65.6082 3.74226C66.9193 3.52225 68.2424 3.31735 69.5771 3.12843L69.4089 1.94027C68.0639 2.13064 66.7307 2.33712 65.4096 2.55881L65.6082 3.74226ZM73.573 2.61536C74.8942 2.46307 76.2261 2.32673 77.5682 2.20716L77.4617 1.0119C76.1092 1.1324 74.767 1.26979 73.4356 1.42325L73.573 2.61536ZM81.5721 1.90284C82.9047 1.819 84.2466 1.75197 85.5976 1.7025L85.5537 0.503302C84.1921 0.55316 82.8397 0.620717 81.4968 0.705213L81.5721 1.90284ZM89.6079 1.60823C90.9392 1.59441 92.2788 1.5979 93.6263 1.61942L93.6455 0.41957C92.2873 0.397887 90.9372 0.394363 89.5954 0.408299L89.6079 1.60823ZM97.6558 1.73715C98.982 1.79351 100.316 1.86758 101.656 1.96L101.738 0.762842C100.387 0.669687 99.0434 0.595033 97.7067 0.538233L97.6558 1.73715ZM105.668 2.2902C106.993 2.41696 108.325 2.56192 109.662 2.72567L109.808 1.53457C108.46 1.36952 107.118 1.22342 105.782 1.09565L105.668 2.2902ZM113.641 3.26626C114.962 3.46359 116.289 3.67953 117.621 3.91464L117.83 2.7329C116.487 2.49595 115.15 2.27831 113.818 2.07942L113.641 3.26626ZM121.555 4.66215C122.864 4.9286 124.177 5.21382 125.495 5.51831L125.765 4.34911C124.437 4.04225 123.113 3.75481 121.794 3.48627L121.555 4.66215ZM129.389 6.47107C130.679 6.80457 131.974 7.1568 133.272 7.52824L133.602 6.37453C132.294 6.00025 130.989 5.64531 129.689 5.30924L129.389 6.47107ZM137.121 8.6829C138.39 9.08128 139.662 9.49827 140.938 9.93432L141.326 8.79883C140.041 8.35952 138.759 7.93938 137.48 7.53798L137.121 8.6829ZM144.732 11.2844C145.977 11.7452 147.226 12.2244 148.476 12.7223L148.92 11.6074C147.66 11.1058 146.403 10.6232 145.148 10.159L144.732 11.2844ZM152.205 14.2598C153.425 14.7802 154.647 15.3187 155.871 15.8758L156.368 14.7835C155.135 14.2225 153.905 13.6802 152.676 13.1561L152.205 14.2598ZM159.526 17.5911C160.719 18.1683 161.914 18.7632 163.11 19.3764L163.657 18.3085C162.453 17.6911 161.25 17.092 160.048 16.5109L159.526 17.5911ZM166.682 21.2587C167.848 21.8899 169.015 22.5386 170.183 23.2051L170.777 22.1628C169.602 21.4919 168.427 20.8389 167.253 20.2035L166.682 21.2587ZM173.665 25.2425C174.803 25.9252 175.943 26.625 177.083 27.3423L177.722 26.3265C176.575 25.6048 175.428 24.9005 174.282 24.2134L173.665 25.2425ZM180.47 29.5223C181.035 29.8943 181.6 30.2706 182.165 30.6513L182.835 29.6559C182.266 29.273 181.698 28.8944 181.13 28.5201L180.47 29.5223Z" fill="#BE1704"/>
</svg>
