<svg width="58" height="61" viewBox="0 0 58 61" fill="none" xmlns="http://www.w3.org/2000/svg">
<path fill-rule="evenodd" clip-rule="evenodd" d="M19.232 0.496617C18.1164 0.672001 17.1186 1.3453 16.4204 2.39391L16.0147 3.00322L12.2415 28.1362L8.46832 53.2692L8.67917 53.9776C8.9612 54.9251 9.5769 55.8034 10.3191 56.3174L10.9286 56.7392L24.5146 58.7789L38.1007 60.8185L38.8072 60.5942C39.6675 60.3209 40.514 59.6621 41.0618 58.8392L41.4714 58.2239L45.2446 33.0909L49.0178 7.95794L48.807 7.24952C48.5249 6.30203 47.9092 5.42371 47.167 4.90979L46.5576 4.48796L33.1498 2.45216C22.3501 0.812449 19.6428 0.432006 19.232 0.496617ZM46.3496 6.3443C46.66 6.57301 46.914 6.9051 47.0879 7.30985L47.353 7.92684L47.0328 10.3035L46.7126 12.6802L31.7721 10.4372L16.8316 8.1942L17.2235 5.82821L17.6152 3.46234L18.0498 2.95039C18.3349 2.61455 18.6752 2.37168 19.0391 2.24421L19.5939 2.04988L32.7351 4.02275L45.8763 5.99562L46.3496 6.3443ZM28.6472 6.62892L28.5246 7.4453L32.1398 7.98805L35.755 8.53079L35.8776 7.71441L36.0001 6.89802L32.3849 6.35528L28.7698 5.81253L28.6472 6.62892ZM43.7928 32.0382L41.1314 49.7654L26.2042 47.5244L11.2771 45.2834L13.9384 27.5562L16.5998 9.82897L31.527 12.07L46.4542 14.311L43.7928 32.0382ZM7.19528 15.1848C5.18683 16.7652 3.42619 18.8389 2.3233 20.923C1.25027 22.9503 0.981369 23.7859 0.602526 26.2696C0.216055 28.8034 0.215236 29.6365 0.597104 31.8332C0.853802 33.3101 1.23516 34.5238 1.90817 36.006C2.39345 37.0748 3.38869 38.8079 3.81393 39.3249C4.02966 39.587 4.03126 39.5866 4.62842 39.1539C4.95755 38.9156 5.23377 38.6738 5.24233 38.6168C5.2509 38.5598 4.99019 38.116 4.66301 37.6304C3.12672 35.351 2.1656 32.4589 1.98695 29.5781C1.89832 28.1493 2.35814 25.0865 2.8624 23.7468C3.8791 21.0454 5.64708 18.5631 7.78498 16.8352C8.24032 16.4671 8.61923 16.1235 8.627 16.0717C8.64325 15.9635 7.84497 14.8351 7.74118 14.8195C7.70339 14.8139 7.45774 14.9783 7.19528 15.1848ZM52.8224 22.0989C52.5112 22.3334 52.2502 22.5678 52.2424 22.6197C52.2346 22.6715 52.4962 23.1112 52.8237 23.5968C54.031 25.3866 54.9331 27.6822 55.311 29.9264C55.894 33.3892 55.1627 37.1492 53.3123 40.2031C52.296 41.8803 50.6074 43.7899 49.3594 44.6737C49.096 44.8603 48.8719 45.0703 48.8613 45.1406C48.8508 45.2109 49.0477 45.5385 49.299 45.8686L49.756 46.4689L50.4937 45.8717C53.3653 43.5472 55.3699 40.636 56.4501 37.2212C56.8901 35.83 57.2559 32.9092 57.161 31.5431C56.94 28.3602 55.9161 25.3371 54.1207 22.5667C53.8111 22.0889 53.5197 21.6922 53.4731 21.6852C53.4264 21.6782 53.1336 21.8644 52.8224 22.0989ZM10.0149 19.5435C7.07149 21.9801 5.35122 25.7658 5.54857 29.3727C5.62181 30.7125 5.9037 32.109 6.32324 33.2105C6.65057 34.0699 7.45923 35.5867 7.87541 36.1221L8.18634 36.522L8.80965 36.0613L9.43306 35.6007L9.05712 34.9887C7.98719 33.2472 7.4456 31.7966 7.21885 30.0654C7.0346 28.6588 7.4176 26.1077 8.00676 24.8172C8.73153 23.2295 9.6758 22.001 11.2079 20.6522L11.7453 20.1793L11.3137 19.5836C11.0763 19.256 10.8448 18.9824 10.7992 18.9756C10.7535 18.9687 10.4007 19.2244 10.0149 19.5435ZM48.6429 25.1878L48.0554 25.6305L48.4302 26.2404C49.4987 27.9796 50.0407 29.4312 50.2673 31.1617C50.4515 32.5684 50.0685 35.1194 49.4794 36.4099C48.7543 37.9982 47.8106 39.2258 46.2764 40.5764L45.7374 41.051L46.2076 41.6804L46.6778 42.3099L47.3706 41.758C47.7515 41.4544 48.4163 40.8095 48.8479 40.3246C52.5484 36.1676 52.9722 30.3062 49.9147 25.5669C49.6323 25.1291 49.3627 24.7651 49.3157 24.758C49.2687 24.7509 48.966 24.9444 48.6429 25.1878ZM40.3839 54.5821L39.8709 57.7646L39.4363 58.2766C39.151 58.6127 38.811 58.8555 38.447 58.9829L37.8922 59.1773L24.751 57.2044L11.6098 55.2315L11.1365 54.8828C10.826 54.6541 10.5722 54.3222 10.3982 53.9172L10.1331 53.3001L10.5773 50.1073L11.0214 46.9146L25.9591 49.1572L40.8968 51.3998L40.3839 54.5821ZM25.1237 50.0937C23.8948 50.3218 22.9115 51.2823 22.6179 52.5412C22.1769 54.4325 23.3571 56.1603 25.2878 56.4502C26.5572 56.6408 27.6515 56.1674 28.398 55.1049C29.2545 53.8856 29.1979 52.3841 28.2521 51.2368C27.4343 50.2449 26.3816 49.8602 25.1237 50.0937ZM26.6954 51.9712C27.8835 52.7704 27.3772 54.6888 25.9281 54.8787C24.9394 55.0083 24.0262 54.0894 24.1728 53.1125C24.3698 51.8005 25.6085 51.2402 26.6954 51.9712Z" fill="#BE1704"/>
</svg>
