<svg width="59" height="61" viewBox="0 0 59 61" fill="none" xmlns="http://www.w3.org/2000/svg">
<path fill-rule="evenodd" clip-rule="evenodd" d="M28.0191 1.26223C27.3023 1.62603 24.0502 3.27132 20.7922 4.91849C8.92357 10.9188 0.40992 15.3123 0.207329 15.5414C0.0122028 15.762 0 16.6521 0 30.6589C0 44.6651 0.0122028 45.556 0.207329 45.7782C0.43859 46.0418 29.2125 60.6533 29.5 60.6533C29.7875 60.6533 58.5614 46.0418 58.7927 45.7782C58.9878 45.556 59 44.6656 59 30.6683C59 18.9502 58.9686 15.7539 58.8519 15.6024C58.5973 15.2718 30.2574 0.768466 29.6552 0.66058C29.4075 0.616205 28.9887 0.770227 28.0191 1.26223ZM37.5383 6.57516C41.9465 8.82515 47.9357 11.876 50.8477 13.3547C53.7597 14.8334 56.1054 16.0756 56.0605 16.1151C55.8986 16.2575 47.5641 20.4788 47.4391 20.4818C47.2802 20.4854 20.8514 7.03136 20.8514 6.94684C20.8514 6.89507 29.363 2.49734 29.4821 2.4876C29.5049 2.48572 33.1302 4.32518 37.5383 6.57516ZM31.9862 14.6977C39.2505 18.38 45.2319 21.4307 45.2779 21.4769C45.324 21.523 44.2141 22.1582 42.8116 22.8882L40.2615 24.2156L26.9437 17.4345C19.6188 13.705 13.6655 10.617 13.7141 10.5722C13.8176 10.4767 18.6317 8.00633 18.7189 8.00398C18.7515 8.00316 24.7217 11.0153 31.9862 14.6977ZM24.9597 18.4131C32.2762 22.1377 38.2501 25.1943 38.2351 25.2055C38.03 25.358 29.6026 29.6024 29.5049 29.6024C29.4302 29.6024 25.92 27.8398 21.7042 25.6855C17.4884 23.5313 11.5601 20.513 8.53012 18.9782C5.50015 17.4432 2.98424 16.1551 2.93934 16.1154C2.86103 16.0465 11.3128 11.6572 11.5449 11.6463C11.6067 11.6433 17.6434 14.6884 24.9597 18.4131ZM10.943 22.2046C15.9039 24.7218 21.9088 27.7726 24.2871 28.9842L28.6114 31.1872L28.6415 44.7856C28.6587 52.5572 28.6271 58.3672 28.5676 58.3447C28.5104 58.3231 22.4599 55.2414 15.1221 51.4965L1.78066 44.6876L1.77889 31.1579C1.77794 23.7164 1.80993 17.6281 1.85009 17.6281C1.89025 17.6281 5.9821 19.6876 10.943 22.2046ZM57.1937 31.1994L57.1637 44.7707L43.839 51.5087C36.5106 55.2147 30.4726 58.2467 30.4214 58.2467C30.3702 58.2467 30.3419 52.1584 30.3585 44.717L30.3886 31.1872L34.7129 28.9793C37.0912 27.7648 39.1002 26.7436 39.1772 26.7099C39.2819 26.664 39.3266 27.3263 39.3549 29.346C39.3893 31.8035 39.4126 32.0655 39.6183 32.2904C39.7722 32.4587 39.9872 32.5373 40.2938 32.5373C40.735 32.5373 40.7785 32.4945 42.5561 30.3136C43.5529 29.0906 44.4324 28.0868 44.5106 28.0831C44.5888 28.0793 45.1445 28.2876 45.7454 28.5458C46.869 29.0287 47.2457 29.0999 47.6219 28.9005C48.0307 28.6837 48.1003 28.1331 48.1028 25.0945L48.105 22.1478L52.5752 19.8915C55.0336 18.6504 57.0853 17.6335 57.1345 17.6316C57.1837 17.6296 57.2103 23.7352 57.1937 31.1994ZM46.2048 24.9653C46.2048 25.9661 46.1831 26.7849 46.1566 26.7849C46.1301 26.7849 45.752 26.6264 45.3163 26.4327C44.4123 26.0309 43.9628 25.9918 43.6272 26.286C43.4982 26.399 42.9506 27.0461 42.4103 27.7241C41.87 28.402 41.3832 29.0068 41.3284 29.0682C41.2737 29.1295 41.2289 28.38 41.2289 27.4025V25.6253L43.628 24.3883C44.9475 23.708 46.067 23.15 46.116 23.1485C46.1649 23.147 46.2048 23.9645 46.2048 24.9653Z" fill="#BE1704"/>
</svg>
