<svg width="57" height="63" viewBox="0 0 57 63" fill="none" xmlns="http://www.w3.org/2000/svg">
<path fill-rule="evenodd" clip-rule="evenodd" d="M5.17727 1.64253C1.18702 3.97389 -0.760835 9.09646 0.714915 13.3772C1.0143 14.2454 1.05515 14.3023 1.48989 14.4566C2.06755 14.6617 2.59546 14.4666 2.88148 13.9422C3.07356 13.5902 3.06453 13.398 2.81276 12.4637C2.21943 10.2629 2.48573 8.18905 3.59763 6.34973C5.33097 3.4828 8.53751 2.02323 11.8404 2.59779C13.0439 2.80716 14.7041 3.63843 15.6408 4.50053C16.424 5.22147 17.3028 6.43051 17.6014 7.19776C17.7873 7.67586 18.2921 8.15265 18.6114 8.15186C19.1026 8.15064 19.5735 7.86493 19.7582 7.45601C19.9887 6.9461 19.7123 6.12541 18.8672 4.81071C15.9625 0.291822 9.89312 -1.11269 5.17727 1.64253ZM7.50431 6.0598C5.72747 7.30043 4.8261 9.69801 5.29457 11.9385C5.4069 12.4761 7.12637 17.1118 10.0457 24.7472L14.6207 36.7135L13.7892 36.262C13.3319 36.0136 12.4566 35.5889 11.8441 35.3179C9.00001 34.0601 5.72751 34.7651 3.5482 37.1051C2.90801 37.7926 1.55124 40.0793 1.46846 40.6105C1.44116 40.7857 1.45478 41.0286 1.49859 41.1504C1.56132 41.3242 18.0213 55.9164 21.8653 59.2059C24.4188 61.3911 27.6328 62.6032 30.6984 62.5371C32.9336 62.4889 33.4086 62.3446 41.377 59.2932C45.8517 57.5797 48.967 56.3295 49.5216 56.0246C51.8816 54.7272 53.711 52.7352 54.8579 50.2139C56.2802 47.0874 56.4821 43.8149 55.4641 40.3905C55.2044 39.5167 53.3089 34.5318 50.9574 28.5381L46.8988 18.1938L46.1964 17.5277C44.4486 15.8699 42.1672 15.466 40.0597 16.4415C39.0791 16.8953 38.1124 17.733 37.7752 18.4211L37.6022 18.7743L37.0346 18.2641C34.5518 16.0323 30.7273 16.4954 28.9873 19.2387L28.5259 19.966L27.9947 19.5817C26.3961 18.4247 24.4227 18.2364 22.5814 19.0652C21.7297 19.4486 21.4004 19.7129 20.3854 20.8276C20.3444 20.8727 19.2196 18.06 17.8858 14.5769C15.2477 7.68781 15.1412 7.46737 13.9756 6.48034C13.1623 5.79145 11.5113 5.17113 10.5168 5.18059C9.58853 5.18932 8.14937 5.6094 7.50431 6.0598ZM10.7566 7.45625C11.4192 7.52422 12.2772 7.94259 12.8252 8.46499C13.1851 8.80814 13.5742 9.76233 18.0367 21.2447L22.8591 33.6535L23.2395 33.7754C23.996 34.018 24.8207 33.3603 24.7142 32.5994C24.6914 32.4371 23.9927 30.4859 23.1615 28.2636C21.7004 24.3568 21.6528 24.2027 21.7297 23.6125C22.0782 20.9328 25.1946 19.872 27.1311 21.7741C27.5612 22.1965 27.6857 22.4701 28.9641 25.801C30.4886 29.7732 30.6439 30.0415 31.4287 30.06C31.793 30.0686 31.933 30.0149 32.1985 29.7652C32.7538 29.2426 32.6859 28.8697 31.4436 25.6215C30.3758 22.8295 30.3351 22.6896 30.3868 21.9893C30.5144 20.2621 31.8573 18.9918 33.4603 19.0822C34.3071 19.13 34.7691 19.3234 35.4544 19.9167C36.0083 20.3962 36.0297 20.4384 37.2611 23.472C38.4978 26.5184 38.5103 26.5429 38.8876 26.6636C39.4299 26.8372 40.0711 26.557 40.3021 26.0455C40.4829 25.6458 40.4662 25.5681 39.8652 23.9986C39.0387 21.8402 38.9845 21.1924 39.5326 20.0192C39.8478 19.3445 40.071 19.0583 40.5221 18.7503C41.9747 17.7587 43.852 18.0822 44.9264 19.5091C45.1636 19.8242 46.4116 23.0037 49.464 31.0697C53.5464 41.8573 53.6767 42.2247 53.7491 43.147C53.9278 45.4248 53.6755 47.1077 52.8632 49.0572C51.9717 51.1965 50.3171 53.0266 48.2724 54.1348C47.6194 54.4885 44.8704 55.5758 39.9474 57.4271C32.7307 60.1411 32.5787 60.1927 31.5705 60.2676C29.3895 60.4296 27.0779 59.9133 25.2768 58.8622C24.1386 58.1978 23.7655 57.8799 12.8314 48.2552L4.02766 40.5058L4.38659 39.8152C4.58401 39.4355 5.04081 38.8164 5.40172 38.4395C5.98712 37.8281 6.17766 37.7087 7.16824 37.3325C8.35817 36.8804 9.06719 36.8358 10.3171 37.1339C10.6438 37.212 12.1709 37.9832 13.7105 38.848C15.2502 39.7128 16.6602 40.4292 16.8436 40.4399C17.2589 40.4641 17.7096 40.1595 17.908 39.7206C18.0566 39.3917 17.9742 39.1647 12.859 25.8046C9.7059 17.5694 7.59662 11.9188 7.50079 11.4504C7.03839 9.19114 8.63038 7.23824 10.7566 7.45625Z" fill="#BE1704"/>
</svg>
