<svg width="17" height="16" viewBox="0 0 17 16" fill="none" xmlns="http://www.w3.org/2000/svg">
<path d="M12.4802 7.64287C12.1756 7.64287 11.9348 7.39287 11.9348 7.09287C11.9348 6.82858 11.6727 6.27858 11.2335 5.80001C10.8014 5.33572 10.3268 5.06429 9.93018 5.06429C9.6256 5.06429 9.38477 4.81429 9.38477 4.51429C9.38477 4.21429 9.63268 3.96429 9.93018 3.96429C10.6385 3.96429 11.3823 4.35001 12.0339 5.04287C12.6431 5.69287 13.0327 6.50001 13.0327 7.08572C13.0327 7.39287 12.7848 7.64287 12.4802 7.64287Z" fill="#BE1704"/>
<path d="M15.038 7.64282C14.7334 7.64282 14.4926 7.39282 14.4926 7.09282C14.4926 4.55711 12.4455 2.49997 9.93799 2.49997C9.63341 2.49997 9.39258 2.24997 9.39258 1.94997C9.39258 1.64997 9.63341 1.39282 9.93091 1.39282C13.0476 1.39282 15.5834 3.94996 15.5834 7.09282C15.5834 7.39282 15.3355 7.64282 15.038 7.64282Z" fill="#BE1704"/>
<path d="M7.82643 10.6428L6.51602 11.9643C6.23977 12.2428 5.8006 12.2428 5.51727 11.9714C5.43935 11.8928 5.36143 11.8214 5.28352 11.7428C4.55393 11 3.89518 10.2214 3.30727 9.40711C2.72643 8.59282 2.25893 7.77854 1.91893 6.97139C1.58602 6.15711 1.41602 5.37854 1.41602 4.63568C1.41602 4.14997 1.50102 3.68568 1.67102 3.25711C1.84102 2.82139 2.11018 2.42139 2.4856 2.06425C2.93893 1.61425 3.43477 1.39282 3.95893 1.39282C4.15727 1.39282 4.3556 1.43568 4.53268 1.52139C4.71685 1.60711 4.87977 1.73568 5.00727 1.92139L6.6506 4.25711C6.7781 4.43568 6.87018 4.59997 6.93393 4.75711C6.99768 4.90711 7.0331 5.05711 7.0331 5.19282C7.0331 5.36425 6.98352 5.53568 6.88435 5.69997C6.79227 5.86425 6.65768 6.03568 6.48768 6.20711L5.94935 6.77139C5.87143 6.84997 5.83602 6.94282 5.83602 7.05711C5.83602 7.11425 5.8431 7.16425 5.85727 7.22139C5.87852 7.27854 5.89977 7.32139 5.91393 7.36425C6.04143 7.59997 6.26102 7.90711 6.57268 8.27854C6.89143 8.64997 7.23143 9.02854 7.59977 9.40711C7.6706 9.47854 7.74852 9.54997 7.81935 9.6214C8.10268 9.89997 8.10977 10.3571 7.82643 10.6428Z" fill="#BE1704"/>
<path d="M15.5629 13.0571C15.5629 13.2571 15.5274 13.4643 15.4566 13.6643C15.4354 13.7214 15.4141 13.7786 15.3858 13.8357C15.2654 14.0929 15.1095 14.3357 14.9041 14.5643C14.557 14.95 14.1745 15.2286 13.7424 15.4071C13.7354 15.4071 13.7283 15.4143 13.7212 15.4143C13.3033 15.5857 12.8499 15.6786 12.3612 15.6786C11.6387 15.6786 10.8666 15.5071 10.052 15.1571C9.23745 14.8071 8.42286 14.3357 7.61536 13.7429C7.33911 13.5357 7.06286 13.3286 6.80078 13.1071L9.11703 10.7714C9.31536 10.9214 9.49245 11.0357 9.6412 11.1143C9.67661 11.1286 9.71911 11.15 9.7687 11.1714C9.82536 11.1929 9.88203 11.2 9.94578 11.2C10.0662 11.2 10.1583 11.1571 10.2362 11.0786L10.7745 10.5429C10.9516 10.3643 11.1216 10.2286 11.2845 10.1429C11.4474 10.0429 11.6104 9.99286 11.7874 9.99286C11.922 9.99286 12.0637 10.0214 12.2195 10.0857C12.3754 10.15 12.5383 10.2429 12.7154 10.3643L15.0599 12.0429C15.2441 12.1714 15.3716 12.3214 15.4495 12.5C15.5204 12.6786 15.5629 12.8571 15.5629 13.0571Z" fill="#BE1704"/>
</svg>
