<svg width="22" height="22" viewBox="0 0 22 22" fill="none" xmlns="http://www.w3.org/2000/svg">
<path d="M10.1288 13.7048L8.43301 15.4007C8.07551 15.7582 7.50717 15.7582 7.14051 15.4098C7.03967 15.309 6.93884 15.2173 6.83801 15.1165C5.89384 14.1632 5.04134 13.164 4.28051 12.119C3.52884 11.074 2.92384 10.029 2.48384 8.99315C2.05301 7.94815 1.83301 6.94898 1.83301 5.99565C1.83301 5.37232 1.94301 4.77648 2.16301 4.22648C2.38301 3.66732 2.73134 3.15398 3.21717 2.69565C3.80384 2.11815 4.44551 1.83398 5.12384 1.83398C5.38051 1.83398 5.63717 1.88898 5.86634 1.99898C6.10467 2.10898 6.31551 2.27398 6.48051 2.51232L8.60718 5.50982C8.77218 5.73898 8.89134 5.94982 8.97384 6.15148C9.05634 6.34398 9.10218 6.53648 9.10218 6.71065C9.10218 6.93065 9.03801 7.15065 8.90968 7.36148C8.79051 7.57232 8.61634 7.79232 8.39634 8.01232L7.69967 8.73648C7.59884 8.83732 7.55301 8.95648 7.55301 9.10315C7.55301 9.17648 7.56218 9.24065 7.58051 9.31398C7.60801 9.38732 7.63551 9.44232 7.65384 9.49732C7.81884 9.79982 8.10301 10.194 8.50634 10.6707C8.91884 11.1473 9.35884 11.6332 9.83551 12.119C9.92717 12.2107 10.028 12.3023 10.1197 12.394C10.4863 12.7515 10.4955 13.3382 10.1288 13.7048Z" fill="#BE1704"/>
<path d="M20.139 16.8016C20.139 17.0583 20.0931 17.3241 20.0015 17.5808C19.974 17.6541 19.9465 17.7275 19.9098 17.8008C19.754 18.1308 19.5523 18.4425 19.2865 18.7358C18.8373 19.2308 18.3423 19.5883 17.7831 19.8175C17.774 19.8175 17.7648 19.8266 17.7556 19.8266C17.2148 20.0466 16.6281 20.1658 15.9956 20.1658C15.0606 20.1658 14.0615 19.9458 13.0073 19.4966C11.9531 19.0475 10.899 18.4425 9.85397 17.6816C9.49647 17.4158 9.13897 17.15 8.7998 16.8658L11.7973 13.8683C12.054 14.0608 12.2831 14.2075 12.4756 14.3083C12.5215 14.3266 12.5765 14.3541 12.6406 14.3816C12.714 14.4091 12.7873 14.4183 12.8698 14.4183C13.0256 14.4183 13.1448 14.3633 13.2456 14.2625L13.9423 13.575C14.1715 13.3458 14.3915 13.1716 14.6023 13.0616C14.8131 12.9333 15.024 12.8691 15.2531 12.8691C15.4273 12.8691 15.6106 12.9058 15.8123 12.9883C16.014 13.0708 16.2248 13.19 16.454 13.3458L19.4881 15.5C19.7265 15.665 19.8915 15.8575 19.9923 16.0866C20.084 16.3158 20.139 16.545 20.139 16.8016Z" fill="#BE1704"/>
</svg>
