<svg width="97" height="75" viewBox="0 0 97 75" fill="none" xmlns="http://www.w3.org/2000/svg">
<path d="M67.1516 17.041V14.6914C68.5098 14.2282 69.4949 12.9557 69.4949 11.4455V10.9358C69.4949 9.03629 67.9473 7.49146 66.0457 7.49146H31.5664C29.6642 7.49146 28.1172 9.03684 28.1172 10.9358V11.4455C28.1172 12.9557 29.1029 14.2281 30.4599 14.6914V17.0416C30.4599 17.7902 31.0699 18.3983 31.8185 18.3983H32.2413L29.4542 23.2696C28.5795 24.7982 28.1172 26.5371 28.1172 28.2971V65.5798C28.1172 68.5873 30.5671 71.0338 33.5789 71.0338H64.0327C67.0444 71.0338 69.4943 68.5873 69.4943 65.5798L69.4938 28.2957C69.4938 26.5351 69.0315 24.7963 68.1557 23.2682L65.3686 18.3969H65.7914C66.5422 18.3975 67.1511 17.7888 67.1511 17.0402L67.1516 17.041ZM31.5665 13.3395C30.5207 13.3395 29.6693 12.4892 29.6693 11.4449V10.9352C29.6693 9.89091 30.5208 9.04072 31.5665 9.04072L66.0458 9.04018C67.0927 9.04018 67.943 9.89043 67.943 10.9347V11.4444C67.943 12.4887 67.0916 13.3389 66.0458 13.3389L31.5665 13.3395ZM66.8108 24.0376C67.5518 25.3327 67.9437 26.8057 67.9437 28.2964V65.5791C67.9437 67.7321 66.1899 69.4829 64.0345 69.4829L33.5792 69.4834C31.4232 69.4834 29.67 67.7321 29.67 65.5797L29.6694 28.2956C29.6694 26.8048 30.0613 25.3313 30.8018 24.0368L34.029 18.3968H63.5835L66.8108 24.0376ZM65.6004 16.848H32.0121V14.8891H65.6004V16.848Z" fill="#BE1704"/>
<path d="M60.52 67.5249H37.0945C34.0828 67.5249 31.6328 65.0784 31.6328 62.071V28.3016C31.6447 26.3822 32.6245 24.6374 34.2543 23.6282C35.8847 22.6201 37.8858 22.5206 39.6077 23.3606L42.2871 24.6703C44.8935 25.9444 47.4863 26.6757 49.993 26.8466C52.7255 27.0309 55.3632 26.6806 57.8314 25.8034C58.4842 25.5715 59.1078 25.312 59.6842 25.0331C61.712 24.0515 64.0666 24.5439 65.2828 26.2039C65.7467 26.8385 65.9822 27.5444 65.9822 28.3017V62.071C65.9816 65.0775 63.5317 67.5245 60.5199 67.5245L60.52 67.5249ZM37.1707 24.3446C36.4421 24.3446 35.7162 24.5462 35.0716 24.9451C33.8981 25.671 33.1927 26.9283 33.1841 28.3061V62.07C33.1841 64.223 34.9379 65.9737 37.0934 65.9737H60.5188C62.6749 65.9737 64.4281 64.2224 64.4281 62.07L64.4286 28.3006C64.4286 27.873 64.2976 27.486 64.0275 27.1174C63.2546 26.0628 61.713 25.7714 60.3586 26.426C59.7307 26.7298 59.0551 27.0103 58.3487 27.2611C55.6801 28.2103 52.8314 28.5887 49.8867 28.3903C47.1786 28.2065 44.3921 27.4233 41.6039 26.0612L38.9245 24.7515C38.367 24.4796 37.7677 24.3439 37.1702 24.3439L37.1707 24.3446Z" fill="#BE1704"/>
<path d="M60.7389 36.2892C60.1002 35.767 59.3678 35.4227 58.5878 35.2557L58.6679 34.4297C58.7096 34.0038 58.3962 33.6243 57.9713 33.5843C57.5399 33.5373 57.1648 33.8546 57.1242 34.2811L57.0387 35.16C56.8546 35.1762 56.6695 35.2005 56.4833 35.2357C53.7096 35.7605 52.2887 38.6378 52.4902 40.4696C52.5427 40.9491 52.6315 41.4507 52.7251 41.9776C53.0066 43.5668 53.326 45.3684 52.7111 47.4926C52.2488 49.0888 50.9534 51.1293 50.0084 52.6196C49.3209 53.7012 48.9561 54.2866 48.8181 54.7072C48.3975 55.9936 48.7434 57.4395 49.6998 58.392C50.2909 58.9812 51.039 59.2925 51.8082 59.2925C52.114 59.2925 52.4215 59.2439 52.7246 59.1439C55.6724 58.1731 58.6556 54.5278 59.8426 52.4581C62.0121 48.676 62.9176 45.2376 62.8711 40.9609C62.8516 39.0843 62.0748 37.3816 60.7389 36.2891L60.7389 36.2892ZM58.4962 51.6863C57.1311 54.0636 54.4175 56.9532 52.2384 57.6716C51.5444 57.9003 51.0356 57.5327 50.7964 57.2944C50.3493 56.8489 50.0202 56.0252 50.2941 55.1879C50.378 54.9322 50.8575 54.1776 51.3198 53.4485C52.3152 51.8798 53.6798 49.7313 54.2033 47.922C54.9178 45.4522 54.5492 43.3756 54.2531 41.7064C54.166 41.2145 54.0826 40.7469 54.0334 40.2994C53.9029 39.1199 54.9298 37.1059 56.7729 36.7572C57.0268 36.7091 57.2758 36.6853 57.5205 36.6853C58.3443 36.6853 59.1075 36.9572 59.756 37.488C60.7352 38.2886 61.3047 39.5599 61.3204 40.9761C61.3631 44.9576 60.5187 48.1603 58.4964 51.6861L58.4962 51.6863Z" fill="#BE1704"/>
<path d="M58.5409 37.8902C58.7579 38.2589 58.6345 38.734 58.2653 38.9507C57.8956 39.168 57.4204 39.0448 57.2028 38.6756C56.9857 38.307 57.1091 37.8318 57.4783 37.6151C57.848 37.3978 58.3233 37.521 58.5409 37.8902Z" fill="#BE1704"/>
<path d="M55.9841 39.9949C56.2011 40.3635 56.0777 40.8386 55.7085 41.0554C55.3394 41.2721 54.8636 41.1489 54.6465 40.7803C54.4289 40.4111 54.5523 39.9365 54.922 39.7192C55.2912 39.5025 55.767 39.6257 55.9841 39.9949Z" fill="#BE1704"/>
<path d="M58.3163 40.2191C58.5333 40.5878 58.4099 41.0629 58.0407 41.2797C57.671 41.4964 57.1958 41.3732 56.9782 41.0045C56.7611 40.6353 56.8845 40.1607 57.2537 39.9435C57.6234 39.7267 58.0987 39.8499 58.3163 40.2191Z" fill="#BE1704"/>
<path d="M60.4227 42.7735C60.6397 43.1427 60.5163 43.6173 60.1472 43.8346C59.7775 44.0514 59.3022 43.9281 59.0846 43.5595C58.8676 43.1903 58.991 42.7152 59.3601 42.4984C59.7298 42.2817 60.2056 42.4049 60.4227 42.7735Z" fill="#BE1704"/>
<path d="M57.4128 49.5332C57.6304 49.9024 57.5069 50.377 57.1372 50.5943C56.7681 50.811 56.2923 50.6878 56.0752 50.3191C55.8576 49.9499 55.981 49.4753 56.3507 49.258C56.7199 49.0413 57.1957 49.1645 57.4128 49.5332Z" fill="#BE1704"/>
<path d="M58.8055 47.3177C59.0226 47.6869 58.8992 48.1615 58.53 48.3788C58.1603 48.5955 57.6845 48.4723 57.4674 48.1037C57.2504 47.7345 57.3738 47.2599 57.743 47.0426C58.1127 46.8258 58.5879 46.9491 58.8055 47.3177Z" fill="#BE1704"/>
<path d="M57.9783 43.7117C58.1954 44.0808 58.072 44.5554 57.7028 44.7727C57.3331 44.9895 56.8579 44.8662 56.6403 44.4976C56.4232 44.1284 56.5466 43.6538 56.9163 43.4365C57.2855 43.2198 57.7613 43.343 57.9783 43.7117Z" fill="#BE1704"/>
<path d="M48.9862 37.2855C50.5793 35.386 50.6616 33.1861 49.206 31.4003C49.1724 31.3597 49.1356 31.3246 49.101 31.2846L49.8334 30.497C50.1251 30.183 50.1073 29.6927 49.7928 29.4019C49.4799 29.1111 48.9879 29.1284 48.6961 29.4424L47.8885 30.3105C47.2633 29.9662 46.5591 29.7689 45.8267 29.7543C44.5178 29.7192 43.2566 30.2776 42.3835 31.2629L42.1956 31.4753C40.8045 33.0483 39.6905 34.5245 38.7915 35.9882C37.4864 38.1135 36.6811 40.0502 36.2577 42.0838C36.0748 42.9617 35.9995 43.8513 35.9421 44.6183L35.8398 46.0404C35.8702 49.0464 36.3963 51.9506 37.4956 55.1803C38.7753 58.9425 40.404 61.3927 41.5012 62.4294C42.2471 63.1348 43.1554 63.5029 44.0977 63.5029C44.468 63.5029 44.8436 63.4462 45.216 63.33C46.6401 62.8889 47.5961 61.5138 47.4894 60.0608C47.4683 59.7765 47.412 59.5089 47.32 59.2668C46.5411 57.188 46.1384 56.0625 45.2777 53.2534C43.9153 48.8069 44.265 44.3783 46.2375 41.1043C47.1057 39.6649 48.7897 37.5233 48.9862 37.2854L48.9862 37.2855ZM43.7958 53.7067C44.6689 56.5569 45.077 57.6991 45.8684 59.8103C45.9079 59.9152 45.9328 60.0379 45.9436 60.1746C45.9972 60.9038 45.4873 61.6238 44.7576 61.8497C43.9744 62.0913 43.1987 61.8978 42.5692 61.3032C41.5781 60.3665 40.0798 57.9561 38.9663 54.6816C37.9216 51.6113 37.422 48.8607 37.3912 46.0887L37.4913 44.732C37.5449 44.0152 37.6153 43.1844 37.7793 42.398C38.1647 40.545 38.9074 38.7662 40.1166 36.7975C40.968 35.4105 42.0296 34.0045 43.3616 32.4996L43.5495 32.2872C44.1048 31.6586 44.8995 31.3013 45.7379 31.3013C45.7574 31.3013 45.7775 31.3013 45.7975 31.3018C46.6571 31.3191 47.4614 31.711 48.0038 32.3764C48.9955 33.5937 48.924 34.946 47.8317 36.2509C47.7721 36.3131 45.9003 38.6606 44.9098 40.3038C42.7099 43.9552 42.3039 48.8394 43.7958 53.7063V53.7067Z" fill="#BE1704"/>
<path d="M47.8679 33.6186C47.8679 34.0467 47.5204 34.3937 47.0917 34.3937C46.6629 34.3937 46.3154 34.0467 46.3154 33.6186C46.3154 33.191 46.6629 32.844 47.0917 32.844C47.5204 32.844 47.8679 33.191 47.8679 33.6186Z" fill="#BE1704"/>
<path d="M44.9401 34.0752C44.9401 34.5027 44.5926 34.8498 44.1639 34.8498C43.7352 34.8498 43.3877 34.5027 43.3877 34.0752C43.3877 33.6471 43.7352 33.3 44.1639 33.3C44.5926 33.3 44.9401 33.6471 44.9401 34.0752Z" fill="#BE1704"/>
<path d="M42.5964 36.4151C42.5964 36.8427 42.2489 37.1897 41.8202 37.1897C41.3915 37.1897 41.0439 36.8427 41.0439 36.4151C41.0439 35.987 41.3915 35.64 41.8202 35.64C42.2489 35.64 42.5964 35.987 42.5964 36.4151Z" fill="#BE1704"/>
<path d="M46.1818 36.858C46.1818 37.2861 45.8343 37.6331 45.4056 37.6331C44.9768 37.6331 44.6299 37.2861 44.6299 36.858C44.6299 36.4299 44.9768 36.0834 45.4056 36.0834C45.8343 36.0834 46.1818 36.4299 46.1818 36.858Z" fill="#BE1704"/>
<path d="M43.3732 38.4742C43.3732 38.9023 43.0257 39.2493 42.5975 39.2493C42.1688 39.2493 41.8213 38.9023 41.8213 38.4742C41.8213 38.0461 42.1688 37.6996 42.5975 37.6996C43.0257 37.6996 43.3732 38.0461 43.3732 38.4742Z" fill="#BE1704"/>
<path d="M40.4425 40.0254C40.4425 40.4535 40.0956 40.8 39.6668 40.8C39.2381 40.8 38.8906 40.4535 38.8906 40.0254C38.8906 39.5973 39.2381 39.2502 39.6668 39.2502C40.0956 39.2502 40.4425 39.5973 40.4425 40.0254Z" fill="#BE1704"/>
<path d="M40.6046 42.5521C40.6046 42.9802 40.2571 43.3272 39.829 43.3272C39.4002 43.3272 39.0527 42.9802 39.0527 42.5521C39.0527 42.1245 39.4002 41.7775 39.829 41.7775C40.2571 41.7775 40.6046 42.1245 40.6046 42.5521Z" fill="#BE1704"/>
<path d="M39.4777 45.6656C39.4777 46.0937 39.1302 46.4407 38.7015 46.4407C38.2733 46.4407 37.9258 46.0937 37.9258 45.6656C37.9258 45.238 38.2733 44.891 38.7015 44.891C39.1302 44.891 39.4777 45.238 39.4777 45.6656Z" fill="#BE1704"/>
</svg>
