<svg width="57" height="65" viewBox="0 0 57 65" fill="none" xmlns="http://www.w3.org/2000/svg">
<rect x="6.27129" y="9.98577" width="44.1" height="54.3143" rx="4.3" fill="white" stroke="#BE1704" stroke-width="1.4"/>
<rect x="26.7" y="40.6286" width="3.24286" height="10.6714" rx="1.62143" fill="white" stroke="#BE1704" stroke-width="1.4"/>
<rect x="0.464286" y="0.464286" width="0.928571" height="7.42857" rx="0.464286" transform="matrix(-4.37114e-08 1 1 4.37114e-08 18.5713 41.7858)" fill="white" stroke="#BE1704" stroke-width="0.928571"/>
<rect x="1.62871" y="7.2" width="52.4571" height="6.02857" rx="3.01429" fill="white" stroke="#BE1704" stroke-width="1.4"/>
<path d="M0.7 19.5C0.7 18.8609 1.21807 18.3428 1.85714 18.3428H5.8V20.6571H1.85714C1.21807 20.6571 0.7 20.139 0.7 19.5Z" fill="white" stroke="#BE1704" stroke-width="1.4"/>
<path d="M55.9426 19.5C55.9426 18.8609 55.4245 18.3428 54.7854 18.3428H50.8426V20.6571H54.7854C55.4245 20.6571 55.9426 20.139 55.9426 19.5Z" fill="white" stroke="#BE1704" stroke-width="1.4"/>
<line x1="5.57129" y1="55.0142" x2="50.1427" y2="55.0142" stroke="#BE1704" stroke-width="1.4"/>
<line x1="5.57129" y1="59.6572" x2="50.1427" y2="59.6572" stroke="#BE1704" stroke-width="1.4"/>
<line x1="5.57129" y1="24.3714" x2="50.1427" y2="24.3714" stroke="#BE1704" stroke-width="1.4"/>
<path d="M23.9139 4.78577C23.9139 4.0678 24.4959 3.48577 25.2139 3.48577H31.4282C32.1461 3.48577 32.7282 4.0678 32.7282 4.78577V6.72862H23.9139V4.78577Z" stroke="#BE1704" stroke-width="1.4"/>
<path d="M11.6985 4.17068C11.3934 3.52079 11.6728 2.74657 12.3227 2.44141L14.3625 1.48366C15.0124 1.1785 15.7866 1.45797 16.0917 2.10786L16.1523 2.23681L11.7591 4.29963L11.6985 4.17068Z" fill="#BE1704" stroke="#BE1704" stroke-width="1.4"/>
<line x1="16.1146" y1="6.86015" x2="13.3289" y2="2.21729" stroke="#BE1704" stroke-width="1.4"/>
<path d="M45.3132 4.17068C45.6184 3.52079 45.3389 2.74657 44.689 2.44141L42.6493 1.48366C41.9994 1.1785 41.2251 1.45797 40.92 2.10786L40.8594 2.23681L45.2526 4.29963L45.3132 4.17068Z" fill="#BE1704" stroke="#BE1704" stroke-width="1.4"/>
<line y1="-0.7" x2="5.41445" y2="-0.7" transform="matrix(0.514496 -0.857493 -0.857493 -0.514496 40.2969 6.5)" stroke="#BE1704" stroke-width="1.4"/>
</svg>
