<svg width="82" height="67" viewBox="0 0 82 67" fill="none" xmlns="http://www.w3.org/2000/svg">
<path d="M11.5708 40.1336C11.6129 40.161 11.6573 40.1847 11.704 40.2038C11.7502 40.223 11.7982 40.2376 11.8476 40.2471C11.8966 40.2572 11.9469 40.2626 11.9973 40.2626C12.0476 40.2626 12.0979 40.2572 12.1474 40.2471C12.1968 40.238 12.2453 40.2234 12.292 40.2038C12.3382 40.1851 12.3826 40.1614 12.4242 40.1336C12.4663 40.1058 12.5052 40.0739 12.5404 40.0379C12.6846 39.8942 12.766 39.6995 12.766 39.4966C12.766 39.4465 12.761 39.3963 12.7509 39.3471C12.7413 39.2979 12.7267 39.25 12.707 39.2039C12.6882 39.1574 12.6644 39.1132 12.6365 39.0712C12.4636 38.8141 12.1524 38.686 11.8476 38.7457C11.7982 38.7553 11.7502 38.7699 11.704 38.789C11.6573 38.8086 11.6129 38.8319 11.5708 38.8592C11.5287 38.887 11.4893 38.919 11.4541 38.955C11.3095 39.0986 11.2285 39.2933 11.2285 39.4962C11.2285 39.6995 11.3095 39.8942 11.4541 40.0379C11.4893 40.0734 11.5287 40.1053 11.5708 40.1336L11.5708 40.1336Z" fill="#BE1704"/>
<path d="M12.766 54.8466C12.766 55.2697 12.4219 55.6126 11.9973 55.6126C11.5726 55.6126 11.2285 55.2697 11.2285 54.8466C11.2285 54.4234 11.5726 54.0806 11.9973 54.0806C12.4219 54.0806 12.766 54.4234 12.766 54.8466Z" fill="#BE1704"/>
<path d="M12.766 44.6134C12.766 45.0366 12.4219 45.3794 11.9973 45.3794C11.5726 45.3794 11.2285 45.0366 11.2285 44.6134C11.2285 44.1903 11.5726 43.8474 11.9973 43.8474C12.4219 43.8474 12.766 44.1903 12.766 44.6134Z" fill="#BE1704"/>
<path d="M12.766 49.7294C12.766 50.1521 12.4219 50.4954 11.9973 50.4954C11.5726 50.4954 11.2285 50.1521 11.2285 49.7294C11.2285 49.3063 11.5726 48.9634 11.9973 48.9634C12.4219 48.9634 12.766 49.3063 12.766 49.7294Z" fill="#BE1704"/>
<path d="M11.2876 60.2556C11.3072 60.3017 11.3306 60.3459 11.358 60.3883C11.4862 60.5784 11.693 60.7015 11.9218 60.7239C12.1506 60.7467 12.3775 60.666 12.5404 60.5046C12.5766 60.469 12.6086 60.4298 12.6365 60.3883C12.664 60.3459 12.6873 60.3017 12.707 60.2556C12.7267 60.2096 12.7413 60.1617 12.7509 60.1125C12.761 60.0632 12.766 60.0131 12.766 59.9629C12.766 59.9123 12.761 59.8621 12.7509 59.8124C12.7413 59.7632 12.7267 59.7153 12.707 59.6693C12.6882 59.6232 12.6644 59.5794 12.6365 59.5379C12.4649 59.279 12.1529 59.1499 11.8476 59.211C11.7982 59.2211 11.7502 59.2357 11.7039 59.2557C11.6568 59.274 11.6124 59.2977 11.5708 59.3259C11.5287 59.3533 11.4893 59.3847 11.4541 59.4203C11.4184 59.4563 11.3859 59.496 11.358 59.5379C11.3022 59.6214 11.2637 59.7144 11.2441 59.8124C11.234 59.8621 11.2285 59.9123 11.2285 59.9629C11.2285 60.0131 11.234 60.0632 11.2441 60.1124C11.2541 60.1612 11.2688 60.2091 11.2875 60.2556H11.2876Z" fill="#BE1704"/>
<path d="M72.3905 35.1062H71.6702C71.8039 34.2258 71.8707 33.3367 71.8707 32.4457C71.8707 24.5157 66.6107 18.0641 60.1458 18.0641C59.7184 18.0645 59.292 18.0928 58.8683 18.1493C59.8773 16.2986 61.2999 14.7045 63.0264 13.4894C63.2547 13.3463 63.3911 13.0941 63.3856 12.8251C63.3801 12.5561 63.2337 12.3099 62.9994 12.1763L60.9329 10.9963C60.6675 10.8445 60.3371 10.8645 60.0913 11.0465C59.9536 11.1486 56.8649 13.485 55.4116 17.8416C53.6897 17.501 51.9074 17.6319 50.2542 18.221L50.1819 17.6054V17.6059C50.1407 17.2548 49.948 16.9393 49.6543 16.7409C49.6405 16.7318 49.6259 16.724 49.6122 16.7154C49.5984 16.7067 49.5806 16.6958 49.5646 16.6867C49.2873 16.5316 48.9596 16.4906 48.6526 16.5727L47.3787 16.9137C45.4861 17.4212 43.8177 18.5433 42.638 20.1022C41.0342 17.9993 39.1965 16.3009 37.5514 14.7798C36.2559 13.5824 35.0329 12.4517 34.1913 11.3533C33.952 11.0405 33.6838 10.6671 33.3731 10.2344C31.3451 7.41106 28.1173 2.91681 23.9468 2.88342C22.8595 2.21955 20.0902 0.663319 18.6552 1.09147C17.0572 1.56839 15.862 4.49609 15.4859 5.52747C12.2818 7.94636 12.0906 13.2244 11.9689 16.5766C11.9488 17.1279 11.9318 17.6039 11.9035 18.0084C11.8069 19.3871 11.4097 21.0013 10.9887 22.7111C10.1363 26.1709 9.0888 30.4254 9.94727 35.1061H9.60957C9.18493 35.1061 8.84082 35.449 8.84082 35.8721V63.5861C8.84082 64.0092 9.18493 64.3521 9.60957 64.3521H72.3911C72.8158 64.3521 73.1599 64.0092 73.1599 63.5861V35.8721C73.1599 35.449 72.8158 35.1061 72.3911 35.1061L72.3905 35.1062ZM60.634 12.5912L61.2197 12.9254C59.4475 14.3931 58.0281 16.2379 57.0653 18.3239C57.0071 18.3016 56.95 18.2792 56.8918 18.2583V18.2578C57.6473 16.0888 58.9336 14.1409 60.634 12.5912L60.634 12.5912ZM50.3813 19.8135C51.9165 19.1756 53.6105 19.0215 55.2358 19.3717C53.3726 20.4199 51.7485 22.0669 50.5364 24.1957C50.2161 24.0461 49.8862 23.9189 49.548 23.815C50.0765 22.5456 50.3593 21.1877 50.3813 19.8135L50.3813 19.8135ZM43.6507 21.3214C44.5622 19.9827 45.897 18.9869 47.4427 18.4927L45.3089 21.4732C45.1895 21.6387 45.1414 21.8444 45.1749 22.0455C45.2083 22.2465 45.3204 22.4257 45.4869 22.5443C45.6535 22.6624 45.8603 22.7098 46.0617 22.6756C46.2635 22.6414 46.4428 22.5288 46.5609 22.3623L48.8186 19.2071C48.9394 20.4993 48.604 22.2229 47.9908 23.5337C45.4567 23.4279 43.6345 25.1076 42.4988 26.476L42.4462 26.1983C42.2508 24.4816 42.6782 22.7517 43.6505 21.3214L43.6507 21.3214ZM42.4046 28.9281C42.4105 28.924 42.4174 28.9208 42.4234 28.9167C42.4522 28.8989 42.4796 28.8788 42.5057 28.857C42.6572 28.7498 42.7903 28.6199 42.9015 28.4717L42.9198 28.4461C43.9572 27.0304 45.8878 24.3959 48.9033 25.2193C51.4008 25.9014 52.8834 27.9642 53.6879 29.5745C54.7641 31.7289 55.1384 34.0228 55.1298 35.4514C55.1142 36.5334 54.9783 37.6103 54.7257 38.6632H27.3213C27.0349 37.6177 26.8825 36.5398 26.8692 35.4559C26.8692 33.3084 27.395 31.0668 28.3124 29.3059C29.4326 27.1547 31.0415 25.78 33.0956 25.2192C34.9978 24.6998 36.3628 25.5972 37.4628 26.6905C37.4733 26.7019 37.4838 26.7124 37.4953 26.7233C37.8412 27.0698 38.1615 27.4346 38.4631 27.7793C38.712 28.0634 38.9472 28.3319 39.1723 28.5581C39.7343 29.0906 40.4998 29.3556 41.2722 29.2849C41.658 29.2603 42.0323 29.1454 42.3654 28.9498C42.3787 28.9429 42.3915 28.9356 42.4048 28.9279L42.4046 28.9281ZM32.1221 11.1264C32.4269 11.5509 32.7147 11.9517 32.9687 12.2832C33.8898 13.486 35.1596 14.6605 36.505 15.9035C38.2278 17.4957 40.1671 19.2904 41.7687 21.509C41.3848 22.2864 41.1189 23.1163 40.9794 23.9716C40.7442 23.59 40.4984 23.202 40.2504 22.8099C39.117 21.0198 37.8325 18.9912 37.811 17.8062C37.8032 17.3886 37.4614 17.0539 37.0423 17.0543H37.0281C36.6035 17.0616 36.2657 17.4109 36.2735 17.834C36.3033 19.4472 37.5887 21.4776 38.9495 23.6274C39.8643 25.0724 40.8801 26.6796 41.163 27.7575H41.1579C40.8349 27.7922 40.5118 27.6918 40.2656 27.4807C40.0748 27.2892 39.8556 27.0375 39.6222 26.7722C39.3578 26.4703 39.0562 26.1266 38.7158 25.7791C37.3833 21.1407 34.5874 17.6636 32.5374 15.1161C31.6817 14.0528 30.9423 13.1341 30.5148 12.3853C30.3528 12.1012 30.1716 11.7725 29.973 11.4128C28.8208 9.32443 27.1918 6.37351 25.2727 4.65182C28.1157 5.54823 30.5313 8.91087 32.1224 11.1264L32.1221 11.1264ZM19.0959 2.55939C19.4674 2.44813 20.4718 2.80195 21.5504 3.32448L18.1532 4.33853L17.6009 4.50359C18.1075 3.5014 18.6817 2.68292 19.0959 2.55942L19.0959 2.55939ZM16.9695 16.801C16.9489 16.3883 16.9127 15.8973 16.8743 15.377C16.646 12.2802 16.2209 6.51554 18.5944 5.80702L21.7847 4.85452C24.1962 4.1332 27.1879 9.54908 28.6239 12.1522C28.8266 12.5192 29.0114 12.8543 29.1766 13.1443C29.6649 13.9988 30.4391 14.9613 31.3365 16.0761C32.9729 18.1092 35.1048 20.7592 36.494 24.0913H36.4944C35.3165 23.4963 33.9557 23.3714 32.6891 23.743C27.6067 25.131 25.3315 30.6266 25.3315 35.4575C25.342 36.5386 25.4779 37.6146 25.7379 38.6643H19.2341C18.636 37.4154 18.1331 36.1236 17.729 34.7996C16.1788 29.6427 16.5059 25.3176 16.7951 21.5023C16.9218 19.8249 17.0417 18.2413 16.9694 16.8015L16.9695 16.801ZM13.6167 62.8209H10.3775V36.6383H10.8845H10.8918H10.9028H13.6168L13.6167 62.8209ZM14.3855 35.1069L11.5128 35.1065C10.6177 30.6508 11.6048 26.6362 12.4815 23.0768C12.9185 21.3022 13.3317 19.6248 13.4369 18.1155C13.4671 17.6851 13.4854 17.174 13.5051 16.6323C13.6008 13.9896 13.7449 10.0105 15.5126 7.6842C14.9397 10.0333 15.1667 13.1183 15.3415 15.4888C15.379 15.9994 15.4147 16.4818 15.4348 16.8767C15.5021 18.2218 15.3854 19.7584 15.2623 21.3857C14.9781 25.1391 14.624 29.8095 16.2571 35.2386H16.2566C16.6108 36.4063 17.04 37.5503 17.5416 38.6638H15.1543V35.8724C15.1543 35.4493 14.8102 35.1064 14.3856 35.1064L14.3855 35.1069ZM66.8444 62.8209H15.1539V53.9311H66.8444V62.8209ZM66.8444 52.3991H15.1539V50.6176H66.8444V52.3991ZM66.8444 49.0856H15.1539V40.1959H18.7369C18.7419 40.1959 18.7465 40.1968 18.7515 40.1968C18.7566 40.1968 18.7634 40.1959 18.7694 40.1959H26.7324H26.737H26.742H66.8447L66.8444 49.0856ZM66.8444 35.8724V38.6633H56.2997C56.5303 37.6109 56.6534 36.5376 56.6676 35.4606C56.6873 32.1796 55.1845 27.392 51.8597 24.9754C53.2805 22.4699 55.3264 20.7241 57.6381 19.9881H57.6376C57.7035 19.9772 57.7676 19.9576 57.8285 19.9302C58.5807 19.7091 59.3605 19.5965 60.1444 19.596C65.7622 19.596 70.3322 25.3602 70.3322 32.4451H70.3326C70.3326 33.3365 70.259 34.2265 70.1121 35.1056H67.6137C67.4096 35.1056 67.2142 35.1863 67.0696 35.3299C66.9254 35.4736 66.8444 35.6687 66.8444 35.8716L66.8444 35.8724ZM71.6212 62.8206H68.3819V36.6381H70.7394H70.7522H70.7595H71.6212L71.6212 62.8206Z" fill="#BE1704"/>
<path d="M70.3353 38.8589C70.2937 38.8315 70.2493 38.8083 70.2031 38.7887C70.1569 38.7695 70.1079 38.7549 70.0585 38.7454C69.9596 38.7249 69.8576 38.7249 69.7588 38.7454C69.7093 38.7549 69.6613 38.7695 69.6151 38.7887C69.5689 38.8083 69.524 38.8315 69.4819 38.8589C69.4398 38.8867 69.4005 38.9186 69.3652 38.9547C69.2211 39.0983 69.1401 39.293 69.1396 39.4963C69.1396 39.5465 69.1451 39.5962 69.1552 39.6454C69.1744 39.7439 69.2133 39.8378 69.2691 39.9213C69.2971 39.9632 69.3291 40.0024 69.3652 40.0375C69.4009 40.0731 69.4398 40.105 69.4819 40.1333C69.5236 40.1611 69.5684 40.1848 69.6151 40.2035C69.6613 40.2227 69.7093 40.2372 69.7588 40.2468C69.8082 40.2569 69.8581 40.2623 69.9084 40.2623C70.2191 40.2619 70.4991 40.0754 70.6181 39.789C70.7371 39.5032 70.6712 39.174 70.452 38.9546C70.4163 38.9186 70.3774 38.8867 70.3353 38.8589L70.3353 38.8589Z" fill="#BE1704"/>
<path d="M70.6772 49.7294C70.6772 50.1521 70.3331 50.4954 69.9084 50.4954C69.4842 50.4954 69.1396 50.1521 69.1396 49.7294C69.1396 49.3063 69.4842 48.9634 69.9084 48.9634C70.3331 48.9634 70.6772 49.3063 70.6772 49.7294Z" fill="#BE1704"/>
<path d="M70.6772 54.8468C70.6772 55.2699 70.3331 55.6128 69.9084 55.6128C69.4842 55.6128 69.1396 55.2699 69.1396 54.8468C69.1396 54.4237 69.4842 54.0808 69.9084 54.0808C70.3331 54.0808 70.6772 54.4237 70.6772 54.8468Z" fill="#BE1704"/>
<path d="M70.6772 44.6134C70.6772 45.0365 70.3331 45.3794 69.9084 45.3794C69.4842 45.3794 69.1396 45.0365 69.1396 44.6134C69.1396 44.1903 69.4842 43.8474 69.9084 43.8474C70.3331 43.8474 70.6772 44.1903 70.6772 44.6134Z" fill="#BE1704"/>
<path d="M70.3362 59.3253C70.295 59.297 70.2506 59.2733 70.2039 59.2551C70.1577 59.2355 70.1092 59.2204 70.0593 59.2104C69.9605 59.1913 69.8585 59.1913 69.7596 59.2104C69.7102 59.2204 69.6622 59.235 69.6159 59.2551C69.5693 59.2733 69.5244 59.297 69.4828 59.3253C69.4411 59.3531 69.4018 59.3846 69.3661 59.4197C69.3304 59.4557 69.2979 59.4949 69.27 59.5373C69.2426 59.5788 69.2188 59.623 69.1995 59.6686C69.1808 59.7151 69.1661 59.763 69.1561 59.8118C69.1355 59.9108 69.1355 60.0129 69.1561 60.1118C69.1661 60.1606 69.1808 60.2085 69.1995 60.255C69.2192 60.3011 69.243 60.3453 69.27 60.3877C69.2979 60.4296 69.3304 60.4684 69.3661 60.504C69.529 60.6654 69.756 60.7461 69.9847 60.7237C70.214 60.7009 70.4208 60.5778 70.5489 60.3877C70.5764 60.3457 70.6002 60.3011 70.6194 60.255C70.6386 60.2085 70.6533 60.1606 70.6643 60.1118C70.6734 60.0626 70.678 60.0124 70.678 59.9623C70.6789 59.706 70.5503 59.4667 70.3362 59.3253L70.3362 59.3253Z" fill="#BE1704"/>
</svg>
