<svg width="36" height="208" viewBox="0 0 36 208" fill="none" xmlns="http://www.w3.org/2000/svg">
<path d="M35.5993 207.028C35.5839 207.359 35.303 207.615 34.9719 207.599L29.5779 207.347C29.2468 207.331 28.9911 207.05 29.0066 206.719C29.0221 206.388 29.303 206.133 29.634 206.148L34.4287 206.373L34.6532 201.578C34.6686 201.247 34.9495 200.991 35.2805 201.007C35.6116 201.022 35.8673 201.303 35.8518 201.634L35.5993 207.028ZM33.8361 2.66565C33.5799 2.87579 33.2018 2.83845 32.9917 2.58223C32.7815 2.32602 32.8189 1.94796 33.0751 1.73781L33.8361 2.66565ZM30.0853 4.43853C30.3209 4.20557 30.7008 4.20775 30.9338 4.44341C31.1668 4.67907 31.1646 5.05896 30.9289 5.29192L30.0853 4.43853ZM28.2436 8.16884C28.0268 8.41948 27.6479 8.44695 27.3972 8.23019C27.1466 8.01342 27.1191 7.63452 27.3359 7.38388L28.2436 8.16884ZM24.8055 10.5198C25.0051 10.2554 25.3813 10.2028 25.6458 10.4024C25.9103 10.602 25.9629 10.9783 25.7633 11.2428L24.8055 10.5198ZM23.4964 14.4344C23.312 14.7098 22.9394 14.7835 22.664 14.5992C22.3887 14.4149 22.3149 14.0422 22.4992 13.7668L23.4964 14.4344ZM20.3617 17.1417C20.5322 16.8575 20.9007 16.7653 21.1849 16.9358C21.469 17.1062 21.5612 17.4748 21.3908 17.759L20.3617 17.1417ZM19.4305 21.1998C19.2727 21.4912 18.9086 21.5995 18.6172 21.4417C18.3258 21.2839 18.2175 20.9198 18.3753 20.6284L19.4305 21.1998ZM16.5402 24.1856C16.6864 23.8883 17.046 23.7657 17.3434 23.9119C17.6408 24.0581 17.7633 24.4177 17.6171 24.7151L16.5402 24.1856ZM15.945 28.2759C15.8094 28.5782 15.4543 28.7134 15.152 28.5778C14.8497 28.4422 14.7145 28.0871 14.8501 27.7848L15.945 28.2759ZM13.2715 31.4655C13.3972 31.1589 13.7477 31.0123 14.0543 31.138C14.3608 31.2637 14.5075 31.6142 14.3817 31.9208L13.2715 31.4655ZM12.9362 35.6035C12.8197 35.9137 12.4738 36.0707 12.1636 35.9542C11.8534 35.8376 11.6963 35.4917 11.8129 35.1815L12.9362 35.6035ZM10.4661 38.9253C10.574 38.612 10.9154 38.4454 11.2287 38.5533C11.5421 38.6612 11.7086 39.0027 11.6007 39.316L10.4661 38.9253ZM10.3546 43.0957C10.2549 43.4117 9.9179 43.5871 9.60188 43.4874C9.28586 43.3877 9.11048 43.0507 9.21016 42.7347L10.3546 43.0957ZM8.06308 46.5335C8.15503 46.2151 8.48766 46.0316 8.80601 46.1235C9.12437 46.2155 9.30791 46.5481 9.21596 46.8665L8.06308 46.5335ZM8.16029 50.6893C8.07578 51.0097 7.74752 51.2009 7.42711 51.1164C7.1067 51.0319 6.91546 50.7036 6.99997 50.3832L8.16029 50.6893ZM6.0263 54.2496C6.10367 53.9274 6.4276 53.7289 6.74981 53.8063C7.07202 53.8837 7.2705 54.2076 7.19312 54.5298L6.0263 54.2496ZM6.31083 58.3855C6.24034 58.7093 5.92071 58.9146 5.59693 58.8441C5.27314 58.7736 5.06781 58.454 5.1383 58.1302L6.31083 58.3855ZM4.32838 62.0455C4.39217 61.7203 4.70749 61.5084 5.03266 61.5722C5.35783 61.636 5.56973 61.9513 5.50594 62.2765L4.32838 62.0455ZM4.7847 66.1583C4.7274 66.4847 4.41637 66.7028 4.08999 66.6455C3.76361 66.5882 3.54548 66.2772 3.60278 65.9508L4.7847 66.1583ZM2.94952 69.8989C3.00043 69.5715 3.30713 69.3473 3.63457 69.3982C3.96201 69.4491 4.18618 69.7558 4.13528 70.0833L2.94952 69.8989ZM3.56624 73.9882C3.52156 74.3165 3.21916 74.5465 2.89082 74.5018C2.56247 74.4571 2.33251 74.1547 2.37719 73.8264L3.56624 73.9882ZM1.87582 77.79C1.91433 77.4609 2.21235 77.2253 2.54147 77.2638C2.8706 77.3023 3.1062 77.6003 3.0677 77.9295L1.87582 77.79ZM2.64469 81.8598C2.61227 82.1895 2.31864 82.4306 1.98886 82.3982C1.65908 82.3657 1.41803 82.0721 1.45045 81.7423L2.64469 81.8598ZM1.09642 85.7174C1.12279 85.387 1.41195 85.1406 1.74227 85.167C2.07259 85.1934 2.31899 85.4825 2.29261 85.8129L1.09642 85.7174ZM2.0135 89.7603C1.99313 90.091 1.70849 90.3426 1.37775 90.3222C1.04701 90.3019 0.7954 90.0172 0.815772 89.6865L2.0135 89.7603ZM0.606721 93.6689C0.621091 93.3378 0.901117 93.0811 1.23218 93.0955C1.56324 93.1099 1.81996 93.3899 1.80559 93.7209L0.606721 93.6689ZM1.66969 97.6783C1.66131 98.0096 1.38598 98.2713 1.05472 98.263C0.723451 98.2546 0.461697 97.9793 0.470071 97.648L1.66969 97.6783ZM0.405518 101.634C0.407872 101.302 0.678402 101.036 1.00976 101.038C1.34113 101.04 1.60784 101.311 1.60549 101.642L0.405518 101.634ZM1.61347 105.603C1.61716 105.935 1.35155 106.206 1.0202 106.21C0.688846 106.214 0.417238 105.948 0.413542 105.617L1.61347 105.603ZM0.494617 109.601C0.484822 109.27 0.745393 108.993 1.07662 108.984C1.40784 108.974 1.6843 109.234 1.69409 109.566L0.494617 109.601ZM1.84794 113.524C1.8639 113.855 1.60851 114.136 1.27753 114.152C0.946539 114.168 0.665287 113.913 0.649333 113.582L1.84794 113.524ZM0.878621 117.56C0.856432 117.23 1.10647 116.944 1.4371 116.922C1.76772 116.899 2.05374 117.149 2.07593 117.48L0.878621 117.56ZM2.37888 121.43C2.40739 121.76 2.16287 122.051 1.83273 122.079C1.50259 122.108 1.21184 121.863 1.18333 121.533L2.37888 121.43ZM1.56476 125.5C1.52983 125.171 1.76864 124.875 2.09816 124.84C2.42769 124.805 2.72314 125.044 2.75808 125.374L1.56476 125.5ZM3.21458 129.308C3.25605 129.637 3.02315 129.937 2.69439 129.978C2.36562 130.02 2.06549 129.787 2.02402 129.458L3.21458 129.308ZM2.56279 133.408C2.51466 133.08 2.74142 132.775 3.06928 132.727C3.39714 132.679 3.70193 132.906 3.75007 133.233L2.56279 133.408ZM4.36574 137.145C4.42067 137.472 4.20029 137.781 3.8735 137.836C3.54671 137.891 3.23727 137.671 3.18234 137.344L4.36574 137.145ZM3.88489 141.269C3.82301 140.943 4.03675 140.629 4.36229 140.567C4.68784 140.505 5.0019 140.719 5.06378 141.044L3.88489 141.269ZM5.84534 144.925C5.91433 145.249 5.70751 145.568 5.3834 145.637C5.05929 145.706 4.74062 145.499 4.67164 145.175L5.84534 144.925ZM5.54557 149.066C5.4693 148.744 5.66888 148.421 5.99136 148.344C6.31383 148.268 6.63708 148.468 6.71335 148.79L5.54557 149.066ZM7.66854 152.63C7.75227 152.951 7.56023 153.279 7.23961 153.362C6.91899 153.446 6.59121 153.254 6.50748 152.933L7.66854 152.63ZM7.56148 156.781C7.47009 156.463 7.65422 156.13 7.97274 156.039C8.29126 155.948 8.62355 156.132 8.71494 156.45L7.56148 156.781ZM9.85239 160.238C9.95163 160.555 9.77577 160.891 9.45961 160.991C9.14345 161.09 8.8067 160.914 8.70747 160.598L9.85239 160.238ZM9.95117 164.391C9.84387 164.077 10.011 163.736 10.3246 163.629C10.6381 163.521 10.9792 163.689 11.0865 164.002L9.95117 164.391ZM12.4156 167.725C12.5311 168.035 12.373 168.381 12.0625 168.496C11.7519 168.612 11.4064 168.454 11.2909 168.143L12.4156 167.725ZM12.7346 171.867C12.6105 171.559 12.7591 171.21 13.0663 171.086C13.3736 170.962 13.7233 171.11 13.8473 171.418L12.7346 171.867ZM15.3777 175.059C15.5104 175.363 15.3719 175.717 15.0682 175.849C14.7646 175.982 14.4109 175.844 14.2781 175.54L15.3777 175.059ZM15.9323 179.177C15.7907 178.878 15.9187 178.52 16.2183 178.378C16.5178 178.237 16.8755 178.365 17.0171 178.664L15.9323 179.177ZM18.7585 182.207C18.9093 182.502 18.7922 182.864 18.4971 183.014C18.202 183.165 17.8406 183.048 17.6899 182.753L18.7585 182.207ZM19.5645 186.284C19.4045 185.994 19.51 185.629 19.8001 185.469C20.0903 185.309 20.4552 185.415 20.6153 185.705L19.5645 186.284ZM22.5781 189.13C22.7475 189.415 22.6541 189.783 22.3694 189.952C22.0846 190.122 21.7164 190.028 21.5469 189.744L22.5781 189.13ZM23.6493 193.143C23.4702 192.865 23.551 192.493 23.8298 192.314C24.1086 192.135 24.4798 192.216 24.6589 192.495L23.6493 193.143ZM26.8507 195.779C27.0395 196.051 26.9718 196.425 26.6995 196.614C26.4272 196.803 26.0534 196.735 25.8645 196.463L26.8507 195.779ZM28.2006 199.705C28.002 199.44 28.0561 199.063 28.3213 198.865C28.5866 198.666 28.9626 198.72 29.1612 198.986L28.2006 199.705ZM31.5862 202.101C31.7946 202.359 31.7547 202.737 31.4971 202.945C31.2395 203.154 30.8617 203.114 30.6533 202.856L31.5862 202.101ZM33.226 205.914C33.0077 205.664 33.033 205.285 33.2824 205.067C33.5317 204.849 33.9108 204.874 34.129 205.123L33.226 205.914ZM35.3558 1.48311C34.8455 1.85893 34.3389 2.25324 33.8361 2.66565L33.0751 1.73781C33.5935 1.31261 34.1166 0.905473 34.6442 0.516891L35.3558 1.48311ZM30.9289 5.29192C30.019 6.1915 29.1235 7.15133 28.2436 8.16884L27.3359 7.38388C28.235 6.34419 29.1518 5.36139 30.0853 4.43853L30.9289 5.29192ZM25.7633 11.2428C24.9937 12.2623 24.2379 13.3268 23.4964 14.4344L22.4992 13.7668C23.2527 12.6414 24.0216 11.5583 24.8055 10.5198L25.7633 11.2428ZM21.3908 17.759C20.7239 18.8707 20.0703 20.0182 19.4305 21.1998L18.3753 20.6284C19.0231 19.432 19.6854 18.2691 20.3617 17.1417L21.3908 17.759ZM17.6171 24.7151C17.0471 25.8744 16.4896 27.0618 15.945 28.2759L14.8501 27.7848C15.4003 26.5583 15.9638 25.3581 16.5402 24.1856L17.6171 24.7151ZM14.3817 31.9208C13.8876 33.1258 13.4056 34.3538 12.9362 35.6035L11.8129 35.1815C12.2863 33.9209 12.7727 32.6818 13.2715 31.4655L14.3817 31.9208ZM11.6007 39.316C11.1732 40.5573 10.7577 41.8175 10.3546 43.0957L9.21016 42.7347C9.61639 41.4468 10.0351 40.1766 10.4661 38.9253L11.6007 39.316ZM9.21596 46.8665C8.85231 48.1255 8.50032 49.4001 8.16029 50.6893L6.99997 50.3832C7.34234 49.0852 7.69681 47.8016 8.06308 46.5335L9.21596 46.8665ZM7.19312 54.5298C6.88749 55.8026 6.5933 57.0881 6.31083 58.3855L5.1383 58.1302C5.42256 56.8246 5.71864 55.5308 6.0263 54.2496L7.19312 54.5298ZM5.50594 62.2765C5.2541 63.5603 5.01361 64.8545 4.7847 66.1583L3.60278 65.9508C3.83305 64.6392 4.075 63.3371 4.32838 62.0455L5.50594 62.2765ZM4.13528 70.0833C3.9342 71.3767 3.74444 72.6786 3.56624 73.9882L2.37719 73.8264C2.55642 72.5093 2.74727 71.1999 2.94952 69.8989L4.13528 70.0833ZM3.0677 77.9295C2.9152 79.233 2.77413 80.5433 2.64469 81.8598L1.45045 81.7423C1.58061 80.4186 1.72247 79.1009 1.87582 77.79L3.0677 77.9295ZM2.29261 85.8129C2.18795 87.1236 2.09484 88.4397 2.0135 89.7603L0.815772 89.6865C0.897561 88.3586 0.99118 87.0354 1.09642 85.7174L2.29261 85.8129ZM1.80559 93.7209C1.74849 95.0365 1.70312 96.3558 1.66969 97.6783L0.470071 97.648C0.503688 96.3182 0.549306 94.9916 0.606721 93.6689L1.80559 93.7209ZM1.60549 101.642C1.59613 102.96 1.59872 104.281 1.61347 105.603L0.413542 105.617C0.398713 104.287 0.396105 102.959 0.405518 101.634L1.60549 101.642ZM1.69409 109.566C1.73309 110.884 1.7843 112.204 1.84794 113.524L0.649333 113.582C0.585335 112.254 0.533829 110.927 0.494617 109.601L1.69409 109.566ZM2.07593 117.48C2.16431 118.797 2.26523 120.114 2.37888 121.43L1.18333 121.533C1.06901 120.209 0.967509 118.885 0.878621 117.56L2.07593 117.48ZM2.75808 125.374C2.89727 126.687 3.04938 127.998 3.21458 129.308L2.02402 129.458C1.85781 128.141 1.70479 126.821 1.56476 125.5L2.75808 125.374ZM3.75007 133.233C3.94191 134.54 4.14707 135.844 4.36574 137.145L3.18234 137.344C2.96228 136.035 2.75582 134.723 2.56279 133.408L3.75007 133.233ZM5.06378 141.044C5.31045 142.342 5.57091 143.636 5.84534 144.925L4.67164 145.175C4.39536 143.877 4.13317 142.575 3.88489 141.269L5.06378 141.044ZM6.71335 148.79C7.01738 150.076 7.33571 151.356 7.66854 152.63L6.50748 152.933C6.17227 151.65 5.8517 150.361 5.54557 149.066L6.71335 148.79ZM8.71494 156.45C9.07917 157.72 9.45825 158.983 9.85239 160.238L8.70747 160.598C8.31032 159.333 7.92839 158.06 7.56148 156.781L8.71494 156.45ZM11.0865 164.002C11.514 165.251 11.9569 166.492 12.4156 167.725L11.2909 168.143C10.8285 166.901 10.382 165.65 9.95117 164.391L11.0865 164.002ZM13.8473 171.418C14.3413 172.641 14.8513 173.855 15.3777 175.059L14.2781 175.54C13.7472 174.325 13.2327 173.101 12.7346 171.867L13.8473 171.418ZM17.0171 178.664C17.5808 179.856 18.1612 181.038 18.7585 182.207L17.6899 182.753C17.0869 181.572 16.5011 180.38 15.9323 179.177L17.0171 178.664ZM20.6153 185.705C21.252 186.859 21.9062 188.001 22.5781 189.13L21.5469 189.744C20.8682 188.603 20.2075 187.45 19.5645 186.284L20.6153 185.705ZM24.6589 192.495C25.3713 193.604 26.1018 194.699 26.8507 195.779L25.8645 196.463C25.1075 195.371 24.3692 194.264 23.6493 193.143L24.6589 192.495ZM29.1612 198.986C29.9507 200.04 30.759 201.079 31.5862 202.101L30.6533 202.856C29.8165 201.822 28.999 200.771 28.2006 199.705L29.1612 198.986ZM34.129 205.123C34.5624 205.619 35.0006 206.109 35.4436 206.596L34.5564 207.404C34.108 206.912 33.6645 206.415 33.226 205.914L34.129 205.123Z" fill="#BE1704"/>
</svg>
