<svg width="76" height="45" viewBox="0 0 76 45" fill="none" xmlns="http://www.w3.org/2000/svg">
<path d="M10.5297 25.2599C10.9334 26.445 11.5292 27.5322 12.2776 28.5263C16.3349 33.9425 24.9616 36.587 32.702 37.3264C33.6523 37.4195 34.5829 37.4782 35.4988 37.5174C35.5136 37.5174 35.5234 37.5174 35.5382 37.5174C36.065 37.5174 36.5033 37.1061 36.523 36.5772C36.5427 36.0385 36.1192 35.5831 35.5776 35.5586C35.3314 35.5488 35.0803 35.5341 34.8341 35.5243C30.6192 35.2843 24.8287 34.3049 20.1214 32.0963C16.9012 30.5635 14.3162 28.5214 12.9621 25.9406C12.9276 25.8721 12.8931 25.8035 12.8636 25.735C12.7947 25.5978 12.7257 25.4558 12.6666 25.3138C12.5731 25.0983 12.4894 24.8829 12.4106 24.6576C12.4106 24.6478 12.4057 24.6429 12.4007 24.638C12.322 24.4127 12.1693 24.2315 11.9773 24.1189C11.7902 24.0063 11.5735 23.9524 11.347 23.9818C11.283 23.9916 11.219 24.0063 11.1501 24.0259C10.766 24.1581 10.51 24.5009 10.4853 24.8829C10.4755 25.0102 10.4903 25.1424 10.5346 25.2697L10.5297 25.2599Z" fill="#BE1704"/>
<path d="M35.538 44.9952C36.0698 44.9952 36.5031 44.574 36.5228 44.0451C36.5375 43.5064 36.1141 43.051 35.5675 43.0363C20.6333 42.576 3.77383 36.0285 1.95691 24.7897C1.86828 24.2559 1.36113 23.8935 0.829348 23.9767C0.292642 24.0649 -0.0717438 24.5644 0.0119627 25.0982C2.02092 37.5075 19.3876 44.4956 35.5035 44.9903C35.5134 44.9903 35.5232 44.9903 35.533 44.9903L35.538 44.9952Z" fill="#BE1704"/>
<path d="M0.829505 21.0188C0.883668 21.0286 0.93291 21.0335 0.987073 21.0335C1.45977 21.0335 1.87829 20.6907 1.95707 20.2107C3.77399 8.97186 20.6285 2.41953 35.5677 1.9641C36.1093 1.94941 36.5377 1.49398 36.5229 0.955293C36.5081 0.41661 36.0404 -0.00943971 35.5086 0.00525163C19.3877 0.49986 2.02108 7.49294 0.0170477 19.8973C-0.0715827 20.4311 0.297727 20.9355 0.834433 21.0188H0.829505Z" fill="#BE1704"/>
<path d="M40.4913 0.000372927C39.9447 -0.0143184 39.4917 0.406831 39.4769 0.950411C39.4622 1.48909 39.8856 1.94452 40.4322 1.95921C55.3664 2.41954 72.2259 8.96699 74.0428 20.2059C74.1216 20.6858 74.5401 21.0286 75.0128 21.0286C75.0669 21.0286 75.1162 21.0286 75.1703 21.0139C75.7071 20.9257 76.0714 20.4262 75.9877 19.8925C73.9788 7.48317 56.6121 0.494981 40.4962 0.000372927H40.4913Z" fill="#BE1704"/>
<path d="M63.5995 20.3627C63.7374 20.7692 64.1214 21.0288 64.5301 21.0288C64.6335 21.0288 64.7419 21.0141 64.8453 20.9749C65.3623 20.8035 65.638 20.2452 65.4607 19.7359C62.5901 11.2933 50.2212 7.85552 40.4965 7.47844C39.9598 7.45885 39.497 7.88 39.4723 8.41868C39.4526 8.95737 39.8761 9.4128 40.4177 9.43729C40.6442 9.44708 40.8806 9.45688 41.1218 9.47157C46.3953 9.77029 54.1751 11.2198 59.1877 14.8094C61.2409 16.2786 62.8264 18.1052 63.5946 20.3627H63.5995Z" fill="#BE1704"/>
<path d="M75.1655 23.9815C74.6337 23.8983 74.1216 24.2557 74.0379 24.7944C72.221 36.0333 55.3664 42.5856 40.4273 43.0411C39.8857 43.0558 39.4573 43.5112 39.4721 44.0499C39.4868 44.5788 39.9251 44.9999 40.4568 44.9999C40.4667 44.9999 40.4765 44.9999 40.4864 44.9999C56.6073 44.5053 73.9739 37.5122 75.9779 25.1078C76.0666 24.5741 75.6972 24.0697 75.1605 23.9864L75.1655 23.9815Z" fill="#BE1704"/>
<path d="M21.8845 25.549C25.0604 29.6332 34.4158 30.358 35.4745 30.4265C35.4942 30.4265 35.5188 30.4265 35.5385 30.4265C36.0506 30.4265 36.4839 30.0299 36.5184 29.5108C36.5528 28.9721 36.1441 28.5069 35.6025 28.4677C31.0577 28.169 25.3115 26.7537 23.4405 24.3443C23.1056 23.9183 22.4901 23.8399 22.0568 24.168C21.6285 24.501 21.5497 25.1132 21.8796 25.5441L21.8845 25.549Z" fill="#BE1704"/>
<path d="M54.1154 19.4518C50.9395 15.3676 41.5841 14.6428 40.5254 14.5743C39.9838 14.54 39.516 14.9465 39.4766 15.4851C39.4422 16.0238 39.8508 16.4891 40.3925 16.5282C44.9372 16.827 50.6835 18.2422 52.5545 20.6516C52.7466 20.9014 53.042 21.0336 53.3325 21.0336C53.5443 21.0336 53.756 20.965 53.9332 20.8279C54.3616 20.4949 54.4404 19.8828 54.1105 19.4518H54.1154Z" fill="#BE1704"/>
<path d="M35.499 7.47844C29.1373 7.7233 21.6431 9.28058 16.4188 12.6939C16.2071 12.831 16.0052 12.973 15.7984 13.115C15.7442 13.1542 15.6901 13.1885 15.6359 13.2277C13.2528 14.9465 11.4309 17.0964 10.5347 19.7359C10.3624 20.2501 10.6381 20.8035 11.1502 20.9749C11.2536 21.0092 11.362 21.0288 11.4654 21.0288C11.874 21.0288 12.2581 20.7692 12.396 20.3627C14.6758 13.6537 24.233 10.7252 31.5844 9.78008C31.7026 9.76539 31.8257 9.7507 31.9439 9.73601C33.2487 9.5793 34.4748 9.48136 35.5728 9.43729C36.1145 9.4177 36.5379 8.96226 36.5182 8.41868C36.4985 7.88 36.0406 7.45885 35.494 7.47844H35.499Z" fill="#BE1704"/>
<path d="M22.0566 20.8231C22.2338 20.9602 22.4455 21.0288 22.6573 21.0288C22.9527 21.0288 23.2432 20.8965 23.4353 20.6468C25.3063 18.2423 31.0525 16.8222 35.5973 16.5234C36.1389 16.4891 36.5525 16.0239 36.5132 15.4803C36.4787 14.9417 36.0109 14.5303 35.4644 14.5695C34.4057 14.638 25.0503 15.3628 21.8744 19.447C21.5396 19.8731 21.6183 20.4901 22.0516 20.8231H22.0566Z" fill="#BE1704"/>
<path d="M53.9387 24.1727C53.5103 23.8446 52.8899 23.9229 52.5551 24.349C50.684 26.7534 44.9378 28.1736 40.393 28.4723C39.8514 28.5066 39.4378 28.9718 39.4772 29.5154C39.5117 30.0345 39.945 30.4312 40.4571 30.4312C40.4768 30.4312 40.5014 30.4312 40.5211 30.4312C41.5797 30.3626 50.9351 29.6378 54.1111 25.5536C54.4459 25.1276 54.3671 24.5106 53.9338 24.1776L53.9387 24.1727Z" fill="#BE1704"/>
<path d="M40.462 37.517C40.462 37.517 40.4866 37.517 40.5014 37.517C41.7176 37.468 42.9732 37.375 44.2485 37.2281C53.1706 36.1997 62.9593 32.6492 65.4656 25.2595C65.6379 24.7453 65.3622 24.1919 64.8501 24.0205C64.3331 23.8491 63.7767 24.1234 63.5994 24.6327C61.3 31.4005 51.595 34.3241 44.2189 35.2447C43.9481 35.279 43.6773 35.3084 43.4114 35.3378C42.8796 35.3965 42.3626 35.4406 41.8604 35.4798C41.3631 35.519 40.8805 35.5434 40.4226 35.563C39.881 35.5826 39.4575 36.0381 39.4772 36.5816C39.4969 37.1105 39.9351 37.5219 40.462 37.5219V37.517Z" fill="#BE1704"/>
</svg>
