<svg width="76" height="45" viewBox="0 0 76 45" fill="none" xmlns="http://www.w3.org/2000/svg">
<path d="M64.6532 6.43428C57.9017 2.50972 49.0686 0.259973 39.6245 0.0249988C39.083 0.0100004 38.5415 0 37.995 0C37.4486 0 36.9071 0.0100004 36.3655 0.0249988C26.9214 0.259973 18.0834 2.50972 11.3369 6.43428C4.02903 10.6788 0 16.3882 0 22.5025C0 28.6168 4.02406 34.3262 11.3369 38.5707C18.4759 42.7203 27.9448 45 38 45C48.0552 45 57.5241 42.7153 64.6631 38.5707C71.971 34.3262 76 28.6168 76 22.5025C76 16.3882 71.976 10.6788 64.6631 6.43428H64.6532ZM15.9422 7.29419C21.4467 4.09454 28.6702 2.24475 36.4252 2.02478C36.9468 2.00978 37.4684 2.00477 37.9901 2.00477C38.5117 2.00477 39.0383 2.01478 39.555 2.02478C47.31 2.24475 54.5334 4.09454 60.0379 7.29419C65.7412 10.6088 68.8809 14.9533 68.8809 19.5278C68.8809 24.1023 65.7412 28.4518 60.0379 31.7615C54.1658 35.1761 46.3313 37.0559 37.9851 37.0559C29.6389 37.0559 21.8094 35.1761 15.9323 31.7615C10.2291 28.4468 7.0893 24.1023 7.0893 19.5278C7.0893 14.9533 10.2291 10.6038 15.9323 7.29419H15.9422ZM63.6646 36.8359C56.8237 40.8105 47.7074 43.0002 37.995 43.0002C28.2827 43.0002 19.1664 40.8105 12.3255 36.8359C5.65852 32.9613 1.98223 27.8719 1.98223 22.4975C1.98223 18.223 4.31717 14.1234 8.63433 10.6738C6.33416 13.3735 5.10707 16.3832 5.10707 19.5228C5.10707 24.8422 8.59956 29.8017 14.9437 33.4913C21.1139 37.0759 29.3011 39.0507 37.9901 39.0507C46.6791 39.0507 54.8613 37.0759 61.0365 33.4913C67.3806 29.8067 70.8731 24.8472 70.8731 19.5228C70.8731 16.3832 69.646 13.3735 67.3458 10.6738C71.663 14.1234 73.9979 18.218 73.9979 22.4975C73.9979 27.8669 70.3266 32.9613 63.6546 36.8359H63.6646Z" fill="#BE1704"/>
<path d="M27.8152 24.6274C30.4731 26.1722 34.1792 27.0571 37.9896 27.0571C41.8001 27.0571 45.5111 26.1722 48.164 24.6274C50.5834 23.2225 51.9695 21.3627 51.9695 19.5279C51.9695 17.6931 50.5834 15.8334 48.164 14.4285C45.5062 12.8837 41.8001 11.9988 37.9896 11.9988C34.1792 11.9988 30.4681 12.8837 27.8152 14.4285C25.3958 15.8334 24.0098 17.6931 24.0098 19.5279C24.0098 21.3627 25.3958 23.2225 27.8152 24.6274ZM28.8088 16.1633C31.1736 14.7885 34.517 14.0036 37.9896 14.0036C41.4622 14.0036 44.8107 14.7935 47.1704 16.1633C48.9291 17.1882 49.9823 18.4431 49.9823 19.5279C49.9823 20.6128 48.9341 21.8727 47.1704 22.8926C44.8057 24.2674 41.4622 25.0523 37.9896 25.0523C34.517 25.0523 31.1686 24.2624 28.8088 22.8926C27.0502 21.8677 25.997 20.6128 25.997 19.5279C25.997 18.4431 27.0452 17.1832 28.8088 16.1633Z" fill="#BE1704"/>
</svg>
