<svg width="77" height="45" viewBox="0 0 77 45" fill="none" xmlns="http://www.w3.org/2000/svg">
<path d="M75.2419 25.0967C76.3578 24.4577 77 23.5106 77 22.5C77 21.4894 76.3578 20.5423 75.2419 19.9033L60.0432 11.1707L62.776 9.60272L60.9542 8.55589L58.2214 10.1239L42.1118 0.87009C41.1371 0.308156 39.8527 0 38.5 0C37.1473 0 35.8629 0.308156 34.8882 0.87009L18.7786 10.1239L16.0458 8.55589L14.224 9.60272L16.9568 11.1707L1.75807 19.9033C0.642198 20.5468 0 21.4894 0 22.5C0 23.5106 0.642198 24.4577 1.75807 25.0967L16.9568 33.8293L14.224 35.3973L16.0458 36.4441L18.7786 34.8761L34.8882 44.1299C35.8629 44.6918 37.1473 45 38.5 45C39.8527 45 41.1371 44.6918 42.1118 44.1299L58.2214 34.8761L60.9542 36.4441L62.776 35.3973L60.0432 33.8293L75.2419 25.0967ZM74.331 21.4713C74.8685 21.7795 75.1782 22.1556 75.1782 22.5C75.1782 22.8444 74.8685 23.2205 74.331 23.5287L58.2214 32.7825L52.3095 29.3882C55.0013 27.4758 56.4679 25.0695 56.4679 22.5C56.4679 19.9305 55.0013 17.5242 52.3095 15.6118L58.2214 12.2175L74.331 21.4713ZM47.7595 26.7734L45.9377 27.8202L48.6476 29.3792C46.0743 30.5438 42.9635 31.2326 39.6569 31.3595C39.2743 31.3731 38.8871 31.3912 38.5 31.3912C38.1129 31.3912 37.7257 31.3731 37.3431 31.3595C34.0319 31.2281 30.9257 30.5438 28.3524 29.3792L31.0623 27.8202L29.2405 26.7734L26.4485 28.3776C23.8023 26.7372 22.354 24.6616 22.354 22.5C22.354 20.3384 23.8069 18.2674 26.4485 16.6224L29.2405 18.2266L31.0623 17.1798L28.3524 15.6208C30.9303 14.4517 34.0456 13.7674 37.3613 13.636C37.7394 13.6224 38.1174 13.6042 38.5046 13.6042C38.8917 13.6042 39.2652 13.6224 39.6478 13.636C42.9635 13.7628 46.0788 14.4517 48.6567 15.6208L45.9468 17.1798L47.7686 18.2266L50.5606 16.6224C53.2068 18.2628 54.6551 20.3384 54.6551 22.5C54.6551 24.6616 53.2022 26.7326 50.5606 28.3776L47.7686 26.7734H47.7595ZM35.7991 2.43807C36.4914 2.03927 37.4752 1.81269 38.5 1.81269C39.5248 1.81269 40.5086 2.03927 41.2009 2.43807L56.3996 11.1707L50.5378 14.5378C47.2403 12.7749 42.9954 11.7961 38.5 11.7961C34.0046 11.7961 29.7597 12.7749 26.4622 14.5378L20.6004 11.1707L35.7991 2.43807ZM2.66444 23.5287C2.127 23.2205 1.81728 22.8444 1.81728 22.5C1.81728 22.1556 2.127 21.7795 2.66444 21.4713L18.774 12.2175L24.6859 15.6118C21.9941 17.5242 20.5276 19.9305 20.5276 22.5C20.5276 25.0695 21.9941 27.4758 24.6859 29.3882L18.774 32.7825L2.66444 23.5287ZM41.1963 42.5619C40.504 42.9607 39.5202 43.1873 38.4954 43.1873C37.4707 43.1873 36.4869 42.9607 35.7946 42.5619L20.5959 33.8293L26.4576 30.4622C29.7552 32.2251 34.0001 33.2039 38.4954 33.2039C42.9908 33.2039 47.2357 32.2251 50.5332 30.4622L56.395 33.8293L41.1963 42.5619Z" fill="#BE1704"/>
<path d="M32.4971 18.5302C30.7208 19.5498 29.7461 20.9592 29.7461 22.5C29.7461 24.0408 30.7253 25.4501 32.4971 26.4698C34.1139 27.3988 36.2455 27.9109 38.5 27.9109C40.7545 27.9109 42.8815 27.3988 44.503 26.4698C46.2793 25.4501 47.254 24.0408 47.254 22.5C47.254 20.9592 46.2747 19.5498 44.503 18.5302C42.8861 17.6012 40.7545 17.0891 38.5 17.0891C36.2455 17.0891 34.1185 17.6012 32.4971 18.5302ZM45.4321 22.5C45.4321 23.3655 44.7763 24.2175 43.5921 24.9018C42.2485 25.6722 40.4403 26.0982 38.5 26.0982C36.5598 26.0982 34.7561 25.6722 33.408 24.9018C32.2192 24.2175 31.5679 23.3655 31.5679 22.5C31.5679 21.6344 32.2238 20.7825 33.408 20.0982C34.7516 19.3278 36.5598 18.9018 38.5 18.9018C40.4403 18.9018 42.2439 19.3278 43.5921 20.0982C44.7808 20.7825 45.4321 21.6344 45.4321 22.5Z" fill="#BE1704"/>
</svg>
