<svg width="76" height="45" viewBox="0 0 76 45" fill="none" xmlns="http://www.w3.org/2000/svg">
<path d="M11.3318 38.5658C18.469 42.7147 27.9397 45 38 45C48.0603 45 57.531 42.7147 64.6682 38.5658C71.9759 34.3189 76 28.6154 76 22.5C76 16.3846 71.9759 10.6811 64.6682 6.43418C57.531 2.28531 48.0603 0 38 0C27.9397 0 18.469 2.28531 11.3318 6.43418C4.02411 10.6811 0 16.3846 0 22.5C0 28.6154 4.02411 34.3189 11.3318 38.5658ZM12.3062 8.131C19.1559 4.15378 28.2808 1.96164 38 1.96164C47.7192 1.96164 56.849 4.15378 63.6938 8.131C70.3731 12.015 74.0513 17.1153 74.0513 22.5C74.0513 27.8847 70.3731 32.985 63.6938 36.869C56.8441 40.8462 47.7192 43.0384 38 43.0384C28.2808 43.0384 19.151 40.8462 12.3062 36.869C5.62693 32.985 1.94872 27.8847 1.94872 22.5C1.94872 17.1153 5.62693 12.015 12.3062 8.131Z" fill="#BE1704"/>
<path d="M14.0162 19.8029H22.8585C23.8378 19.8029 24.8073 19.5528 25.6598 19.0869C26.0398 18.876 26.4588 18.675 26.8973 18.4886C29.8447 17.2234 33.7908 16.527 38.0001 16.527C42.2093 16.527 46.1555 17.2234 49.1029 18.4886C49.5462 18.6799 49.9604 18.8809 50.3404 19.0869C51.1929 19.5577 52.1624 19.8029 53.1416 19.8029H61.9888C62.7342 19.8029 63.4016 19.3861 63.7329 18.7142C64.0642 18.0423 63.9911 17.2528 63.5429 16.6545C62.1155 14.7566 60.0206 13.0696 57.3167 11.6376C52.1429 8.8962 45.2834 7.38574 38.0001 7.38574C30.7167 7.38574 23.8621 8.8962 18.6834 11.6376C15.9796 13.0696 13.8896 14.7566 12.4572 16.6545C12.009 17.2528 11.9311 18.0423 12.2673 18.7142C12.5985 19.3861 13.266 19.8029 14.0113 19.8029H14.0162ZM19.5944 13.3785C24.4955 10.7843 31.0334 9.35228 38.0001 9.35228C44.9667 9.35228 51.5047 10.7843 56.4057 13.3785C58.8514 14.6732 60.7318 16.1788 61.9839 17.8413H53.1416C52.4791 17.8413 51.8506 17.6794 51.2757 17.3656C50.8421 17.1253 50.3647 16.8948 49.8677 16.6839C46.6816 15.3206 42.4675 14.5702 38.0001 14.5702C33.5326 14.5702 29.3185 15.3206 26.1324 16.6839C25.6355 16.8997 25.158 17.1302 24.7244 17.3656C24.1544 17.6794 23.5114 17.8413 22.8585 17.8413H14.0113C15.2683 16.1739 17.1439 14.6732 19.5896 13.3785H19.5944Z" fill="#BE1704"/>
<path d="M61.9887 25.1978H53.1464C52.1671 25.1978 51.1976 25.4479 50.3451 25.9138C49.9651 26.1246 49.551 26.3257 49.1077 26.5121C46.1602 27.7773 42.2141 28.4688 38.0048 28.4688C33.7956 28.4688 29.8495 27.7724 26.902 26.5121C26.4587 26.3208 26.0446 26.1197 25.6646 25.9138C24.812 25.443 23.8426 25.1978 22.8633 25.1978H14.0161C13.2707 25.1978 12.6033 25.6146 12.272 26.2865C11.9407 26.9583 12.0138 27.7479 12.462 28.3462C13.8895 30.2441 15.9843 31.9311 18.6882 33.3631C23.862 36.1045 30.7215 37.6149 38.0048 37.6149C45.2882 37.6149 52.1428 36.1045 57.3215 33.3631C60.0254 31.9311 62.1154 30.2441 63.5477 28.3462C63.9959 27.7479 64.0739 26.9583 63.7377 26.2865C63.4064 25.6146 62.7389 25.1978 61.9936 25.1978H61.9887ZM56.4105 31.6221C51.5095 34.2164 44.9715 35.6484 38.0048 35.6484C31.0382 35.6484 24.5002 34.2164 19.5992 31.6221C17.1536 30.3274 15.2731 28.8219 14.021 27.1594H22.8682C23.5307 27.1594 24.1592 27.3212 24.7341 27.6351C25.1677 27.8754 25.6451 28.1059 26.142 28.3217C29.3282 29.685 33.5423 30.4353 38.0097 30.4353C42.4772 30.4353 46.6912 29.685 49.8774 28.3217C50.3792 28.1059 50.8518 27.8754 51.2854 27.64C51.8554 27.3261 52.4984 27.1643 53.1512 27.1643H61.9984C60.7415 28.8317 58.8659 30.3323 56.4203 31.627L56.4105 31.6221Z" fill="#BE1704"/>
</svg>
