<svg width="30" height="30" viewBox="0 0 30 30" fill="none" xmlns="http://www.w3.org/2000/svg">
<circle opacity="0.6" cx="15" cy="15" r="15" fill="white"/>
<path d="M15.9391 14.9994L18.803 12.1418C18.9284 12.0164 18.9989 11.8462 18.9989 11.6688C18.9989 11.4915 18.9284 11.3213 18.803 11.1959C18.6776 11.0705 18.5075 11 18.3301 11C18.1528 11 17.9827 11.0705 17.8572 11.1959L15 14.0602L12.1428 11.1959C12.0173 11.0705 11.8472 11 11.6699 11C11.4925 11 11.3224 11.0705 11.197 11.1959C11.0716 11.3213 11.0011 11.4915 11.0011 11.6688C11.0011 11.8462 11.0716 12.0164 11.197 12.1418L14.0609 14.9994L11.197 17.8571C11.1346 17.919 11.085 17.9927 11.0512 18.0738C11.0174 18.155 11 18.2421 11 18.33C11 18.418 11.0174 18.505 11.0512 18.5862C11.085 18.6674 11.1346 18.741 11.197 18.803C11.2589 18.8654 11.3326 18.915 11.4137 18.9488C11.4949 18.9826 11.582 19 11.6699 19C11.7578 19 11.8449 18.9826 11.926 18.9488C12.0072 18.915 12.0808 18.8654 12.1428 18.803L15 15.9387L17.8572 18.803C17.9192 18.8654 17.9928 18.915 18.074 18.9488C18.1551 18.9826 18.2422 19 18.3301 19C18.418 19 18.5051 18.9826 18.5863 18.9488C18.6674 18.915 18.7411 18.8654 18.803 18.803C18.8654 18.741 18.915 18.6674 18.9488 18.5862C18.9826 18.505 19 18.418 19 18.33C19 18.2421 18.9826 18.155 18.9488 18.0738C18.915 17.9927 18.8654 17.919 18.803 17.8571L15.9391 14.9994Z" fill="#2F2F2F"/>
</svg>
