<svg width="131" height="18" viewBox="0 0 131 18" fill="none" xmlns="http://www.w3.org/2000/svg">
<path d="M0.750663 9.60018C32.2815 7.67867 64.041 6.33085 95.5033 3.6693C106.382 2.74907 117.3 2.1844 128.201 1.5201C128.396 1.50821 130.68 1.36903 130.234 1.3962C127.15 1.58416 124.184 2.11317 121.168 2.59246C105.407 5.0973 89.5377 7.27587 73.7481 9.69298C65.4689 10.9604 57.1207 12.1136 48.9037 13.556C45.6642 14.1246 41.1763 15.2094 37.3873 16.2587C36.447 16.8494 39.8035 16.6102 41.1316 16.57C49.9771 16.3017 58.8503 16.3615 67.6964 16.1865C85.7874 15.8285 103.781 15.2228 121.871 14.1204" stroke="#BE1704" stroke-width="1.5" stroke-linecap="round"/>
</svg>
