<svg width="158" height="19" viewBox="0 0 158 19" fill="none" xmlns="http://www.w3.org/2000/svg">
<path d="M1.02055 10.8871C39.1587 8.56298 77.5665 6.8203 115.63 3.74341C128.791 2.67957 141.997 1.9773 155.182 1.1738C155.418 1.15942 158.18 0.991079 157.641 1.02394C153.91 1.25129 150.319 1.82452 146.668 2.34771C127.586 5.08198 108.377 7.48527 89.2617 10.1305C79.2386 11.5176 69.1336 12.7891 59.1837 14.3536C55.2611 14.9704 49.8233 16.1273 45.2308 17.2399C44.0872 17.8523 48.1474 17.5696 49.7534 17.5132C60.4492 17.1369 71.1748 17.0943 81.8704 16.8129C103.744 16.2375 125.502 15.411 147.383 14.0776" stroke="#BE1704" stroke-width="1.6" stroke-linecap="round"/>
</svg>
